<svg width="50" height="50" viewBox="0 0 50 50" fill="none" xmlns="http://www.w3.org/2000/svg">
<rect x="12.5623" y="25" width="8.3829" height="8.3829" transform="rotate(135 12.5623 25)" stroke="white"/>
<rect x="22.452" y="34.1826" width="9.3829" height="9.3829" transform="rotate(135 22.452 34.1826)" fill="#00ffe1"/>
<rect x="30.9275" y="25" width="8.3829" height="8.3829" transform="rotate(135 30.9275 25)" stroke="white"/>
<rect x="40.1103" y="15.8171" width="8.3829" height="8.3829" transform="rotate(135 40.1103 15.8171)" stroke="white"/>
<rect x="22.452" y="15.8171" width="9.3829" height="9.3829" transform="rotate(135 22.452 15.8171)" fill="#00ffe1"/>
<rect x="30.9275" y="6.63477" width="8.3829" height="8.3829" transform="rotate(135 30.9275 6.63477)" stroke="white"/>
<rect x="30.9275" y="43.365" width="8.3829" height="8.3829" transform="rotate(135 30.9275 43.365)" stroke="white"/>
<rect x="40.1103" y="34.1826" width="8.3829" height="8.3829" transform="rotate(135 40.1103 34.1826)" stroke="white"/>
<rect x="50" y="25" width="9.3829" height="9.3829" transform="rotate(135 50 25)" fill="#00ffe1"/>
</svg>
