<svg width="328" height="328" viewBox="0 0 328 328" fill="none" xmlns="http://www.w3.org/2000/svg">
<g clip-path="url(#clip0)">
<path d="M164 294.973C91.8702 294.973 33.0276 236.13 33.0276 164.001C33.0276 91.8709 91.8702 33.0283 164 33.0283C236.129 33.0283 294.972 91.8709 294.972 164.001C294.972 236.13 236.129 294.973 164 294.973ZM164 33.7876C92.2498 33.7876 33.7868 92.2505 33.7868 164.001C33.7868 235.751 92.2498 294.213 164 294.213C235.75 294.213 294.213 235.751 294.213 164.001C294.213 92.2505 235.75 33.7876 164 33.7876Z" fill="#00ffe1"/>
<path d="M164 296.491C91.1112 296.491 31.8889 236.889 31.8889 164C31.8889 128.694 45.5556 95.2868 70.6111 70.6109C95.2871 45.5553 128.694 31.8887 164 31.8887C199.306 31.8887 232.713 45.5553 257.769 70.6109C282.824 95.6665 296.491 128.694 296.491 164C296.491 236.889 236.889 296.491 164 296.491ZM164 32.2683C128.694 32.2683 95.6667 45.935 70.9908 70.9905C45.9352 95.6665 32.2685 128.694 32.2685 164C32.2685 236.509 91.4908 295.731 164 295.731C236.509 295.731 295.732 236.509 295.732 164C295.732 128.694 282.065 95.6665 257.009 70.9905C232.333 45.935 199.306 32.2683 164 32.2683Z" fill="#00ffe1"/>
<path d="M164 298.009C90.3518 298.009 30.3704 237.648 30.3704 164C30.3704 128.315 44.4167 94.528 69.4722 69.4725C94.9074 44.0373 128.315 30.3706 164 30.3706C199.685 30.3706 233.472 44.4169 258.528 69.4725C283.963 94.9076 297.63 128.315 297.63 164C297.63 237.648 237.648 298.009 164 298.009ZM164 31.1299C128.315 31.1299 94.9074 44.7965 69.8518 70.2317C44.7963 94.9076 31.1296 128.315 31.1296 164C31.1296 237.269 90.7315 297.25 164.38 297.25C238.028 297.25 297.63 237.648 297.63 164C297.63 128.315 283.963 94.9076 258.528 69.8521C233.093 44.7965 199.685 31.1299 164 31.1299Z" fill="#00ffe1"/>
<path d="M164 299.148C89.5926 299.148 28.8518 238.408 28.8518 164C28.8518 127.935 42.8981 93.7687 68.3333 68.3335C93.7685 42.8983 127.935 28.8521 164 28.8521C200.065 28.8521 234.231 42.8983 259.667 68.3335C285.102 93.7687 299.148 127.935 299.148 164C299.148 238.787 238.787 299.148 164 299.148ZM164 29.6113C127.935 29.6113 94.1481 43.6576 68.7129 69.0928C43.6574 94.1483 29.6111 127.935 29.6111 164C29.6111 238.028 89.9722 298.389 164 298.389C238.028 298.389 298.389 238.028 298.389 164C298.389 127.935 284.343 94.1483 258.907 68.7132C233.852 43.6576 200.065 29.6113 164 29.6113Z" fill="#00ffe1"/>
<path d="M164 300.667C88.8333 300.667 27.3333 239.547 27.3333 164.001C27.3333 127.556 41.3796 93.0099 67.1944 67.1951C93.3888 41.7599 127.555 27.334 164 27.334C200.444 27.334 234.991 41.3803 260.805 67.1951C286.62 93.0099 300.667 127.177 300.667 164.001C300.667 239.547 239.546 300.667 164 300.667ZM164 28.0932C127.555 28.0932 93.3888 42.1395 67.9536 67.9544C42.1388 93.7692 28.0925 127.556 28.0925 164.001C28.0925 239.167 89.2129 299.908 164 299.908C238.787 299.908 299.907 239.167 299.907 164.001C299.907 127.556 285.861 93.3895 260.046 67.9544C234.611 42.1395 200.444 28.0932 164 28.0932Z" fill="#00ffe1"/>
<path d="M164 302.185C87.6946 302.185 25.8149 240.305 25.8149 164C25.8149 127.176 40.2409 92.2496 66.4353 66.4348C92.6297 40.2404 127.176 25.8145 164 25.8145C200.824 25.8145 235.75 40.2404 261.565 66.4348C287.759 92.6293 302.185 127.176 302.185 164C302.185 240.305 240.306 302.185 164 302.185ZM164 26.5737C127.176 26.5737 92.6298 40.9996 66.8149 66.8144C41.0001 93.0089 26.5742 127.176 26.5742 164C26.5742 239.926 88.0742 301.426 164 301.426C239.926 301.426 301.426 239.926 301.426 164C301.426 127.176 287 92.6293 261.185 66.8144C235.37 40.9996 200.824 26.5737 164 26.5737Z" fill="#00ffe1"/>
<path d="M164 303.703C86.9352 303.703 24.6759 241.064 24.6759 164C24.6759 126.796 39.1018 91.87 65.6759 65.2959C91.8703 39.1015 127.176 24.2959 164.38 24.2959C201.583 24.2959 236.509 38.7218 263.083 65.2959C289.278 91.4903 304.083 126.796 304.083 164C303.704 241.064 241.065 303.703 164 303.703ZM164 25.0552C126.796 25.0552 91.8703 39.4811 65.6759 65.6755C39.4815 92.2496 25.0555 126.796 25.0555 164C25.0555 240.685 87.3148 302.944 164 302.944C240.685 302.944 302.944 240.685 302.944 164C302.944 126.796 288.518 91.87 262.324 65.6755C236.13 39.4811 201.204 25.0552 164 25.0552Z" fill="#00ffe1"/>
<path d="M164 304.843C86.1759 304.843 23.1573 241.445 23.1573 164C23.1573 126.417 37.5833 91.1114 64.537 64.5373C91.1111 37.9633 126.417 23.1577 164.38 23.1577C201.963 23.1577 237.268 37.9633 264.222 64.5373C290.796 91.1114 305.602 126.417 305.602 164.38C304.843 241.824 241.824 304.843 164 304.843ZM164 23.917C126.417 23.917 91.1111 38.3429 64.9166 64.917C38.3425 91.4911 23.9166 126.797 23.9166 164C23.9166 241.445 86.9351 304.463 164.38 304.463C241.824 304.463 304.843 241.445 304.843 164C304.843 126.417 290.417 91.1114 263.843 64.917C236.889 38.3429 201.583 23.917 164 23.917Z" fill="#00ffe1"/>
<path d="M164 306.362C85.4164 306.362 21.6387 242.584 21.6387 164.001C21.6387 126.038 36.4442 90.3526 63.3979 63.3989C90.3516 36.4452 126.037 21.6396 164 21.6396C201.963 21.6396 237.648 36.4452 264.602 63.3989C291.555 90.3526 306.361 126.038 306.361 164.001C306.361 242.584 242.583 306.362 164 306.362ZM164 22.3989C126.037 22.3989 90.7313 37.2045 63.7776 63.7785C37.2035 90.7322 22.3979 126.038 22.3979 164.001C22.3979 242.204 85.7961 305.603 164 305.603C242.203 305.603 305.602 242.204 305.602 164.001C305.602 126.038 290.796 90.7322 264.222 63.7785C237.648 36.8248 201.963 22.3989 164 22.3989Z" fill="#00ffe1"/>
<path d="M164 307.879C84.6575 307.879 20.1205 243.342 20.1205 163.999C20.1205 125.657 34.926 89.5918 62.2594 62.2585C89.5927 35.3048 125.658 20.1196 164 20.1196C202.343 20.1196 238.407 34.9252 265.741 62.2585C293.074 89.5918 307.88 125.657 307.88 163.999C307.88 243.342 243.343 307.879 164 307.879ZM164 20.8789C125.658 20.8789 89.9723 35.6844 62.639 62.6381C35.6853 89.5918 20.8797 125.657 20.8797 163.999C20.8797 242.962 85.0372 307.12 164 307.12C242.963 307.12 307.12 242.962 307.12 163.999C307.12 125.657 292.315 89.9715 265.361 62.6381C238.407 35.6844 202.343 20.8789 164 20.8789Z" fill="#00ffe1"/>
<path d="M164 309.398C83.8982 309.398 18.6019 244.102 18.6019 164C18.6019 125.277 33.7871 88.833 61.1204 61.1201C88.8334 33.7867 125.278 18.6016 164 18.6016C202.722 18.6016 239.167 33.7867 266.88 61.1201C294.213 88.4534 309.398 124.898 309.398 164C309.398 244.102 244.102 309.398 164 309.398ZM164 19.3608C125.278 19.3608 89.213 34.546 61.8797 61.8793C34.5464 89.2127 19.3612 125.277 19.3612 164C19.3612 243.722 84.2779 308.639 164 308.639C243.722 308.639 308.639 243.722 308.639 164C308.639 125.277 293.454 89.2127 266.12 61.8793C239.167 34.546 202.722 19.3608 164 19.3608Z" fill="#00ffe1"/>
<path d="M164 310.917C83.1389 310.917 17.0834 245.241 17.0834 164C17.0834 124.899 32.2686 88.0745 59.9815 60.3615C87.6945 32.6486 124.519 17.4634 163.62 17.4634C202.722 17.4634 239.546 32.6486 267.259 60.3615C294.972 88.0745 310.157 124.899 310.157 164C310.917 244.862 244.861 310.917 164 310.917ZM164 17.843C124.898 17.843 88.4537 33.0282 60.7408 60.7412C33.0278 88.4541 17.8426 124.899 17.8426 164C17.8426 244.482 83.5186 310.158 164 310.158C244.482 310.158 310.157 244.482 310.157 164C310.157 124.899 294.972 88.4541 267.259 60.7412C239.926 33.0282 203.102 17.843 164 17.843Z" fill="#00ffe1"/>
<path d="M164 312.056C82.3795 312.056 15.9443 245.621 15.9443 164C15.9443 124.519 31.5092 87.3152 59.2221 59.2226C87.3147 31.13 124.518 15.9448 164 15.9448C203.481 15.9448 240.685 31.5096 268.778 59.2226C296.87 87.3152 312.055 124.519 312.055 164C312.055 245.621 245.62 312.056 164 312.056ZM164 16.7041C124.518 16.7041 87.6943 31.8893 59.6017 59.9819C31.8888 87.6948 16.7036 124.519 16.7036 164C16.7036 245.241 82.7591 311.676 164.38 311.676C246 311.676 312.055 245.621 312.055 164C312.055 124.519 296.87 87.6948 268.778 59.6022C240.305 31.8893 203.481 16.7041 164 16.7041Z" fill="#00ffe1"/>
<path d="M164 313.573C81.6205 313.573 14.426 246.379 14.426 163.999C14.426 124.138 29.9908 86.5549 58.0834 58.0827C86.5557 29.9901 124.139 14.4253 164 14.4253C203.861 14.4253 241.445 29.9901 269.917 58.0827C298.009 86.1753 313.574 123.759 313.574 163.999C313.574 246.379 246.38 313.573 164 313.573ZM164 15.1846C124.139 15.1846 86.9353 30.7494 58.8427 58.842C30.7501 86.9346 15.1853 124.138 15.1853 163.999C15.1853 245.999 82.0001 312.814 164 312.814C246 312.814 312.815 245.999 312.815 163.999C312.815 124.138 297.25 86.9346 269.158 58.842C241.065 30.7494 203.861 15.1846 164 15.1846Z" fill="#00ffe1"/>
<path d="M164 315.092C80.8612 315.092 12.9075 247.518 12.9075 164C12.9075 123.759 28.4723 85.7961 57.3241 57.3239C85.7964 28.8517 123.759 12.9072 164 12.9072C204.241 12.9072 242.204 28.472 270.676 57.3239C299.528 85.7961 315.093 123.759 315.093 164C315.093 247.518 247.519 315.092 164 315.092ZM164 13.6665C123.759 13.6665 86.176 29.2313 57.7038 57.7035C29.2315 86.1758 13.6667 123.759 13.6667 164C13.6667 246.759 81.2408 314.333 164 314.333C246.759 314.333 314.333 246.759 314.333 164C314.333 123.759 298.769 86.1758 270.296 57.7035C241.824 29.2313 204.241 13.6665 164 13.6665Z" fill="#00ffe1"/>
<path d="M164 316.611C80.1019 316.611 11.3889 248.278 11.3889 164C11.3889 123.38 27.3334 85.0373 56.1852 56.1855C85.0371 27.3336 123.38 11.3892 164 11.3892C204.62 11.3892 242.963 27.3336 271.815 56.1855C300.667 85.0373 316.611 123.38 316.611 164C316.611 248.278 248.278 316.611 164 316.611ZM164 12.1484C123.38 12.1484 85.4167 28.0929 56.5648 56.5651C28.0926 85.4169 12.1482 123.38 12.1482 164C12.1482 247.898 80.1019 315.852 164 315.852C247.898 315.852 315.852 247.898 315.852 164C315.852 123.38 299.907 85.4169 271.435 56.5651C242.583 28.0929 204.62 12.1484 164 12.1484Z" fill="#00ffe1"/>
<path d="M164 318.13C78.963 318.13 9.87036 249.038 9.87036 164C9.87036 123 25.8148 84.2783 55.0463 55.0468C84.2778 26.1949 123 10.2505 164 10.2505C205 10.2505 243.722 26.1949 272.954 55.4264C302.185 84.6579 318.13 123 318.13 164.38C318.13 249.038 249.037 318.13 164 318.13ZM164 10.6301C123 10.6301 84.6574 26.5746 55.8055 55.806C26.9537 85.0375 10.6296 123 10.6296 164C10.6296 248.658 79.3426 317.371 164 317.371C248.657 317.371 317.37 248.658 317.37 164C317.37 123 301.426 84.6579 272.574 55.806C243.343 26.5746 205 10.6301 164 10.6301Z" fill="#00ffe1"/>
<path d="M164 319.268C78.2039 319.268 8.73169 249.416 8.73169 163.999C8.73169 122.62 25.0558 83.518 54.2872 54.2865C83.5187 25.055 122.621 8.73096 164 8.73096C205.38 8.73096 244.482 25.055 273.713 54.2865C302.945 83.518 319.269 122.62 319.269 163.999C319.269 249.796 249.797 319.268 164 319.268ZM164 9.49022C122.621 9.49022 83.8984 25.4347 54.6669 54.6661C25.4354 83.8976 9.49095 122.62 9.49095 163.999C9.49095 249.416 78.5835 318.888 164 318.888C249.417 318.888 318.889 249.416 318.889 163.999C318.889 122.62 302.945 83.8976 273.713 54.6661C244.102 25.4347 205.38 9.49022 164 9.49022Z" fill="#00ffe1"/>
<path d="M164 320.787C77.4445 320.787 7.21301 250.555 7.21301 164C7.21301 122.241 23.5371 82.7592 53.1482 53.1481C82.7593 23.537 122.241 7.21289 164 7.21289C205.759 7.21289 245.241 23.537 274.852 53.1481C304.463 82.7592 320.787 122.241 320.787 164C320.787 250.555 250.556 320.787 164 320.787ZM164 7.97215C122.241 7.97215 83.1389 24.2962 53.5278 53.5277C23.9167 83.1388 7.97227 122.241 7.97227 164C7.97227 250.176 78.2038 320.028 164 320.028C249.796 320.028 320.028 249.796 320.028 164C320.028 122.241 303.704 83.1388 274.472 53.5277C244.861 24.2962 205.759 7.97215 164 7.97215Z" fill="#00ffe1"/>
<path d="M164 322.305C76.6852 322.305 5.69446 251.315 5.69446 164C5.69446 121.861 22.0185 81.9999 52.0093 52.0092C82 22.398 121.861 5.69434 164 5.69434C206.139 5.69434 246 22.0184 275.991 52.0092C305.981 81.9999 322.306 121.481 322.306 164C322.306 251.315 251.315 322.305 164 322.305ZM164 6.4536C121.861 6.4536 82.3796 22.7777 52.7685 52.7684C22.7778 82.3795 6.45372 121.861 6.45372 164C6.45372 250.935 77.0648 321.546 164 321.546C250.935 321.546 321.546 250.935 321.546 164C321.546 121.861 305.222 82.3795 275.232 52.3888C245.62 22.7777 206.139 6.4536 164 6.4536Z" fill="#00ffe1"/>
<path d="M164 323.824C75.9259 323.824 4.1759 252.074 4.1759 164C4.1759 121.482 20.8796 81.2411 50.8703 50.8707C81.2407 20.88 121.481 4.17627 164 4.17627C206.898 4.17627 246.759 20.88 277.13 51.2503C307.12 81.2411 323.824 121.482 323.824 164.38C323.824 252.074 252.074 323.824 164 323.824ZM164 4.93553C121.481 4.93553 81.6203 21.6392 51.6296 51.63C21.6389 81.6207 4.93516 121.482 4.93516 164C4.93516 251.695 76.3055 323.065 164 323.065C251.694 323.065 323.065 251.695 323.065 164C323.065 121.482 306.361 81.6207 276.37 51.63C246.38 21.6392 206.519 4.93553 164 4.93553Z" fill="#00ffe1"/>
<path d="M164 325.342C75.1665 325.342 2.65723 253.213 2.65723 164C2.65723 121.101 19.3609 80.4811 49.7313 50.1107C80.1017 19.7403 120.722 3.03662 163.62 3.03662C206.518 3.03662 247.139 19.7403 277.509 50.1107C307.879 80.4811 324.583 121.101 324.583 164C325.342 252.833 252.833 325.342 164 325.342ZM164 3.41625C121.102 3.41625 80.8609 20.12 50.4906 50.4903C20.1202 80.8607 3.41649 121.101 3.41649 164C3.41649 252.453 75.5461 324.583 164 324.583C252.454 324.583 324.583 252.453 324.583 164C324.583 121.101 307.879 80.8607 277.509 50.4903C247.139 20.12 206.898 3.41625 164 3.41625Z" fill="#00ffe1"/>
<path d="M164 326.481C74.4074 326.481 1.51855 253.592 1.51855 164C1.51855 120.722 18.6019 79.7218 48.9723 48.9718C79.7223 18.2218 120.722 1.51807 164 1.51807C207.278 1.51807 248.278 18.6014 279.028 48.9718C309.778 79.7218 326.482 120.722 326.482 164C326.482 253.592 253.593 326.481 164 326.481ZM164 2.27733C120.722 2.27733 80.1019 18.981 49.7315 49.731C18.9815 80.1014 2.27781 120.722 2.27781 164C2.27781 253.212 74.7871 326.101 164.38 326.101C253.593 326.101 326.102 253.592 326.102 164C326.102 120.722 309.398 80.1014 278.648 49.3514C247.898 18.981 207.278 2.27733 164 2.27733Z" fill="#00ffe1"/>
<path d="M164 328C73.6482 328 0 254.352 0 164C0 120.343 17.0833 78.963 48.213 47.8333C78.963 17.0833 120.343 0 164 0C207.657 0 249.037 17.0833 280.167 48.213C311.296 79.3426 328.38 120.343 328.38 164.38C328 254.352 254.352 328 164 328ZM164 0.759259C120.343 0.759259 79.3426 17.8426 48.5926 48.5926C17.8426 79.3426 0.759259 120.343 0.759259 164C0.759259 253.972 74.0278 327.241 164 327.241C253.972 327.241 327.241 253.972 327.241 164C327.241 120.343 310.157 79.3426 279.407 48.5926C248.657 17.8426 207.657 0.759259 164 0.759259Z" fill="#00ffe1"/>
<path d="M168.935 321.167C168.176 321.167 167.417 321.167 166.658 321.167C124.139 320.408 85.0372 303.704 55.426 274.473C25.8149 245.241 9.49086 205.76 9.49086 164.001H10.2501C10.2501 205.76 26.5742 244.482 56.1853 274.093C85.4168 303.325 124.898 319.649 166.658 320.408C167.417 320.408 168.176 320.408 168.935 320.408C206.519 320.408 242.204 306.741 269.917 281.686C298.009 256.251 315.852 221.325 320.028 182.982C320.787 176.528 321.167 169.695 321.167 162.862C320.787 120.723 304.463 80.8616 274.852 50.4913C244.482 19.7413 205.38 3.03758 164 3.03758C123.38 3.03758 83.8983 20.8802 52.7686 52.7691C50.1112 55.4265 47.8335 58.0839 45.9353 60.3616C20.1205 90.3524 5.31493 128.315 5.31493 164.001H4.9353C4.9353 127.936 19.7409 89.9728 45.5557 59.6024C47.4538 57.3246 49.7316 54.6672 52.389 52.0098C83.5186 20.1209 123 2.27832 164 2.27832C205.38 2.27832 244.861 19.3616 275.232 50.1116C305.222 80.482 321.546 120.723 321.926 163.241C321.926 170.075 321.546 176.528 320.787 183.362C316.232 221.704 298.389 257.01 270.296 282.445C242.204 307.501 206.519 321.167 168.935 321.167Z" fill="#00ffe1"/>
<path d="M173.491 313.954C171.972 313.954 170.454 313.954 168.935 313.954C84.6574 311.297 18.9815 245.621 18.9815 164.001H19.7407C19.7407 244.862 85.4167 310.538 168.935 313.195C170.454 313.195 171.972 313.195 173.491 313.195C208.417 313.195 241.444 300.667 266.88 277.13C293.074 252.834 310.157 219.047 313.954 181.464C314.713 175.01 315.093 168.177 315.093 162.102C314.713 121.482 298.769 82.3802 270.296 52.7691C240.685 22.0191 203.102 5.31541 164 5.31541C126.796 5.31541 87.6944 24.2969 56.9444 56.945C55.0463 59.2228 52.3889 61.8802 50.1111 64.5376C25.0555 94.908 9.87035 132.112 9.87035 164.38H9.49072C9.49072 132.112 24.6759 94.5284 49.7315 64.158C52.0092 61.5006 54.287 58.8432 56.5648 56.5654C70.9907 41.0006 88.0741 28.0932 105.917 18.9821C124.898 9.49134 144.639 4.55615 164.38 4.55615C203.481 4.55615 241.065 21.6395 270.676 52.3895C299.148 82.3802 315.472 121.482 315.852 162.482C315.852 168.936 315.472 175.389 314.713 181.843C310.537 219.427 293.833 253.593 267.259 277.889C241.444 301.427 208.417 313.954 173.491 313.954Z" fill="#00ffe1"/>
<path d="M178.046 307.12C175.769 307.12 173.491 307.12 170.833 307.12C132.111 305.222 96.426 289.657 69.852 263.842C42.8982 237.268 28.0927 201.963 28.0927 164.379H28.852C28.852 201.963 43.6575 236.889 70.6112 263.463C96.8057 289.277 132.491 304.463 170.833 306.74C242.583 310.537 299.908 257.389 307.5 180.703C308.259 173.87 308.259 167.796 308.259 161.722C307.5 122.62 292.315 84.6571 264.982 55.4256C236.509 24.296 200.445 7.59227 164 7.59227C129.454 7.59227 91.8705 26.9534 61.1205 61.12C58.8427 63.7775 56.5649 66.0552 54.6668 68.7126C30.3705 99.083 15.1853 135.907 15.1853 164.379H14.426C14.426 135.907 29.6112 98.7034 54.2871 68.333C56.1853 65.6756 58.4631 63.3978 60.7408 60.7404C75.1668 44.796 91.8705 31.5089 108.574 22.0182C127.176 11.7682 145.778 6.83301 164 6.83301C200.824 6.83301 236.889 23.9163 265.361 54.6663C292.695 84.2775 308.259 122.24 309.019 161.722C309.019 167.796 309.019 173.87 308.259 180.703C301.046 254.731 247.139 307.12 178.046 307.12Z" fill="#00ffe1"/>
<path d="M182.222 300.286C179.185 300.286 176.148 300.286 173.111 299.907C136.667 297.249 102.5 282.444 77.4444 258.148C52.0092 233.092 37.9629 200.064 37.9629 164.379H38.7222C38.7222 199.685 52.7685 233.092 78.2037 257.768C102.88 282.064 137.046 296.49 173.491 299.148C206.898 301.425 238.028 290.796 261.185 268.398C284.343 246.379 298.389 214.49 301.426 178.805C301.805 172.351 302.185 166.277 302.185 160.583C301.426 122.62 286.62 86.1754 260.426 57.3236C232.333 26.5735 198.167 9.86985 164 9.86985C145.018 9.86985 107.435 17.0828 65.2963 65.2958L64.537 66.055C62.6388 68.3328 60.7407 70.6106 58.8426 72.8884C35.3055 103.259 19.3611 140.083 19.3611 164.379H18.9814C18.9814 139.703 34.9259 102.879 58.8426 72.1291C60.7407 69.8513 62.6388 67.5736 64.537 65.2958L65.2963 64.5365C79.7222 48.2124 95.6666 34.1661 111.611 24.6754C129.454 14.0458 147.296 8.73096 164.38 8.73096C198.926 8.73096 233.093 25.8143 261.185 56.5643C287.38 85.4161 302.565 122.24 303.324 160.583C303.324 166.277 303.324 172.351 302.565 178.805C299.528 214.87 285.102 247.138 261.944 268.777C240.305 289.277 212.593 300.286 182.222 300.286Z" fill="#00ffe1"/>
<path d="M187.157 293.454C183.361 293.454 179.565 293.454 175.769 293.074C140.843 289.658 108.574 275.611 85.0371 252.834C60.3612 228.917 47.4538 198.547 47.4538 164.38H48.213C48.213 198.167 61.1204 228.537 85.7964 252.074C108.954 274.473 141.222 288.519 176.148 291.935C205.38 294.593 232.333 286.621 253.213 268.778C277.889 247.898 292.695 215.63 295.732 177.287C296.111 170.834 296.491 165.139 296.111 159.445C294.972 123 280.546 87.3151 255.87 59.2225C228.537 28.8521 195.889 11.7688 164 11.7688C146.537 11.7688 111.611 19.3614 69.8519 69.0929L68.713 70.2318C67.1945 72.1299 65.2964 74.4077 63.7779 76.3058C41.0001 106.297 24.676 143.121 24.676 164H23.9167C23.9167 142.741 39.8612 106.676 63.0186 75.9262C64.5371 73.6484 66.4353 71.7503 67.9538 69.8521L69.0927 68.7132C111.232 18.6021 146.537 11.3892 164 11.3892C196.269 11.3892 228.537 28.4725 255.87 59.2225C280.926 87.3151 295.352 123.38 296.491 159.824C296.491 165.139 296.491 171.213 296.111 177.667C293.074 216.01 278.269 248.658 253.593 269.537C234.991 285.102 212.213 293.454 187.157 293.454Z" fill="#00ffe1"/>
<path d="M191.333 286.62C187.157 286.62 182.602 286.241 178.046 285.861C144.639 282.065 114.268 268.398 92.6296 247.519C69.0925 225.12 56.9444 196.648 56.9444 164.759H57.7037C57.7037 196.648 69.8518 225.12 93.3888 247.139C115.028 268.019 145.398 281.685 178.426 285.482C205.759 288.898 230.435 282.065 249.796 265.741C272.954 246.38 287 214.491 289.278 176.528C289.657 170.074 289.657 164.759 289.657 159.445C288.518 124.519 274.472 89.9723 250.556 62.2593C224.361 31.1297 193.611 14.0464 164 14.0464C127.176 14.0464 91.8703 51.2501 74.0277 73.2686C73.6481 74.0279 73.2685 74.4075 72.5092 75.1667C70.9907 77.0649 69.4722 78.963 67.9537 80.8612C43.6574 114.269 29.2314 149.574 29.2314 164.38H28.8518C28.8518 147.296 45.9351 110.472 67.574 80.4816C69.0925 78.5834 70.6111 76.6853 72.1296 74.7871C72.5092 74.4075 72.8888 73.6482 73.6481 72.889C91.4907 50.4908 127.176 13.2871 164.38 13.2871C194.37 13.2871 225.12 30.3704 251.315 60.7408C275.231 88.8334 289.278 123.38 290.417 158.685C290.796 164 290.417 169.315 290.037 175.769C287.759 214.491 273.333 246.38 250.176 265.741C233.472 279.408 213.352 286.62 191.333 286.62Z" fill="#00ffe1"/>
<path d="M195.13 279.787C190.195 279.787 185.259 279.408 180.324 278.648C148.815 274.093 120.343 260.806 99.8428 241.824C77.8243 220.945 66.0557 194.37 66.0557 164.38H66.815C66.815 193.991 78.5835 220.565 100.222 241.065C120.343 260.046 148.815 273.333 180.324 277.889C205.759 281.685 228.537 275.991 246 261.565C268.019 243.343 280.926 212.593 282.824 174.63C283.204 168.176 283.204 162.861 282.824 157.926C281.306 124.519 268.019 91.1112 245.241 63.7779C219.806 33.4075 190.954 16.3242 163.621 16.3242C146.158 16.3242 116.926 26.9538 77.8243 77.8242C77.4446 78.5835 76.6854 79.3427 76.3057 79.7224C74.7872 81.6205 73.6483 83.139 72.1298 85.0372C61.5002 99.8427 51.6298 116.926 44.4169 132.87C37.9631 146.917 34.1669 158.685 34.1669 164.38H33.4076C33.4076 152.611 49.352 116.926 71.7502 84.6575C72.8891 82.7594 74.4076 80.8612 75.9261 79.3427C76.3057 78.5835 77.065 77.8242 77.4446 77.4446C117.306 26.5742 146.537 15.5649 164 15.5649C191.713 15.5649 220.565 32.6483 246 63.0186C268.778 90.352 282.065 124.139 283.583 157.926C283.963 162.861 283.963 168.176 283.583 174.63C281.685 212.972 268.778 244.102 246.759 261.945C232.334 273.713 214.871 279.787 195.13 279.787Z" fill="#00ffe1"/>
<path d="M199.305 273.333C193.991 273.333 188.296 272.953 182.602 271.814C152.991 266.499 126.037 253.972 107.435 236.509C86.5555 217.148 75.5462 192.472 75.5462 164.759H76.3055C76.3055 192.472 87.3147 217.148 107.815 236.129C126.417 253.592 152.991 265.74 182.981 271.055C206.518 275.231 227.398 270.675 243.343 257.768C263.842 241.064 275.611 211.074 277.13 173.111C277.13 168.935 277.509 162.861 277.13 157.166C275.611 125.277 262.704 92.6291 241.065 66.055C209.555 26.9532 181.843 18.6013 164 18.6013C135.528 18.6013 104.018 53.1476 82.3796 81.9995C81.9999 82.7587 81.2407 83.518 80.861 84.2772C79.7221 85.7958 78.2036 87.6939 77.0647 89.592C53.9073 123.759 39.1018 158.305 39.1018 164.759H38.3425C38.3425 157.166 54.6666 121.101 76.6851 89.2124C77.824 87.3143 79.3425 85.7958 80.4814 83.8976C80.861 83.1383 81.6203 82.3791 81.9999 81.6198C103.639 52.768 135.148 18.2217 164 18.2217C181.843 18.2217 209.935 26.5735 241.444 65.6754C263.083 92.6291 275.991 125.277 277.509 157.546C277.889 163.62 277.889 169.314 277.509 173.49C276.37 211.453 264.222 241.824 243.722 258.527C231.574 268.018 216.389 273.333 199.305 273.333Z" fill="#00ffe1"/>
<path d="M209.176 270.296C201.583 270.296 193.232 268.397 185.259 264.981C130.213 264.981 85.4167 220.184 85.4167 165.138H86.176C86.176 219.805 130.593 264.601 185.639 264.601C203.482 272.194 220.185 271.814 234.232 262.703C256.25 248.657 270.676 213.731 271.435 172.351C271.435 167.416 271.435 162.481 271.056 156.786C269.157 126.036 257.009 94.9067 236.509 68.3326C219.806 46.6937 193.991 21.2585 164.38 21.2585C143.88 21.2585 118.065 43.277 86.9352 86.5548C86.176 87.3141 85.7963 88.0733 85.0371 88.8326C83.8982 90.3511 82.7593 92.2493 81.6204 93.7678C58.8426 128.314 44.0371 162.101 44.0371 164.759H43.2778C43.2778 161.342 59.2223 126.036 81.2408 93.3881C82.3797 91.8696 83.5186 89.9715 84.6575 88.453C85.4167 87.6937 85.7963 86.9344 86.5556 86.1752C117.306 42.1382 143.5 20.1196 164 20.1196C180.324 20.1196 206.139 28.4715 236.509 67.5733C257.009 94.1474 269.157 125.277 271.056 156.407C271.435 161.721 271.435 167.036 271.435 171.971C270.676 214.49 256.63 248.657 233.852 263.083C226.259 267.638 217.907 270.296 209.176 270.296Z" fill="#00ffe1"/>
<path d="M211.833 264.222C204.241 264.222 195.889 261.944 187.537 257.389C136.287 257.389 94.9074 215.629 94.9074 164.379H95.6667C95.6667 215.25 137.046 256.629 187.917 256.629C203.861 264.981 218.667 265.361 231.194 257.768C251.694 245.241 264.602 211.833 264.981 169.694C264.981 164.379 264.981 159.824 264.602 154.889C261.944 117.305 245.241 87.6942 231.574 69.472C215.25 48.972 190.574 23.1572 164 23.1572C145.778 23.1572 121.861 45.1757 90.7315 90.3517C89.9722 91.1109 89.5926 92.2498 88.8334 93.0091C87.6945 94.5276 86.5556 96.0461 85.4167 97.9442C69.8519 122.62 57.3241 146.916 51.6297 158.685C48.213 165.518 48.213 165.518 47.8334 165.518H47.4537V165.139H47.8334V164.759C48.213 164.379 49.3519 161.722 51.25 158.305C57.3241 146.537 69.4722 122.241 85.0371 97.5646C86.1759 96.0461 87.3148 94.1479 88.4537 92.6294C89.213 91.8702 89.5926 90.7313 90.3519 89.972C121.481 44.4165 145.778 22.3979 164 22.3979C185.259 22.3979 208.417 38.722 231.574 69.8517C245.241 88.0739 261.944 117.685 264.602 155.648C264.981 160.583 264.981 165.139 264.981 170.454C264.981 212.592 251.694 246.379 230.815 258.907C225.12 262.324 218.667 264.222 211.833 264.222Z" fill="#00ffe1"/>
<path d="M214.111 258.528C206.519 258.528 198.167 255.87 189.815 250.555C142.741 250.555 104.019 212.213 104.019 164.759H104.778C104.778 211.833 143.12 249.796 189.815 249.796C204.241 258.907 217.148 260.046 228.537 253.972C247.519 243.342 258.907 210.694 258.528 168.935C258.528 164 258.528 159.444 258.148 154.889C255.111 119.204 239.546 90.3517 226.639 72.5091C204.241 41.3795 182.982 25.435 164 25.435C143.12 25.435 114.648 64.9165 95.2871 94.5276C94.5278 95.2869 94.1482 96.4258 93.3889 97.185C92.25 98.7036 91.1111 100.222 90.3519 101.741C80.1019 118.065 71.3704 134.389 64.9167 146.537C56.5649 161.722 54.2871 165.898 53.1482 165.898C52.7686 165.898 52.7686 165.139 52.7686 164.759H53.5278C53.5278 164.759 53.5278 164.759 53.5278 165.139C54.6667 164.379 59.2223 156.028 64.5371 146.157C70.9908 134.389 79.7223 118.065 89.9723 101.361C91.1112 99.8424 91.8704 98.3239 93.0093 96.8054C93.7686 96.0462 94.1482 94.9073 94.9074 94.148C126.037 46.6943 148.056 24.6758 164.38 24.6758C183.741 24.6758 204.62 40.6202 227.398 72.1295C240.306 89.9721 256.25 118.824 258.907 154.889C259.287 159.824 259.287 164.379 259.287 169.315C259.667 211.454 248.278 244.102 228.917 255.111C224.361 257.389 219.046 258.528 214.111 258.528Z" fill="#00ffe1"/>
<path d="M215.63 253.213C208.417 253.213 200.444 250.176 192.093 243.723C148.815 243.723 113.509 208.417 113.509 165.139H114.269C114.269 208.037 149.194 242.963 192.093 242.963C205 252.454 216.389 254.732 226.259 249.797C243.343 240.686 253.593 209.176 252.074 167.417C252.074 162.861 251.694 158.306 251.315 153.75C248.278 119.963 233.472 91.8708 221.324 74.4078C200.065 43.6578 181.083 27.7134 164 27.7134C146.537 27.7134 121.481 63.3985 99.463 98.7041C98.7037 99.843 98.3241 100.602 97.5648 101.362C96.4259 102.88 95.6667 104.399 94.5278 105.917C87.6945 117.686 81.2408 129.074 75.5463 139.324C64.9167 159.065 59.9815 167.417 57.7037 167.037C56.9445 167.037 56.9445 165.899 56.9445 164.76H57.7037C57.7037 165.899 58.0833 166.278 58.0833 166.278C59.9815 166.278 67.1945 152.991 74.7871 138.945C80.4815 128.695 86.5556 117.306 93.7685 105.537C94.5278 104.019 95.6667 102.5 96.8056 100.982C97.5648 100.223 97.9445 99.0837 98.7037 98.3245C120.722 63.0189 146.157 26.9541 164 26.9541C181.083 26.9541 200.444 42.8985 222.083 74.0282C234.231 91.4911 249.037 119.584 252.074 153.371C252.454 157.926 252.833 162.482 252.833 167.037C253.972 209.176 244.102 240.686 226.639 249.797C223.222 252.074 219.426 253.213 215.63 253.213Z" fill="#00ffe1"/>
<path d="M217.148 247.518C210.315 247.518 202.722 243.721 194.37 236.508C154.889 236.508 123 204.24 123 165.138H123.759C123.759 204.24 155.648 236.129 194.75 236.129C206.139 246.379 216.389 249.416 224.741 245.24C239.926 238.027 248.278 206.897 246.38 166.277V165.518C246 161.721 246 157.546 245.62 153.37C242.204 121.481 228.157 94.1474 217.148 77.064C196.648 45.5548 179.185 30.3696 164.38 30.3696C149.194 30.3696 125.278 67.9529 104.019 103.258C103.259 104.397 102.88 105.157 102.12 106.296C101.361 107.814 100.222 109.333 99.463 110.851C94.9074 119.203 90.3519 127.555 86.176 134.768C73.6482 157.166 67.1945 169.314 64.1574 169.314C64.1574 169.314 64.1574 169.314 63.7778 169.314C63.0185 168.934 62.6389 167.796 62.6389 165.518H63.3982C63.3982 168.175 63.7778 168.555 64.1574 168.555C66.8148 169.314 75.5463 152.99 85.7963 134.388C89.9723 127.175 94.5278 118.823 99.0834 110.471C99.8426 108.953 100.982 107.434 101.741 105.916C102.5 104.777 102.88 104.018 103.639 102.879C124.898 67.5733 148.815 29.6104 164.759 29.6104C179.944 29.6104 197.028 45.1752 217.907 76.6844C229.296 93.7678 243.343 121.101 246.38 152.99C246.759 157.166 247.139 161.342 247.139 165.138V165.897C249.037 207.657 240.685 238.027 225.12 245.62C222.463 246.758 219.806 247.518 217.148 247.518Z" fill="#00ffe1"/>
<path d="M217.907 242.203C211.454 242.203 204.241 238.027 196.268 229.675C160.963 229.675 132.111 200.824 132.111 165.138H132.87C132.87 200.444 161.342 228.916 196.648 228.916C206.898 239.546 215.63 243.722 222.842 240.305C235.75 234.611 242.583 205 239.546 164.379V162.861C239.167 159.064 239.167 155.648 238.407 151.851C234.611 121.481 221.704 95.2866 211.454 78.5829C192.092 47.0736 176.148 31.8884 163.62 31.8884C150.333 31.8884 126.796 73.268 107.435 106.675C106.676 107.814 106.296 108.574 105.537 109.712C104.778 111.231 103.639 112.75 102.88 113.888C99.8425 119.203 97.1851 124.518 94.5277 129.453C81.2406 155.648 72.8888 170.833 69.0925 170.833H68.7128C67.574 170.453 66.8147 168.555 66.8147 165.138H67.574C67.574 168.935 68.3332 170.074 68.7128 170.074C68.7128 170.074 68.7128 170.074 69.0925 170.074C72.8888 170.074 83.5184 150.333 94.5277 129.453C97.1851 124.518 99.8425 119.203 102.88 113.888C103.639 112.37 104.398 110.851 105.537 109.712C106.296 108.574 106.676 107.814 107.435 106.675C127.555 71.3699 150.713 31.5088 164 31.5088C176.907 31.5088 192.472 46.3143 212.213 78.5829C222.463 95.2866 235.75 121.481 239.167 151.851C239.546 155.648 239.926 159.444 240.305 162.861V164.379C243.342 205 236.509 234.99 223.222 240.685C221.704 241.824 219.805 242.203 217.907 242.203Z" fill="#00ffe1"/>
<path d="M218.667 236.888C212.972 236.888 206.519 231.953 198.926 222.463C167.417 222.463 141.982 196.648 141.982 165.138H142.741C142.741 196.268 168.176 221.703 199.306 221.703C208.417 233.092 215.63 237.648 221.704 235.37C232.713 231.194 237.269 202.722 233.852 162.861L233.472 160.963C233.093 157.926 232.713 154.509 232.333 151.092C229.296 128.694 220.565 104.398 206.898 80.8607C182.602 39.1014 170.833 34.5459 164 34.5459C154.13 34.5459 134.389 70.2311 115.408 104.777L111.991 111.231C111.232 112.37 110.852 113.509 110.093 114.268C109.333 115.787 108.574 116.926 107.815 118.444C106.676 121.101 105.158 123.379 104.019 125.657C88.8335 154.888 78.9631 172.731 74.4075 172.731H74.0279C72.5094 172.351 71.7501 169.694 71.7501 164.759H72.5094C72.5094 170.453 73.6483 171.972 74.4075 171.972C74.4075 171.972 74.4075 171.972 74.7872 171.972C79.3427 171.972 91.1112 149.194 104.019 125.277C105.158 123 106.676 120.342 107.815 118.064C108.574 116.546 109.333 115.027 110.093 113.888C110.852 112.75 111.232 111.99 111.991 110.851L115.408 104.398C135.148 67.9533 154.13 33.7866 164.38 33.7866C178.426 33.7866 195.13 58.8422 208.037 80.8607C221.704 104.398 230.435 128.694 233.852 151.092C234.232 154.509 234.611 157.926 234.991 160.963L235.37 162.861C239.167 202.722 234.232 231.574 222.843 235.75C220.945 236.509 219.806 236.888 218.667 236.888Z" fill="#00ffe1"/>
<path d="M219.046 231.574C214.111 231.574 208.417 226.26 201.204 215.25C173.491 215.25 151.093 192.852 151.093 165.139H151.852C151.852 192.473 173.87 214.491 201.204 214.491C208.796 226.639 215.63 231.954 220.185 230.436C228.917 227.399 231.574 200.445 227.018 161.723C227.018 160.963 226.639 159.824 226.639 159.065C226.259 156.408 225.88 153.371 225.5 150.334C222.083 129.074 214.111 106.297 201.583 83.1393C189.056 59.9819 174.25 36.4448 163.62 36.4448C156.407 36.4448 140.843 67.1948 124.139 99.4633C121.481 104.778 118.824 110.093 116.167 115.028C115.787 116.167 115.028 117.306 114.268 118.445C113.509 119.963 112.75 121.102 111.991 122.621C94.9074 156.408 84.2778 176.908 78.9629 175.389C77.0648 175.01 75.9259 171.593 75.9259 165.139H76.6852C76.6852 172.732 77.824 174.63 78.9629 175.01C84.2778 176.149 97.9444 148.815 111.231 122.621C111.991 121.102 112.75 119.963 113.509 118.445C114.268 117.306 114.648 116.167 115.407 115.408C118.065 110.093 120.722 105.158 123.38 99.843C140.843 65.6763 156.028 36.4448 163.62 36.4448C172.731 36.4448 184.12 50.4911 202.343 83.5189C215.25 106.676 223.222 129.454 226.639 150.713C227.018 153.75 227.398 156.787 227.778 159.445C227.778 160.204 228.157 161.343 228.157 162.102C232.713 201.204 229.676 228.537 220.565 231.574C220.185 231.574 219.806 231.574 219.046 231.574Z" fill="#00ffe1"/>
<path d="M218.667 226.639C214.87 226.639 209.556 220.565 203.481 208.417C179.944 208.417 160.583 189.056 160.583 165.519H161.343C161.343 189.056 180.324 208.037 203.861 208.037H204.241C212.593 224.361 217.528 226.639 219.806 225.88C226.259 223.982 227.019 197.408 221.704 160.583C221.704 159.445 221.324 158.685 221.324 157.546C220.944 154.889 220.565 152.611 220.185 149.954C216.769 129.834 209.176 108.574 197.787 85.7965C186.019 63.3983 173.111 39.102 164.38 39.102C159.824 39.102 147.296 65.2965 133.63 93.3891C129.454 102.121 125.278 110.852 120.722 119.584C120.343 120.722 119.583 121.861 118.824 123C118.065 124.139 117.306 125.658 116.926 126.796C103.259 154.889 91.4907 178.426 85.4167 178.426H85.037C82.7592 178.046 81.6204 173.491 81.6204 165.139H82.3796C82.3796 175.009 83.8981 177.287 85.4167 177.667H85.7963C91.4907 177.667 104.019 152.232 116.926 126.417C117.685 124.898 118.444 123.759 118.824 122.621C119.583 121.482 119.963 120.343 120.722 119.204C124.898 110.472 129.454 101.741 133.63 93.0094C149.954 59.2224 160.204 38.3428 164.759 38.3428C172.731 38.3428 184.12 56.9446 198.546 85.4168C210.315 108.195 217.907 129.834 221.324 149.574C221.704 152.232 222.083 154.889 222.463 157.167C222.463 158.306 222.843 159.065 222.843 160.204C225.5 178.046 226.639 193.991 226.259 205.38C225.88 217.908 223.981 225.121 220.565 226.259C219.426 226.639 219.046 226.639 218.667 226.639Z" fill="#00ffe1"/>
<path d="M218.287 221.704C215.63 221.704 211.454 214.871 205.759 201.204C186.019 201.204 170.074 184.88 170.074 165.14H170.833C170.833 184.501 186.778 200.445 206.139 200.445H206.519V200.825C214.111 219.047 217.528 221.325 218.667 220.945C222.843 219.806 221.324 194.371 215.63 159.066C215.63 157.927 215.25 156.788 215.25 155.649C214.87 153.371 214.491 151.093 214.111 148.816C210.695 130.214 203.482 109.714 192.852 87.6952C180.704 62.26 170.454 41.3804 164.38 41.3804C162.102 41.3804 152.991 62.26 143.12 84.2785C137.806 96.4266 131.352 110.473 125.278 123.76C124.898 124.899 124.139 126.038 123.759 127.177C123 128.316 122.62 129.834 121.861 130.973C105.537 166.658 96.426 181.464 91.1112 181.464C90.7316 181.464 90.7316 181.464 90.7316 181.464C88.0742 180.704 86.5557 175.769 86.5557 165.519H87.3149C87.3149 175.01 88.4538 180.325 90.7316 180.704C96.426 181.843 109.333 156.028 121.102 130.593C121.861 129.454 122.241 127.936 123 126.797C123.38 125.658 124.139 124.519 124.519 123.38C130.593 110.093 137.046 96.4266 142.361 83.8989C154.889 55.4267 161.722 40.6211 164.38 40.6211C170.454 40.6211 180.704 60.7415 193.232 87.3155C203.861 109.334 210.695 129.834 214.491 148.436C214.87 150.714 215.25 152.991 215.63 155.269C215.63 156.408 216.009 157.547 216.009 158.686C220.945 187.917 224.361 219.806 218.667 221.325C218.667 221.704 218.287 221.704 218.287 221.704Z" fill="#00ffe1"/>
<path d="M217.528 216.768C216.768 216.768 214.87 215.249 208.417 194.37C192.472 194.37 179.944 181.462 179.944 165.518H180.704C180.704 181.083 193.231 193.61 208.796 193.61V193.99C215.25 214.49 217.148 216.388 217.528 216.388C219.046 215.629 216.768 195.129 209.176 157.925C208.796 156.786 208.796 155.647 208.417 154.129C208.037 152.231 207.657 150.333 207.278 148.055C203.481 130.972 197.028 111.99 187.537 89.9715L185.259 85.0363C175.768 63.0178 167.417 43.6567 164 43.6567C162.861 44.416 158.685 55.8049 153.37 69.0919C146.917 85.416 138.185 107.434 129.074 127.934C128.694 129.073 127.935 130.212 127.556 131.731C126.796 132.87 126.417 134.009 126.037 135.527C110.472 170.833 100.981 186.018 95.6666 184.879C92.6296 184.12 91.1111 178.046 91.1111 165.897H91.8703C91.8703 177.666 93.3889 183.74 96.0463 184.12H96.4259C102.88 184.12 116.167 156.407 125.657 135.147C126.037 134.009 126.796 132.87 127.176 131.351C127.556 130.212 128.315 129.073 128.694 127.555C137.806 107.055 146.537 85.0363 152.991 68.7123C161.343 47.8326 163.241 42.8975 164.38 42.8975C168.176 42.8975 174.63 58.0826 186.398 84.6567L188.676 89.5919C198.167 111.61 204.62 130.592 208.417 147.675C208.796 149.573 209.176 151.472 209.556 153.749C209.935 154.888 209.935 156.407 210.315 157.546C211.833 167.036 221.324 215.629 217.528 216.768Z" fill="#00ffe1"/>
<path d="M216.009 211.833C215.63 211.454 215.63 211.454 215.63 210.694C215.63 210.315 215.25 209.555 215.25 208.417C214.491 204.241 212.593 196.648 210.315 186.778C198.546 186.398 189.056 176.907 189.056 165.139H189.815C189.815 176.528 198.926 185.639 210.315 186.018C208.417 177.287 205.759 167.037 203.102 155.648C202.722 154.509 202.343 152.991 202.343 151.852C201.963 150.333 201.583 148.435 201.204 146.537C196.648 126.417 189.056 106.676 182.982 91.4906C179.945 83.898 177.287 76.685 175.009 70.611C170.074 58.0832 166.278 47.0739 164.759 45.5554C163.62 52.0091 148.815 96.0462 134.009 131.731C133.63 132.87 132.87 134.389 132.491 135.528C132.111 136.667 131.352 137.805 130.972 138.944C124.519 154.129 119.204 165.518 114.648 173.87C108.954 183.741 104.778 188.296 101.741 187.537C98.3242 186.778 96.426 179.565 96.426 165.139H97.1853C97.1853 182.222 99.8427 186.398 101.741 186.778C106.676 187.917 116.546 171.592 130.213 138.944C130.593 137.805 131.352 136.667 131.732 135.528C132.111 134.389 132.87 132.87 133.25 131.731C149.954 91.8702 164.38 47.0739 164.38 45.5554H164.759V45.1758C166.278 45.935 168.935 52.3887 175.769 70.9906C178.046 77.4443 181.083 84.2776 183.741 91.8702C189.815 107.055 197.028 127.176 201.963 146.917C202.343 148.815 202.722 150.333 203.102 152.231C203.482 153.37 203.861 154.889 203.861 156.028C206.519 167.417 208.796 178.046 211.074 186.398H211.454V186.778C213.732 196.648 214.87 203.102 216.009 206.898C216.389 208.417 216.769 209.555 216.769 210.315C216.769 211.074 217.148 211.454 217.148 211.454C216.389 211.833 216.389 211.833 216.009 211.833C216.389 211.833 216.389 211.833 216.009 211.833Z" fill="#00ffe1"/>
<path d="M214.491 207.278C213.731 207.278 211.454 205.38 202.722 176.148C200.065 173.491 198.167 169.695 198.167 165.898H198.926C198.926 169.315 200.065 172.352 202.343 175.009C200.824 169.315 198.926 162.861 196.648 155.269C196.268 153.75 195.889 152.232 195.509 150.713C195.13 149.195 194.75 148.056 194.37 146.537C189.435 128.315 182.602 108.574 177.667 94.5279C171.593 77.4446 166.278 59.602 164.38 52.0094C162.481 64.5372 150.713 103.259 137.426 136.667C136.667 138.185 136.287 139.704 135.528 141.222C135.148 142.361 134.768 143.121 134.389 144.259C121.861 175.769 112.37 191.713 106.676 191.713C106.296 191.713 106.296 191.713 106.296 191.713C102.5 190.954 100.602 182.602 100.602 166.278H101.361C101.361 186.019 104.398 190.574 106.676 190.954H107.056C110.852 190.954 118.824 182.222 134.389 143.88C134.768 142.741 135.148 141.982 135.528 140.843C136.287 139.324 136.667 137.806 137.426 136.287C151.472 100.222 163.62 59.602 164.759 50.1113C164.38 48.5928 164.38 47.8335 164.38 47.8335H164.759C165.139 47.8335 165.139 47.8335 165.139 48.2131C165.518 48.5928 165.518 49.352 165.139 50.1113C166.657 55.8057 171.593 73.2687 178.806 94.5279C183.741 108.954 190.574 128.315 195.509 146.537C195.889 148.056 196.268 149.195 196.648 150.713C197.028 152.232 197.407 153.75 197.787 155.269C200.065 163.621 201.963 170.454 203.861 176.528C206.518 178.806 209.556 180.324 213.352 180.324H213.731V180.704C217.148 206.519 215.63 206.898 214.491 207.278C214.87 207.278 214.87 207.278 214.491 207.278ZM203.861 176.908C211.833 203.861 214.111 206.519 214.491 206.519C214.87 206.519 216.009 203.861 212.593 179.945C209.556 179.945 206.518 178.806 203.861 176.908Z" fill="#00ffe1"/>
<path d="M212.972 202.722C207.657 202.722 198.166 176.148 190.954 153.371C190.574 151.472 189.815 149.954 189.435 148.056L188.676 145.398C186.398 137.426 183.741 128.695 181.083 120.722C178.426 112.371 175.768 104.019 173.491 96.4261C170.074 85.0372 166.657 72.5095 164.759 63.3984C161.342 81.2409 151.852 113.889 141.981 140.463C141.222 142.361 140.463 144.259 139.704 146.537L139.324 148.056C130.972 169.695 119.963 194.75 112.37 194.75C111.991 194.75 111.991 194.75 111.611 194.75C107.435 193.991 105.157 184.5 105.157 165.898H105.916C105.916 188.297 108.954 193.611 111.611 193.991H111.991C117.305 193.991 127.176 177.287 138.185 147.676L138.565 146.158C139.324 144.259 140.083 142.361 140.842 140.084C151.472 110.852 160.963 78.2039 163.62 61.1206C162.481 55.0465 162.102 50.8706 162.861 49.7317C163.241 49.3521 163.241 49.3521 163.62 49.3521C164 49.3521 164.379 49.3521 164.759 49.7317C165.518 50.8706 165.518 55.0465 164.379 61.1206C165.898 69.0928 168.935 80.8613 173.491 96.0465C175.768 103.639 178.426 111.991 181.083 120.343C183.741 128.315 186.398 137.047 188.676 145.019L189.435 147.676C189.815 149.574 190.574 151.093 190.954 152.991C200.444 183.741 208.416 201.963 212.213 201.963C212.213 201.963 212.213 201.963 212.592 201.963C214.111 201.584 216.389 197.408 214.87 173.111C211.074 173.111 207.657 169.695 207.657 165.519H208.796C208.796 169.315 211.833 172.352 215.629 172.352H216.009V172.732C217.148 192.093 216.389 201.963 212.972 202.722ZM164.379 50.1113C164.379 50.1113 164 50.1113 164.379 50.1113C163.62 50.8706 164 53.9076 164.759 59.2224C165.518 54.6669 165.518 51.2502 164.759 50.4909C164.379 50.1113 164.379 50.1113 164.379 50.1113Z" fill="#00ffe1"/>
<path d="M210.694 198.167C202.722 198.167 190.954 169.315 184.88 151.852C176.528 128.695 168.556 100.223 164.38 79.7227C160.204 100.223 152.231 128.315 143.88 151.852C137.426 169.315 126.037 198.167 117.685 198.167H117.306C112.75 197.408 110.472 186.778 110.472 165.899H111.231C111.231 190.954 114.648 197.028 117.685 197.408H118.065C123.759 197.408 132.87 180.704 143.5 151.473C150.333 132.112 157.546 108.954 161.722 89.9727C162.861 85.7968 163.62 81.6209 164.38 78.2042C161.722 65.2968 161.343 55.4264 163.241 52.769C163.62 52.0098 164.38 52.0098 164.759 52.0098C165.518 52.0098 165.898 52.3894 166.278 52.769C168.176 55.4264 167.417 65.2968 165.139 78.2042C165.898 82.0005 166.657 85.7968 167.796 89.9727C172.352 109.334 179.185 132.112 186.018 151.473C195.889 180.704 205 197.408 210.694 197.408H211.074C214.111 197.028 217.528 190.954 217.528 165.899H218.287C218.287 186.778 216.009 197.408 211.454 198.167C211.074 198.167 210.694 198.167 210.694 198.167ZM164.38 52.3894C164 52.3894 163.62 52.769 163.241 53.1487C161.722 55.4264 162.102 63.7783 164.38 76.3061C166.657 63.7783 167.037 55.4264 165.518 53.1487C165.139 52.769 164.759 52.3894 164.38 52.3894Z" fill="#00ffe1"/>
</g>
<defs>
<clipPath id="clip0">
<rect width="328" height="328" fill="white"/>
</clipPath>
</defs>
</svg>
