<svg width="100" height="100" viewBox="0 0 100 100" fill="none" xmlns="http://www.w3.org/2000/svg">
<path d="M76.9676 32.2621H62.876V39.2998H76.9676V32.2621Z" fill="white"/>
<path d="M66.293 67.738H73.4099L69.8514 62.9983L66.293 67.738Z" fill="white"/>
<path d="M4.375 23.07V76.93C4.375 84.1113 10.2109 90 17.3279 90H83.0888C90.2058 90 96.0417 84.1113 96.0417 76.93V23.07C96.0417 15.8887 90.2058 10 83.0888 10H17.3279C10.2109 10 4.375 15.8887 4.375 23.07ZM51.3471 38.4381L44.2301 45.4758C42.8067 46.912 40.6716 46.912 39.2482 45.4758C37.8248 44.0395 37.8248 41.8851 39.2482 40.4488L40.2446 39.4434H27.5763V54.237C31.8465 55.6732 34.551 59.6948 34.551 64.2908C34.551 70.1795 29.8538 74.9192 24.0179 74.9192C19.6053 74.9192 15.6198 72.0467 14.0541 67.8815C12.0613 62.2801 15.0505 56.2477 20.4594 54.3806V35.8528C20.4594 33.842 22.0251 32.2621 24.0179 32.2621H40.1022L39.1059 31.2567C37.6825 29.8205 37.6825 27.6661 39.1059 26.2298C40.5293 24.7935 42.6643 24.7935 44.0877 26.2298L51.0624 33.2675C52.6281 34.7038 52.6281 37.0018 51.3471 38.4381ZM80.3843 74.7756H59.3181C58.6064 74.7756 57.7523 74.4883 57.183 74.0574C55.6172 72.9084 55.3326 70.6104 56.4713 69.0305L67.0044 54.8115C67.1468 54.5242 67.4314 54.237 67.7161 54.0933C69.2818 52.9443 71.4169 53.2316 72.698 54.8115L83.2311 69.0305C83.6581 69.605 83.9428 70.3231 83.9428 71.1849C83.9428 73.1957 82.3771 74.7756 80.3843 74.7756ZM83.9428 42.8905C83.9428 44.9012 82.3771 46.4811 80.3843 46.4811H59.3181C57.3253 46.4811 55.7596 44.9012 55.7596 42.8905V28.6714C55.7596 26.6607 57.3253 25.0808 59.3181 25.0808H80.3843C82.3771 25.0808 83.9428 26.6607 83.9428 28.6714V42.8905V42.8905Z" fill="white"/>
<path d="M24.16 60.7002C22.1673 60.7002 20.6016 62.2801 20.6016 64.2909C20.6016 66.3016 22.1673 67.8815 24.16 67.8815C26.1528 67.8815 27.7185 66.3016 27.7185 64.2909C27.7185 62.2801 26.1528 60.7002 24.16 60.7002Z" fill="white"/>
</svg>
