<svg width="100" height="100" viewBox="0 0 100 100" fill="none" xmlns="http://www.w3.org/2000/svg">
<path d="M89.4314 30.7574C87.0416 29.2673 84.0544 29.8633 82.4114 31.9494L73.4496 43.2741L80.0216 21.9658C80.7684 19.4327 79.2747 16.7505 76.7356 15.8565C74.047 14.9624 70.9104 16.1545 69.8649 18.6876L63.2929 33.2905L65.9814 13.9194C66.4295 11.2372 64.3384 8.55504 61.5005 8.10802C58.3639 7.51198 55.2273 9.4491 54.6299 12.2803L49.2528 39.6979L42.6808 13.3233C41.934 10.4922 38.9467 8.70405 35.8101 9.30009C32.8229 9.89612 30.8811 12.5783 31.3292 15.2604L35.8101 42.5291L35.9595 48.9364C35.0633 54.0027 32.9722 56.3869 32.076 57.1319C30.8811 56.6849 27.8939 53.4067 25.9522 50.4265C24.1598 46.8503 20.127 44.3172 19.2308 43.8701C14.75 40.741 11.6133 41.188 9.82097 42.231C8.77543 42.8271 8.17798 43.7211 8.02862 44.9132C7.87926 46.1053 8.32734 47.1483 9.07416 48.0424C12.0614 51.0226 13.8538 54.5988 14.6006 56.3869C14.8993 56.9829 15.3474 57.877 15.9449 58.622C17.2891 60.4101 18.9321 63.6883 20.5751 67.8606C21.3219 69.6487 22.5168 71.4368 24.0105 72.9269L35.9595 84.6986C36.5569 85.2946 37.005 86.0396 37.1544 86.7847L37.9012 89.7649C38.1999 90.8079 39.0961 91.553 40.1416 91.553L66.7283 92C67.3257 92 67.9232 91.702 68.3712 91.255C68.8193 90.8079 69.1181 90.2119 69.1181 89.6159C69.1181 88.5728 69.2674 86.9337 69.7155 84.9966C70.0142 83.6555 70.4623 82.4634 71.0598 81.4204C74.3458 75.609 74.9432 69.2016 74.9432 68.9036C75.5407 61.3042 79.4241 55.4928 79.4241 55.3438L91.0744 38.3568C91.8212 37.1647 92.2693 35.6747 91.8212 34.1846C91.6719 32.8435 90.7757 31.5024 89.4314 30.7574Z" fill="white"/>
</svg>
