<svg width="100" height="100" viewBox="0 0 100 100" fill="none" xmlns="http://www.w3.org/2000/svg">
<path d="M62.0852 12.0111H55.1953L54.6329 9.19337C54.2111 7.22097 52.6643 5.53033 50.5552 5.10767C47.743 4.54413 44.7902 6.23476 44.2277 9.19337L43.6653 12.0111H36.7754V18.4919H62.0852V12.0111V12.0111Z" fill="white"/>
<path d="M69.1153 12.0111V25.6771H29.7444V12.0111H13.5742V95.9792H85.4261V12.0111H69.1153ZM42.9618 80.4817L38.0404 85.4127L31.9942 79.6364L26.0885 85.5536L21.1672 80.6226L27.0728 74.7054L21.1672 68.7882L26.0885 63.8572L31.9942 69.7744L37.8998 63.8572L42.8212 68.7882L36.9155 74.7054L42.9618 80.4817ZM31.713 56.2493L21.589 48.0779L26.0885 42.5834L30.8693 46.5282L40.4308 35.3982L45.774 40.0474L31.713 56.2493ZM77.8331 78.0867H49.9923V71.0424H77.8331V78.0867ZM78.3956 50.3321H50.5547V43.2878H78.3956V50.3321Z" fill="white"/>
</svg>
