<svg width="100" height="100" viewBox="0 0 100 100" fill="none" xmlns="http://www.w3.org/2000/svg">
<path d="M27.0423 49.3317H10V66.8397H27.0423V49.3317Z" fill="white"/>
<path d="M47.888 56.4216H30.8457V73.9296H47.888V56.4216Z" fill="white"/>
<path d="M68.8734 49.3317H51.8311V66.8397H68.8734V49.3317Z" fill="white"/>
<path d="M27.0423 77.6918H10V95.1998H27.0423V77.6918Z" fill="white"/>
<path d="M47.888 77.6918H30.8457V95.1998H47.888V77.6918Z" fill="white"/>
<path d="M68.8734 70.0228H51.8311V87.5308H68.8734V70.0228Z" fill="white"/>
<path d="M68.8734 21.1163H51.8311V38.6243H68.8734V21.1163Z" fill="white"/>
<path d="M48.3099 35.441H31.2676V52.949H48.3099V35.441Z" fill="white"/>
<path d="M89.5785 56.4216H72.5361V73.9296H89.5785V56.4216Z" fill="white"/>
<path d="M89.5785 77.6918H72.5361V95.1998H89.5785V77.6918Z" fill="white"/>
<path d="M90.0003 35.441H72.958V52.949H90.0003V35.441Z" fill="white"/>
<path d="M27.0423 5.19983H10V22.7078H27.0423V5.19983Z" fill="white"/>
</svg>
