<svg width="100" height="100" viewBox="0 0 100 100" fill="none" xmlns="http://www.w3.org/2000/svg">
<path d="M79.7794 34.9558L73.8235 40.7879L78.8529 45.8247H65.2206V34.6907H54.1029V21.0383L59.1324 26.0751L65.0882 20.1105L49.8677 5L34.9118 20.1105L40.8676 26.0751L45.8971 21.0383V34.5582H34.7794V45.6922H21.0147L26.0441 40.6554L20.0882 34.6907L5 49.9337L20.0882 65.0442L26.0441 59.0795L21.0147 54.0427H34.5147V65.1767H45.6324V78.6966L40.6029 73.9249L34.6471 79.8895L49.7353 95L64.8235 79.8895L59.1324 73.9249L54.1029 78.9617V65.3093H65.2206V54.1753H78.7206L73.8235 59.2121L79.7794 65.1767L95 50.0663L79.7794 34.9558ZM56.75 43.0412V57.0913H42.9853V43.0412H56.75Z" fill="white"/>
</svg>
