<svg width="100" height="100" viewBox="0 0 100 100" fill="none" xmlns="http://www.w3.org/2000/svg">
<path d="M94 50.1761C94 51.0367 93.6302 51.8972 93.014 52.5119L80.0728 65.1743C79.4566 65.789 78.5938 66.1578 77.7311 66.1578C76.8683 66.1578 76.0056 65.789 75.3894 65.1743L62.6947 52.389C61.4622 51.1596 61.4622 49.0697 62.6947 47.7174H72.8011C71.9384 35.6697 62.0784 26.2037 50.1232 26.2037C43.2213 26.2037 37.1821 29.2771 32.9916 34.0716L24.7339 27.9248C30.6499 20.6716 39.7703 16 50 16C67.6246 16 82.0448 30.1376 82.9076 47.8404H93.014C93.7535 48.455 94 49.1927 94 50.1761ZM6.98599 51.1596H17.0924C17.9552 68.8624 32.3753 83 50 83C60.2297 83 69.3501 78.3284 75.3894 70.8294L67.1316 64.6826C62.9412 69.4771 56.7787 72.5505 50 72.5505C37.9216 72.5505 28.0616 63.0844 27.3221 51.0367H37.4286C38.6611 49.8073 38.6611 47.7174 37.4286 46.3651L24.4874 33.7028C23.8711 33.0881 23.0084 32.7193 22.1457 32.7193C21.2829 32.7193 20.4202 33.0881 19.8039 33.7028L6.98599 46.4881C6.36975 47.1028 6 47.9633 6 48.8239C6 49.6844 6.36975 50.545 6.98599 51.1596Z" fill="white"/>
</svg>
