<svg width="599" height="213" viewBox="0 0 599 213" fill="none" xmlns="http://www.w3.org/2000/svg">
<path d="M2 96H18V112H2V96Z" fill="#870048"/>
<path d="M162 96H178V112H162V96Z" fill="#870048"/>
<path d="M322 96H338V112H322V96Z" fill="#00ffe1"/>
<path d="M82 96H98V112H82V96Z" fill="#870048"/>
<path d="M242 96H258V112H242V96Z" fill="#00ffe1"/>
<path d="M402 96H418V112H402V96Z" fill="#00ffe1"/>
<path d="M42 96H58V112H42V96Z" fill="#870048"/>
<path d="M202 96H218V112H202V96Z" fill="#870048"/>
<path d="M362 96H378V112H362V96Z" fill="#00ffe1"/>
<path d="M122 96H138V112H122V96Z" fill="#870048"/>
<path d="M282 96H298V112H282V96Z" fill="#00ffe1"/>
<path d="M442 96H458V112H442V96Z" fill="#00ffe1"/>
<path d="M522 96H538V112H522V96Z" fill="#00ffe1"/>
<path d="M482 96H498V112H482V96Z" fill="white"/>
<path d="M562 96H578V112H562V96Z" fill="#00ffe1"/>
<path d="M22 96H38V112H22V96Z" fill="#870048"/>
<path d="M182 96H198V112H182V96Z" fill="#870048"/>
<path d="M342 96H358V112H342V96Z" fill="#00ffe1"/>
<path d="M102 96H118V112H102V96Z" fill="#870048"/>
<path d="M262 96H278V112H262V96Z" fill="#00ffe1"/>
<path d="M422 96H438V112H422V96Z" fill="#00ffe1"/>
<path d="M62 96H78V112H62V96Z" fill="#870048"/>
<path d="M222 96H238V112H222V96Z" fill="#00ffe1"/>
<path d="M382 96H398V112H382V96Z" fill="#00ffe1"/>
<path d="M142 96H158V112H142V96Z" fill="#870048"/>
<path d="M302 96H318V112H302V96Z" fill="#00ffe1"/>
<path d="M462 96H478V112H462V96Z" fill="#00ffe1"/>
<path d="M542 96H558V112H542V96Z" fill="#00ffe1"/>
<path d="M502 96H518V112H502V96Z" fill="#00ffe1"/>
<path d="M582 96H598V112H582V96Z" fill="#7A7A7A"/>
<path d="M5.11201 26.168C5.11201 25.832 4.98001 25.54 4.71601 25.292C4.46001 25.044 4.09601 24.92 3.62401 24.92C3.22401 24.92 2.90801 25.004 2.67601 25.172C2.44401 25.332 2.32801 25.552 2.32801 25.832C2.32801 25.976 2.35601 26.108 2.41201 26.228C2.46801 26.34 2.56401 26.444 2.70001 26.54C2.84401 26.628 3.02801 26.708 3.25201 26.78C3.48401 26.852 3.77601 26.92 4.12801 26.984C5.00801 27.144 5.68001 27.412 6.14401 27.788C6.60801 28.164 6.84001 28.72 6.84001 29.456V29.6C6.84001 29.992 6.76801 30.348 6.62401 30.668C6.48801 30.98 6.28801 31.248 6.02401 31.472C5.76001 31.696 5.44001 31.868 5.06401 31.988C4.68801 32.108 4.26401 32.168 3.79201 32.168C3.24001 32.168 2.75201 32.092 2.32801 31.94C1.91201 31.78 1.56401 31.564 1.28401 31.292C1.00401 31.012 0.792007 30.688 0.648007 30.32C0.504007 29.944 0.432007 29.536 0.432007 29.096V28.736H2.01601V29.024C2.01601 29.528 2.16001 29.932 2.44801 30.236C2.74401 30.532 3.20001 30.68 3.81601 30.68C4.29601 30.68 4.65201 30.576 4.88401 30.368C5.11601 30.16 5.23201 29.912 5.23201 29.624C5.23201 29.488 5.20801 29.36 5.16001 29.24C5.11201 29.112 5.02801 29 4.90801 28.904C4.78801 28.8 4.62401 28.708 4.41601 28.628C4.20801 28.548 3.94401 28.48 3.62401 28.424C3.20001 28.352 2.81201 28.26 2.46001 28.148C2.10801 28.028 1.80001 27.872 1.53601 27.68C1.28001 27.488 1.08001 27.248 0.936007 26.96C0.792007 26.672 0.720007 26.32 0.720007 25.904V25.832C0.720007 25.488 0.788007 25.172 0.924007 24.884C1.06801 24.588 1.26401 24.332 1.51201 24.116C1.76801 23.9 2.07201 23.732 2.42401 23.612C2.78401 23.492 3.18401 23.432 3.62401 23.432C4.12001 23.432 4.56001 23.504 4.94401 23.648C5.32801 23.784 5.64801 23.972 5.90401 24.212C6.16801 24.452 6.36401 24.728 6.49201 25.04C6.62801 25.352 6.69601 25.68 6.69601 26.024V26.456H5.11201V26.168Z" fill="white"/>
<path d="M8.11566 26.048H9.87966V23.6H11.3917V26.048H13.5397V27.488H11.3917V30.2C11.3917 30.44 11.4997 30.56 11.7157 30.56H13.3237V32H10.8037C10.5317 32 10.3077 31.912 10.1317 31.736C9.96366 31.56 9.87966 31.336 9.87966 31.064V27.488H8.11566V26.048Z" fill="white"/>
<path d="M19.4833 31.136C19.3233 31.512 19.0993 31.78 18.8113 31.94C18.5233 32.092 18.1873 32.168 17.8033 32.168C17.4433 32.168 17.1033 32.1 16.7833 31.964C16.4713 31.828 16.1953 31.628 15.9553 31.364C15.7153 31.1 15.5233 30.78 15.3793 30.404C15.2433 30.028 15.1753 29.6 15.1753 29.12V28.928C15.1753 28.456 15.2433 28.032 15.3793 27.656C15.5153 27.28 15.6993 26.96 15.9313 26.696C16.1633 26.432 16.4313 26.232 16.7353 26.096C17.0473 25.952 17.3793 25.88 17.7313 25.88C18.1553 25.88 18.4953 25.952 18.7513 26.096C19.0153 26.24 19.2233 26.464 19.3753 26.768H19.5913V26.048H21.1033V30.2C21.1033 30.44 21.2113 30.56 21.4273 30.56H21.6553V32H20.6233C20.3513 32 20.1273 31.92 19.9513 31.76C19.7833 31.6 19.6993 31.392 19.6993 31.136H19.4833ZM18.1393 30.728C18.5793 30.728 18.9313 30.584 19.1953 30.296C19.4593 30 19.5913 29.6 19.5913 29.096V28.952C19.5913 28.448 19.4593 28.052 19.1953 27.764C18.9313 27.468 18.5793 27.32 18.1393 27.32C17.6993 27.32 17.3473 27.468 17.0833 27.764C16.8193 28.052 16.6873 28.448 16.6873 28.952V29.096C16.6873 29.6 16.8193 30 17.0833 30.296C17.3473 30.584 17.6993 30.728 18.1393 30.728Z" fill="white"/>
<path d="M22.691 26.048H25.211V26.912H25.427C25.539 26.584 25.727 26.332 25.991 26.156C26.263 25.972 26.587 25.88 26.963 25.88C27.555 25.88 28.031 26.068 28.391 26.444C28.751 26.812 28.931 27.376 28.931 28.136V28.4L27.371 28.544V28.376C27.371 28.048 27.287 27.788 27.119 27.596C26.951 27.396 26.699 27.296 26.363 27.296C26.027 27.296 25.763 27.412 25.571 27.644C25.379 27.876 25.283 28.208 25.283 28.64V30.56H26.651V32H22.547V30.56H23.771V27.488H22.691V26.048Z" fill="white"/>
<path d="M30.1586 26.048H31.9226V23.6H33.4346V26.048H35.5826V27.488H33.4346V30.2C33.4346 30.44 33.5426 30.56 33.7586 30.56H35.3666V32H32.8466C32.5746 32 32.3506 31.912 32.1746 31.736C32.0066 31.56 31.9226 31.336 31.9226 31.064V27.488H30.1586V26.048Z" fill="white"/>
<path d="M37.7823 30.56H39.7983V27.488H37.9263V26.048H41.3103V30.56H43.0383V32H37.7823V30.56ZM41.6823 24.284C41.6823 24.444 41.6503 24.596 41.5863 24.74C41.5303 24.876 41.4503 24.996 41.3463 25.1C41.2423 25.196 41.1183 25.276 40.9743 25.34C40.8383 25.396 40.6943 25.424 40.5423 25.424C40.3823 25.424 40.2343 25.396 40.0983 25.34C39.9623 25.276 39.8423 25.196 39.7383 25.1C39.6343 24.996 39.5503 24.876 39.4863 24.74C39.4303 24.596 39.4023 24.444 39.4023 24.284C39.4023 24.124 39.4303 23.976 39.4863 23.84C39.5503 23.696 39.6343 23.576 39.7383 23.48C39.8423 23.376 39.9623 23.296 40.0983 23.24C40.2343 23.176 40.3823 23.144 40.5423 23.144C40.6943 23.144 40.8383 23.176 40.9743 23.24C41.1183 23.296 41.2423 23.376 41.3463 23.48C41.4503 23.576 41.5303 23.696 41.5863 23.84C41.6503 23.976 41.6823 24.124 41.6823 24.284Z" fill="white"/>
<path d="M46.5339 32H45.0219V26.048H46.5339V26.936H46.7499C46.8859 26.6 47.1059 26.34 47.4099 26.156C47.7139 25.972 48.0699 25.88 48.4779 25.88C48.7659 25.88 49.0339 25.928 49.2819 26.024C49.5379 26.112 49.7619 26.252 49.9539 26.444C50.1459 26.636 50.2939 26.88 50.3979 27.176C50.5099 27.472 50.5659 27.824 50.5659 28.232V32H49.0539V28.616C49.0539 28.192 48.9499 27.86 48.7419 27.62C48.5419 27.372 48.2499 27.248 47.8659 27.248C47.4179 27.248 47.0819 27.4 46.8579 27.704C46.6419 28 46.5339 28.4 46.5339 28.904V32Z" fill="white"/>
<path d="M56.6176 31.136H56.4016C56.3376 31.272 56.2576 31.404 56.1616 31.532C56.0736 31.652 55.9536 31.76 55.8016 31.856C55.6576 31.952 55.4816 32.028 55.2736 32.084C55.0736 32.14 54.8296 32.168 54.5416 32.168C54.1736 32.168 53.8296 32.104 53.5096 31.976C53.1976 31.84 52.9216 31.644 52.6816 31.388C52.4496 31.124 52.2656 30.804 52.1296 30.428C52.0016 30.052 51.9376 29.62 51.9376 29.132V28.916C51.9376 28.436 52.0056 28.008 52.1416 27.632C52.2856 27.256 52.4776 26.94 52.7176 26.684C52.9656 26.42 53.2496 26.22 53.5696 26.084C53.8976 25.948 54.2416 25.88 54.6016 25.88C55.0816 25.88 55.4616 25.972 55.7416 26.156C56.0216 26.332 56.2416 26.584 56.4016 26.912H56.6176V26.048H58.1296V33.464C58.1296 33.736 58.0416 33.96 57.8656 34.136C57.6976 34.312 57.4776 34.4 57.2056 34.4H53.1976V32.96H56.2936C56.5096 32.96 56.6176 32.84 56.6176 32.6V31.136ZM55.0336 30.728C55.5056 30.728 55.8856 30.58 56.1736 30.284C56.4696 29.98 56.6176 29.584 56.6176 29.096V28.952C56.6176 28.464 56.4696 28.072 56.1736 27.776C55.8856 27.472 55.5056 27.32 55.0336 27.32C54.5616 27.32 54.1776 27.468 53.8816 27.764C53.5936 28.052 53.4496 28.448 53.4496 28.952V29.096C53.4496 29.6 53.5936 30 53.8816 30.296C54.1776 30.584 54.5616 30.728 55.0336 30.728Z" fill="white"/>
<path d="M68.5769 28.832V32H66.9929V23.6H70.2809C70.7129 23.6 71.0889 23.672 71.4089 23.816C71.7289 23.952 71.9929 24.136 72.2009 24.368C72.4169 24.592 72.5769 24.852 72.6809 25.148C72.7929 25.436 72.8489 25.732 72.8489 26.036V26.324C72.8489 26.636 72.7929 26.944 72.6809 27.248C72.5769 27.544 72.4169 27.812 72.2009 28.052C71.9929 28.284 71.7289 28.472 71.4089 28.616C71.0889 28.76 70.7129 28.832 70.2809 28.832H68.5769ZM68.5769 27.32H70.1249C70.4769 27.32 70.7529 27.224 70.9529 27.032C71.1609 26.84 71.2649 26.592 71.2649 26.288V26.144C71.2649 25.84 71.1609 25.592 70.9529 25.4C70.7529 25.208 70.4769 25.112 70.1249 25.112H68.5769V27.32Z" fill="white"/>
<path d="M75.7446 29.516C75.7526 29.692 75.7926 29.856 75.8646 30.008C75.9446 30.152 76.0486 30.28 76.1766 30.392C76.3126 30.496 76.4646 30.58 76.6326 30.644C76.8086 30.7 76.9926 30.728 77.1846 30.728C77.5606 30.728 77.8486 30.664 78.0486 30.536C78.2486 30.4 78.3926 30.24 78.4806 30.056L79.7766 30.776C79.7046 30.928 79.6046 31.088 79.4766 31.256C79.3486 31.416 79.1806 31.564 78.9726 31.7C78.7726 31.836 78.5246 31.948 78.2286 32.036C77.9406 32.124 77.6006 32.168 77.2086 32.168C76.7606 32.168 76.3526 32.096 75.9846 31.952C75.6166 31.808 75.2966 31.6 75.0246 31.328C74.7606 31.056 74.5526 30.724 74.4006 30.332C74.2566 29.94 74.1846 29.496 74.1846 29V28.928C74.1846 28.472 74.2606 28.056 74.4126 27.68C74.5726 27.304 74.7886 26.984 75.0606 26.72C75.3326 26.456 75.6486 26.252 76.0086 26.108C76.3766 25.956 76.7686 25.88 77.1846 25.88C77.6966 25.88 78.1366 25.972 78.5046 26.156C78.8726 26.332 79.1766 26.56 79.4166 26.84C79.6566 27.112 79.8326 27.416 79.9446 27.752C80.0566 28.08 80.1126 28.4 80.1126 28.712V29.516H75.7446ZM77.1726 27.248C76.7886 27.248 76.4766 27.348 76.2366 27.548C75.9966 27.74 75.8406 27.964 75.7686 28.22H78.5766C78.5286 27.94 78.3766 27.708 78.1206 27.524C77.8726 27.34 77.5566 27.248 77.1726 27.248Z" fill="white"/>
<path d="M81.4722 26.048H83.9922V26.912H84.2082C84.3202 26.584 84.5082 26.332 84.7722 26.156C85.0442 25.972 85.3682 25.88 85.7442 25.88C86.3362 25.88 86.8122 26.068 87.1722 26.444C87.5322 26.812 87.7122 27.376 87.7122 28.136V28.4L86.1522 28.544V28.376C86.1522 28.048 86.0682 27.788 85.9002 27.596C85.7322 27.396 85.4802 27.296 85.1442 27.296C84.8082 27.296 84.5442 27.412 84.3522 27.644C84.1602 27.876 84.0642 28.208 84.0642 28.64V30.56H85.4322V32H81.3282V30.56H82.5522V27.488H81.4722V26.048Z" fill="white"/>
<path d="M89.2159 30.56H91.2319V27.488H89.3599V26.048H92.7439V30.56H94.4719V32H89.2159V30.56ZM93.1159 24.284C93.1159 24.444 93.0839 24.596 93.0199 24.74C92.9639 24.876 92.8839 24.996 92.7799 25.1C92.6759 25.196 92.5519 25.276 92.4079 25.34C92.2719 25.396 92.1279 25.424 91.9759 25.424C91.8159 25.424 91.6679 25.396 91.5319 25.34C91.3959 25.276 91.2759 25.196 91.1719 25.1C91.0679 24.996 90.9839 24.876 90.9199 24.74C90.8639 24.596 90.8359 24.444 90.8359 24.284C90.8359 24.124 90.8639 23.976 90.9199 23.84C90.9839 23.696 91.0679 23.576 91.1719 23.48C91.2759 23.376 91.3959 23.296 91.5319 23.24C91.6679 23.176 91.8159 23.144 91.9759 23.144C92.1279 23.144 92.2719 23.176 92.4079 23.24C92.5519 23.296 92.6759 23.376 92.7799 23.48C92.8839 23.576 92.9639 23.696 93.0199 23.84C93.0839 23.976 93.1159 24.124 93.1159 24.284Z" fill="white"/>
<path d="M102.288 29.096C102.288 29.592 102.204 30.032 102.036 30.416C101.868 30.792 101.64 31.112 101.352 31.376C101.064 31.632 100.732 31.828 100.356 31.964C99.9875 32.1 99.5995 32.168 99.1915 32.168C98.7835 32.168 98.3915 32.1 98.0155 31.964C97.6475 31.828 97.3195 31.632 97.0315 31.376C96.7435 31.112 96.5155 30.792 96.3475 30.416C96.1795 30.032 96.0955 29.592 96.0955 29.096V28.952C96.0955 28.464 96.1795 28.032 96.3475 27.656C96.5155 27.272 96.7435 26.948 97.0315 26.684C97.3195 26.42 97.6475 26.22 98.0155 26.084C98.3915 25.948 98.7835 25.88 99.1915 25.88C99.5995 25.88 99.9875 25.948 100.356 26.084C100.732 26.22 101.064 26.42 101.352 26.684C101.64 26.948 101.868 27.272 102.036 27.656C102.204 28.032 102.288 28.464 102.288 28.952V29.096ZM99.1915 30.728C99.4075 30.728 99.6115 30.692 99.8035 30.62C99.9955 30.548 100.164 30.444 100.308 30.308C100.452 30.172 100.564 30.008 100.644 29.816C100.732 29.616 100.776 29.392 100.776 29.144V28.904C100.776 28.656 100.732 28.436 100.644 28.244C100.564 28.044 100.452 27.876 100.308 27.74C100.164 27.604 99.9955 27.5 99.8035 27.428C99.6115 27.356 99.4075 27.32 99.1915 27.32C98.9755 27.32 98.7715 27.356 98.5795 27.428C98.3875 27.5 98.2195 27.604 98.0755 27.74C97.9315 27.876 97.8155 28.044 97.7275 28.244C97.6475 28.436 97.6075 28.656 97.6075 28.904V29.144C97.6075 29.392 97.6475 29.616 97.7275 29.816C97.8155 30.008 97.9315 30.172 98.0755 30.308C98.2195 30.444 98.3875 30.548 98.5795 30.62C98.7715 30.692 98.9755 30.728 99.1915 30.728Z" fill="white"/>
<path d="M108.075 31.136H107.859C107.795 31.272 107.715 31.404 107.619 31.532C107.531 31.652 107.411 31.76 107.259 31.856C107.115 31.952 106.939 32.028 106.731 32.084C106.531 32.14 106.287 32.168 105.999 32.168C105.631 32.168 105.287 32.104 104.967 31.976C104.655 31.84 104.379 31.644 104.139 31.388C103.907 31.124 103.723 30.804 103.587 30.428C103.459 30.052 103.395 29.62 103.395 29.132V28.916C103.395 28.436 103.463 28.008 103.599 27.632C103.743 27.256 103.935 26.94 104.175 26.684C104.423 26.42 104.707 26.22 105.027 26.084C105.355 25.948 105.699 25.88 106.059 25.88C106.539 25.88 106.919 25.972 107.199 26.156C107.479 26.332 107.699 26.584 107.859 26.912H108.075V23.6H109.587V32H108.075V31.136ZM106.491 30.728C106.963 30.728 107.343 30.58 107.631 30.284C107.927 29.98 108.075 29.584 108.075 29.096V28.952C108.075 28.464 107.927 28.072 107.631 27.776C107.343 27.472 106.963 27.32 106.491 27.32C106.019 27.32 105.635 27.468 105.339 27.764C105.051 28.052 104.907 28.448 104.907 28.952V29.096C104.907 29.6 105.051 30 105.339 30.296C105.635 30.584 106.019 30.728 106.491 30.728Z" fill="white"/>
<path d="M3.16801 48.488V42.392H2.95201L2.16001 45.272H0.648007V45.128L1.65601 41.6H4.75201V48.488H6.84001V50H0.792007V48.488H3.16801Z" fill="white"/>
<path d="M19.9033 49.136H19.6873C19.6233 49.272 19.5433 49.404 19.4473 49.532C19.3593 49.652 19.2393 49.76 19.0873 49.856C18.9433 49.952 18.7673 50.028 18.5593 50.084C18.3593 50.14 18.1153 50.168 17.8273 50.168C17.4593 50.168 17.1153 50.104 16.7953 49.976C16.4833 49.84 16.2073 49.644 15.9673 49.388C15.7353 49.124 15.5513 48.804 15.4153 48.428C15.2873 48.052 15.2233 47.62 15.2233 47.132V46.916C15.2233 46.436 15.2913 46.008 15.4273 45.632C15.5713 45.256 15.7633 44.94 16.0033 44.684C16.2513 44.42 16.5353 44.22 16.8553 44.084C17.1833 43.948 17.5273 43.88 17.8873 43.88C18.3673 43.88 18.7473 43.972 19.0273 44.156C19.3073 44.332 19.5273 44.584 19.6873 44.912H19.9033V41.6H21.4153V50H19.9033V49.136ZM18.3193 48.728C18.7913 48.728 19.1713 48.58 19.4593 48.284C19.7553 47.98 19.9033 47.584 19.9033 47.096V46.952C19.9033 46.464 19.7553 46.072 19.4593 45.776C19.1713 45.472 18.7913 45.32 18.3193 45.32C17.8473 45.32 17.4633 45.468 17.1673 45.764C16.8793 46.052 16.7353 46.448 16.7353 46.952V47.096C16.7353 47.6 16.8793 48 17.1673 48.296C17.4633 48.584 17.8473 48.728 18.3193 48.728Z" fill="white"/>
<path d="M26.831 49.136C26.671 49.512 26.447 49.78 26.159 49.94C25.871 50.092 25.535 50.168 25.151 50.168C24.791 50.168 24.451 50.1 24.131 49.964C23.819 49.828 23.543 49.628 23.303 49.364C23.063 49.1 22.871 48.78 22.727 48.404C22.591 48.028 22.523 47.6 22.523 47.12V46.928C22.523 46.456 22.591 46.032 22.727 45.656C22.863 45.28 23.047 44.96 23.279 44.696C23.511 44.432 23.779 44.232 24.083 44.096C24.395 43.952 24.727 43.88 25.079 43.88C25.503 43.88 25.843 43.952 26.099 44.096C26.363 44.24 26.571 44.464 26.723 44.768H26.939V44.048H28.451V48.2C28.451 48.44 28.559 48.56 28.775 48.56H29.003V50H27.971C27.699 50 27.475 49.92 27.299 49.76C27.131 49.6 27.047 49.392 27.047 49.136H26.831ZM25.487 48.728C25.927 48.728 26.279 48.584 26.543 48.296C26.807 48 26.939 47.6 26.939 47.096V46.952C26.939 46.448 26.807 46.052 26.543 45.764C26.279 45.468 25.927 45.32 25.487 45.32C25.047 45.32 24.695 45.468 24.431 45.764C24.167 46.052 24.035 46.448 24.035 46.952V47.096C24.035 47.6 24.167 48 24.431 48.296C24.695 48.584 25.047 48.728 25.487 48.728Z" fill="white"/>
<path d="M34.3586 44.048H35.8706V51.464C35.8706 51.736 35.7826 51.96 35.6066 52.136C35.4386 52.312 35.2186 52.4 34.9466 52.4H31.4066V50.96H34.0346C34.2506 50.96 34.3586 50.84 34.3586 50.6V49.136H34.1426C33.8786 49.824 33.3106 50.168 32.4386 50.168C32.1426 50.168 31.8666 50.12 31.6106 50.024C31.3546 49.928 31.1306 49.78 30.9386 49.58C30.7466 49.38 30.5946 49.132 30.4826 48.836C30.3786 48.532 30.3266 48.176 30.3266 47.768V44.048H31.8386V47.456C31.8386 47.88 31.9386 48.212 32.1386 48.452C32.3386 48.684 32.6386 48.8 33.0386 48.8C33.4946 48.8 33.8266 48.656 34.0346 48.368C34.2506 48.072 34.3586 47.672 34.3586 47.168V44.048Z" fill="white"/>
<path d="M50.7699 48.488V50H44.8659V48.344C44.8659 47.904 44.9299 47.528 45.0579 47.216C45.1939 46.904 45.3819 46.64 45.6219 46.424C45.8699 46.208 46.1659 46.032 46.5099 45.896C46.8539 45.752 47.2419 45.632 47.6739 45.536C47.9939 45.464 48.2539 45.384 48.4539 45.296C48.6619 45.2 48.8259 45.096 48.9459 44.984C49.0659 44.864 49.1459 44.736 49.1859 44.6C49.2339 44.456 49.2579 44.296 49.2579 44.12C49.2579 43.784 49.1339 43.504 48.8859 43.28C48.6459 43.056 48.3099 42.944 47.8779 42.944C47.4219 42.944 47.0579 43.084 46.7859 43.364C46.5139 43.636 46.3779 44.016 46.3779 44.504V45.032H44.7939V44.36C44.7939 43.968 44.8619 43.596 44.9979 43.244C45.1419 42.884 45.3419 42.572 45.5979 42.308C45.8619 42.036 46.1819 41.824 46.5579 41.672C46.9339 41.512 47.3579 41.432 47.8299 41.432C48.3339 41.432 48.7739 41.508 49.1499 41.66C49.5259 41.804 49.8379 41.996 50.0859 42.236C50.3419 42.476 50.5299 42.756 50.6499 43.076C50.7779 43.388 50.8419 43.712 50.8419 44.048V44.192C50.8419 44.896 50.6419 45.48 50.2419 45.944C49.8499 46.408 49.2059 46.744 48.3099 46.952C47.9339 47.04 47.6219 47.132 47.3739 47.228C47.1339 47.316 46.9459 47.416 46.8099 47.528C46.6739 47.64 46.5779 47.764 46.5219 47.9C46.4739 48.028 46.4499 48.176 46.4499 48.344V48.488H50.7699Z" fill="white"/>
<path d="M54.6016 48.488V42.392H54.3856L53.5936 45.272H52.0816V45.128L53.0896 41.6H56.1856V48.488H58.2736V50H52.2256V48.488H54.6016Z" fill="white"/>
<path d="M68.6009 50H67.0889V41.6H68.6009V45.008H68.8169C68.9689 44.648 69.1929 44.372 69.4889 44.18C69.7849 43.98 70.1489 43.88 70.5809 43.88C70.8769 43.88 71.1489 43.928 71.3969 44.024C71.6449 44.12 71.8609 44.264 72.0449 44.456C72.2289 44.648 72.3729 44.896 72.4769 45.2C72.5809 45.496 72.6329 45.848 72.6329 46.256V50H71.1209V46.616C71.1209 46.192 71.0169 45.86 70.8089 45.62C70.6089 45.372 70.3169 45.248 69.9329 45.248C69.4849 45.248 69.1489 45.4 68.9249 45.704C68.7089 46 68.6009 46.4 68.6009 46.904V50Z" fill="white"/>
<path d="M80.2446 47.096C80.2446 47.592 80.1606 48.032 79.9926 48.416C79.8246 48.792 79.5966 49.112 79.3086 49.376C79.0206 49.632 78.6886 49.828 78.3126 49.964C77.9446 50.1 77.5566 50.168 77.1486 50.168C76.7406 50.168 76.3486 50.1 75.9726 49.964C75.6046 49.828 75.2766 49.632 74.9886 49.376C74.7006 49.112 74.4726 48.792 74.3046 48.416C74.1366 48.032 74.0526 47.592 74.0526 47.096V46.952C74.0526 46.464 74.1366 46.032 74.3046 45.656C74.4726 45.272 74.7006 44.948 74.9886 44.684C75.2766 44.42 75.6046 44.22 75.9726 44.084C76.3486 43.948 76.7406 43.88 77.1486 43.88C77.5566 43.88 77.9446 43.948 78.3126 44.084C78.6886 44.22 79.0206 44.42 79.3086 44.684C79.5966 44.948 79.8246 45.272 79.9926 45.656C80.1606 46.032 80.2446 46.464 80.2446 46.952V47.096ZM77.1486 48.728C77.3646 48.728 77.5686 48.692 77.7606 48.62C77.9526 48.548 78.1206 48.444 78.2646 48.308C78.4086 48.172 78.5206 48.008 78.6006 47.816C78.6886 47.616 78.7326 47.392 78.7326 47.144V46.904C78.7326 46.656 78.6886 46.436 78.6006 46.244C78.5206 46.044 78.4086 45.876 78.2646 45.74C78.1206 45.604 77.9526 45.5 77.7606 45.428C77.5686 45.356 77.3646 45.32 77.1486 45.32C76.9326 45.32 76.7286 45.356 76.5366 45.428C76.3446 45.5 76.1766 45.604 76.0326 45.74C75.8886 45.876 75.7726 46.044 75.6846 46.244C75.6046 46.436 75.5646 46.656 75.5646 46.904V47.144C75.5646 47.392 75.6046 47.616 75.6846 47.816C75.7726 48.008 75.8886 48.172 76.0326 48.308C76.1766 48.444 76.3446 48.548 76.5366 48.62C76.7286 48.692 76.9326 48.728 77.1486 48.728Z" fill="white"/>
<path d="M85.7922 44.048H87.3042V50H85.7922V49.136H85.5762C85.3122 49.824 84.7442 50.168 83.8722 50.168C83.5762 50.168 83.3002 50.12 83.0442 50.024C82.7882 49.928 82.5642 49.78 82.3722 49.58C82.1802 49.38 82.0282 49.132 81.9162 48.836C81.8122 48.532 81.7602 48.176 81.7602 47.768V44.048H83.2722V47.456C83.2722 47.88 83.3722 48.212 83.5722 48.452C83.7722 48.684 84.0722 48.8 84.4722 48.8C84.9282 48.8 85.2602 48.656 85.4682 48.368C85.6842 48.072 85.7922 47.672 85.7922 47.168V44.048Z" fill="white"/>
<path d="M88.8199 44.048H91.3399V44.912H91.5559C91.6679 44.584 91.8559 44.332 92.1199 44.156C92.3919 43.972 92.7159 43.88 93.0919 43.88C93.6839 43.88 94.1599 44.068 94.5199 44.444C94.8799 44.812 95.0599 45.376 95.0599 46.136V46.4L93.4999 46.544V46.376C93.4999 46.048 93.4159 45.788 93.2479 45.596C93.0799 45.396 92.8279 45.296 92.4919 45.296C92.1559 45.296 91.8919 45.412 91.6999 45.644C91.5079 45.876 91.4119 46.208 91.4119 46.64V48.56H92.7799V50H88.6759V48.56H89.8999V45.488H88.8199V44.048Z" fill="white"/>
<path d="M98.3515 45.728C98.3515 45.92 98.4515 46.06 98.6515 46.148C98.8515 46.228 99.2155 46.296 99.7435 46.352C100.352 46.416 100.848 46.6 101.232 46.904C101.616 47.2 101.808 47.616 101.808 48.152V48.224C101.808 48.816 101.592 49.288 101.16 49.64C100.728 49.992 100.12 50.168 99.3355 50.168C98.8715 50.168 98.4755 50.108 98.1475 49.988C97.8195 49.868 97.5475 49.72 97.3315 49.544C97.1155 49.36 96.9475 49.16 96.8275 48.944C96.7155 48.72 96.6395 48.504 96.5995 48.296L97.9915 47.84C98.0555 48.096 98.1875 48.32 98.3875 48.512C98.5955 48.704 98.9115 48.8 99.3355 48.8C99.7115 48.8 99.9675 48.744 100.104 48.632C100.248 48.512 100.32 48.384 100.32 48.248C100.32 48.168 100.3 48.096 100.26 48.032C100.228 47.96 100.164 47.896 100.068 47.84C99.9715 47.776 99.8395 47.724 99.6715 47.684C99.5115 47.644 99.3075 47.612 99.0595 47.588C98.3875 47.532 97.8515 47.36 97.4515 47.072C97.0595 46.776 96.8635 46.344 96.8635 45.776V45.704C96.8635 45.408 96.9275 45.148 97.0555 44.924C97.1835 44.7 97.3515 44.512 97.5595 44.36C97.7675 44.2 98.0075 44.08 98.2795 44C98.5515 43.92 98.8315 43.88 99.1195 43.88C99.4955 43.88 99.8195 43.928 100.092 44.024C100.372 44.112 100.608 44.232 100.8 44.384C100.992 44.528 101.148 44.692 101.268 44.876C101.388 45.052 101.48 45.224 101.544 45.392L100.176 45.944C100.104 45.728 99.9795 45.56 99.8035 45.44C99.6275 45.312 99.3995 45.248 99.1195 45.248C98.8635 45.248 98.6715 45.296 98.5435 45.392C98.4155 45.48 98.3515 45.592 98.3515 45.728Z" fill="white"/>
<path d="M224.984 23.6H230.288V25.112H226.568V27.032H230.144V28.544H226.568V30.488H230.432V32H224.984V23.6Z" fill="white"/>
<path d="M233.796 32H232.284V26.048H233.796V26.936H234.012C234.148 26.6 234.368 26.34 234.672 26.156C234.976 25.972 235.332 25.88 235.74 25.88C236.028 25.88 236.296 25.928 236.544 26.024C236.8 26.112 237.024 26.252 237.216 26.444C237.408 26.636 237.556 26.88 237.66 27.176C237.772 27.472 237.828 27.824 237.828 28.232V32H236.316V28.616C236.316 28.192 236.212 27.86 236.004 27.62C235.804 27.372 235.512 27.248 235.128 27.248C234.68 27.248 234.344 27.4 234.12 27.704C233.904 28 233.796 28.4 233.796 28.904V32Z" fill="white"/>
<path d="M243.903 31.136H243.687C243.623 31.272 243.543 31.404 243.447 31.532C243.359 31.652 243.239 31.76 243.087 31.856C242.943 31.952 242.767 32.028 242.559 32.084C242.359 32.14 242.115 32.168 241.827 32.168C241.459 32.168 241.115 32.104 240.795 31.976C240.483 31.84 240.207 31.644 239.967 31.388C239.735 31.124 239.551 30.804 239.415 30.428C239.287 30.052 239.223 29.62 239.223 29.132V28.916C239.223 28.436 239.291 28.008 239.427 27.632C239.571 27.256 239.763 26.94 240.003 26.684C240.251 26.42 240.535 26.22 240.855 26.084C241.183 25.948 241.527 25.88 241.887 25.88C242.367 25.88 242.747 25.972 243.027 26.156C243.307 26.332 243.527 26.584 243.687 26.912H243.903V23.6H245.415V32H243.903V31.136ZM242.319 30.728C242.791 30.728 243.171 30.58 243.459 30.284C243.755 29.98 243.903 29.584 243.903 29.096V28.952C243.903 28.464 243.755 28.072 243.459 27.776C243.171 27.472 242.791 27.32 242.319 27.32C241.847 27.32 241.463 27.468 241.167 27.764C240.879 28.052 240.735 28.448 240.735 28.952V29.096C240.735 29.6 240.879 30 241.167 30.296C241.463 30.584 241.847 30.728 242.319 30.728Z" fill="white"/>
<path d="M247.087 30.56H249.103V27.488H247.231V26.048H250.615V30.56H252.343V32H247.087V30.56ZM250.987 24.284C250.987 24.444 250.955 24.596 250.891 24.74C250.835 24.876 250.755 24.996 250.651 25.1C250.547 25.196 250.423 25.276 250.279 25.34C250.143 25.396 249.999 25.424 249.847 25.424C249.687 25.424 249.539 25.396 249.403 25.34C249.267 25.276 249.147 25.196 249.043 25.1C248.939 24.996 248.855 24.876 248.791 24.74C248.735 24.596 248.707 24.444 248.707 24.284C248.707 24.124 248.735 23.976 248.791 23.84C248.855 23.696 248.939 23.576 249.043 23.48C249.147 23.376 249.267 23.296 249.403 23.24C249.539 23.176 249.687 23.144 249.847 23.144C249.999 23.144 250.143 23.176 250.279 23.24C250.423 23.296 250.547 23.376 250.651 23.48C250.755 23.576 250.835 23.696 250.891 23.84C250.955 23.976 250.987 24.124 250.987 24.284Z" fill="white"/>
<path d="M255.839 32H254.327V26.048H255.839V26.936H256.055C256.191 26.6 256.411 26.34 256.715 26.156C257.019 25.972 257.375 25.88 257.783 25.88C258.071 25.88 258.339 25.928 258.587 26.024C258.843 26.112 259.067 26.252 259.259 26.444C259.451 26.636 259.599 26.88 259.703 27.176C259.815 27.472 259.871 27.824 259.871 28.232V32H258.359V28.616C258.359 28.192 258.255 27.86 258.047 27.62C257.847 27.372 257.555 27.248 257.171 27.248C256.723 27.248 256.387 27.4 256.163 27.704C255.947 28 255.839 28.4 255.839 28.904V32Z" fill="white"/>
<path d="M265.922 31.136H265.706C265.642 31.272 265.562 31.404 265.466 31.532C265.378 31.652 265.258 31.76 265.106 31.856C264.962 31.952 264.786 32.028 264.578 32.084C264.378 32.14 264.134 32.168 263.846 32.168C263.478 32.168 263.134 32.104 262.814 31.976C262.502 31.84 262.226 31.644 261.986 31.388C261.754 31.124 261.57 30.804 261.434 30.428C261.306 30.052 261.242 29.62 261.242 29.132V28.916C261.242 28.436 261.31 28.008 261.446 27.632C261.59 27.256 261.782 26.94 262.022 26.684C262.27 26.42 262.554 26.22 262.874 26.084C263.202 25.948 263.546 25.88 263.906 25.88C264.386 25.88 264.766 25.972 265.046 26.156C265.326 26.332 265.546 26.584 265.706 26.912H265.922V26.048H267.434V33.464C267.434 33.736 267.346 33.96 267.17 34.136C267.002 34.312 266.782 34.4 266.51 34.4H262.502V32.96H265.598C265.814 32.96 265.922 32.84 265.922 32.6V31.136ZM264.338 30.728C264.81 30.728 265.19 30.58 265.478 30.284C265.774 29.98 265.922 29.584 265.922 29.096V28.952C265.922 28.464 265.774 28.072 265.478 27.776C265.19 27.472 264.81 27.32 264.338 27.32C263.866 27.32 263.482 27.468 263.186 27.764C262.898 28.052 262.754 28.448 262.754 28.952V29.096C262.754 29.6 262.898 30 263.186 30.296C263.482 30.584 263.866 30.728 264.338 30.728Z" fill="white"/>
<path d="M277.882 28.832V32H276.298V23.6H279.586C280.018 23.6 280.394 23.672 280.714 23.816C281.034 23.952 281.298 24.136 281.506 24.368C281.722 24.592 281.882 24.852 281.986 25.148C282.098 25.436 282.154 25.732 282.154 26.036V26.324C282.154 26.636 282.098 26.944 281.986 27.248C281.882 27.544 281.722 27.812 281.506 28.052C281.298 28.284 281.034 28.472 280.714 28.616C280.394 28.76 280.018 28.832 279.586 28.832H277.882ZM277.882 27.32H279.43C279.782 27.32 280.058 27.224 280.258 27.032C280.466 26.84 280.57 26.592 280.57 26.288V26.144C280.57 25.84 280.466 25.592 280.258 25.4C280.058 25.208 279.782 25.112 279.43 25.112H277.882V27.32Z" fill="white"/>
<path d="M285.049 29.516C285.057 29.692 285.097 29.856 285.169 30.008C285.249 30.152 285.353 30.28 285.481 30.392C285.617 30.496 285.769 30.58 285.937 30.644C286.113 30.7 286.297 30.728 286.489 30.728C286.865 30.728 287.153 30.664 287.353 30.536C287.553 30.4 287.697 30.24 287.785 30.056L289.081 30.776C289.009 30.928 288.909 31.088 288.781 31.256C288.653 31.416 288.485 31.564 288.277 31.7C288.077 31.836 287.829 31.948 287.533 32.036C287.245 32.124 286.905 32.168 286.513 32.168C286.065 32.168 285.657 32.096 285.289 31.952C284.921 31.808 284.601 31.6 284.329 31.328C284.065 31.056 283.857 30.724 283.705 30.332C283.561 29.94 283.489 29.496 283.489 29V28.928C283.489 28.472 283.565 28.056 283.717 27.68C283.877 27.304 284.093 26.984 284.365 26.72C284.637 26.456 284.953 26.252 285.313 26.108C285.681 25.956 286.073 25.88 286.489 25.88C287.001 25.88 287.441 25.972 287.809 26.156C288.177 26.332 288.481 26.56 288.721 26.84C288.961 27.112 289.137 27.416 289.249 27.752C289.361 28.08 289.417 28.4 289.417 28.712V29.516H285.049ZM286.477 27.248C286.093 27.248 285.781 27.348 285.541 27.548C285.301 27.74 285.145 27.964 285.073 28.22H287.881C287.833 27.94 287.681 27.708 287.425 27.524C287.177 27.34 286.861 27.248 286.477 27.248Z" fill="white"/>
<path d="M290.777 26.048H293.297V26.912H293.513C293.625 26.584 293.813 26.332 294.077 26.156C294.349 25.972 294.673 25.88 295.049 25.88C295.641 25.88 296.117 26.068 296.477 26.444C296.837 26.812 297.017 27.376 297.017 28.136V28.4L295.457 28.544V28.376C295.457 28.048 295.373 27.788 295.205 27.596C295.037 27.396 294.785 27.296 294.449 27.296C294.113 27.296 293.849 27.412 293.657 27.644C293.465 27.876 293.369 28.208 293.369 28.64V30.56H294.737V32H290.633V30.56H291.857V27.488H290.777V26.048Z" fill="white"/>
<path d="M298.521 30.56H300.537V27.488H298.665V26.048H302.049V30.56H303.777V32H298.521V30.56ZM302.421 24.284C302.421 24.444 302.389 24.596 302.325 24.74C302.269 24.876 302.189 24.996 302.085 25.1C301.981 25.196 301.857 25.276 301.713 25.34C301.577 25.396 301.433 25.424 301.281 25.424C301.121 25.424 300.973 25.396 300.837 25.34C300.701 25.276 300.581 25.196 300.477 25.1C300.373 24.996 300.289 24.876 300.225 24.74C300.169 24.596 300.141 24.444 300.141 24.284C300.141 24.124 300.169 23.976 300.225 23.84C300.289 23.696 300.373 23.576 300.477 23.48C300.581 23.376 300.701 23.296 300.837 23.24C300.973 23.176 301.121 23.144 301.281 23.144C301.433 23.144 301.577 23.176 301.713 23.24C301.857 23.296 301.981 23.376 302.085 23.48C302.189 23.576 302.269 23.696 302.325 23.84C302.389 23.976 302.421 24.124 302.421 24.284Z" fill="white"/>
<path d="M311.592 29.096C311.592 29.592 311.508 30.032 311.34 30.416C311.172 30.792 310.944 31.112 310.656 31.376C310.368 31.632 310.036 31.828 309.66 31.964C309.292 32.1 308.904 32.168 308.496 32.168C308.088 32.168 307.696 32.1 307.32 31.964C306.952 31.828 306.624 31.632 306.336 31.376C306.048 31.112 305.82 30.792 305.652 30.416C305.484 30.032 305.4 29.592 305.4 29.096V28.952C305.4 28.464 305.484 28.032 305.652 27.656C305.82 27.272 306.048 26.948 306.336 26.684C306.624 26.42 306.952 26.22 307.32 26.084C307.696 25.948 308.088 25.88 308.496 25.88C308.904 25.88 309.292 25.948 309.66 26.084C310.036 26.22 310.368 26.42 310.656 26.684C310.944 26.948 311.172 27.272 311.34 27.656C311.508 28.032 311.592 28.464 311.592 28.952V29.096ZM308.496 30.728C308.712 30.728 308.916 30.692 309.108 30.62C309.3 30.548 309.468 30.444 309.612 30.308C309.756 30.172 309.868 30.008 309.948 29.816C310.036 29.616 310.08 29.392 310.08 29.144V28.904C310.08 28.656 310.036 28.436 309.948 28.244C309.868 28.044 309.756 27.876 309.612 27.74C309.468 27.604 309.3 27.5 309.108 27.428C308.916 27.356 308.712 27.32 308.496 27.32C308.28 27.32 308.076 27.356 307.884 27.428C307.692 27.5 307.524 27.604 307.38 27.74C307.236 27.876 307.12 28.044 307.032 28.244C306.952 28.436 306.912 28.656 306.912 28.904V29.144C306.912 29.392 306.952 29.616 307.032 29.816C307.12 30.008 307.236 30.172 307.38 30.308C307.524 30.444 307.692 30.548 307.884 30.62C308.076 30.692 308.28 30.728 308.496 30.728Z" fill="white"/>
<path d="M317.38 31.136H317.164C317.1 31.272 317.02 31.404 316.924 31.532C316.836 31.652 316.716 31.76 316.564 31.856C316.42 31.952 316.244 32.028 316.036 32.084C315.836 32.14 315.592 32.168 315.304 32.168C314.936 32.168 314.592 32.104 314.272 31.976C313.96 31.84 313.684 31.644 313.444 31.388C313.212 31.124 313.028 30.804 312.892 30.428C312.764 30.052 312.7 29.62 312.7 29.132V28.916C312.7 28.436 312.768 28.008 312.904 27.632C313.048 27.256 313.24 26.94 313.48 26.684C313.728 26.42 314.012 26.22 314.332 26.084C314.66 25.948 315.004 25.88 315.364 25.88C315.844 25.88 316.224 25.972 316.504 26.156C316.784 26.332 317.004 26.584 317.164 26.912H317.38V23.6H318.892V32H317.38V31.136ZM315.796 30.728C316.268 30.728 316.648 30.58 316.936 30.284C317.232 29.98 317.38 29.584 317.38 29.096V28.952C317.38 28.464 317.232 28.072 316.936 27.776C316.648 27.472 316.268 27.32 315.796 27.32C315.324 27.32 314.94 27.468 314.644 27.764C314.356 28.052 314.212 28.448 314.212 28.952V29.096C314.212 29.6 314.356 30 314.644 30.296C314.94 30.584 315.324 30.728 315.796 30.728Z" fill="white"/>
<path d="M224.792 46.256V41.6H230.408V43.112H226.376V45.392H226.592C226.704 45.08 226.912 44.812 227.216 44.588C227.528 44.356 227.944 44.24 228.464 44.24C228.856 44.24 229.208 44.308 229.52 44.444C229.832 44.58 230.096 44.768 230.312 45.008C230.528 45.248 230.692 45.536 230.804 45.872C230.924 46.208 230.984 46.576 230.984 46.976V47.048C230.984 47.472 230.912 47.872 230.768 48.248C230.632 48.624 230.428 48.956 230.156 49.244C229.892 49.524 229.564 49.748 229.172 49.916C228.78 50.084 228.328 50.168 227.816 50.168C227.304 50.168 226.852 50.1 226.46 49.964C226.068 49.82 225.736 49.624 225.464 49.376C225.2 49.12 224.996 48.82 224.852 48.476C224.716 48.124 224.648 47.744 224.648 47.336V47.048H226.232V47.192C226.232 47.616 226.36 47.968 226.616 48.248C226.88 48.52 227.264 48.656 227.768 48.656C228.272 48.656 228.668 48.52 228.956 48.248C229.252 47.976 229.4 47.6 229.4 47.12C229.4 46.664 229.292 46.324 229.076 46.1C228.86 45.868 228.576 45.752 228.224 45.752C227.992 45.752 227.804 45.804 227.66 45.908C227.516 46.004 227.424 46.12 227.384 46.256H224.792Z" fill="white"/>
<path d="M243.903 49.136H243.687C243.623 49.272 243.543 49.404 243.447 49.532C243.359 49.652 243.239 49.76 243.087 49.856C242.943 49.952 242.767 50.028 242.559 50.084C242.359 50.14 242.115 50.168 241.827 50.168C241.459 50.168 241.115 50.104 240.795 49.976C240.483 49.84 240.207 49.644 239.967 49.388C239.735 49.124 239.551 48.804 239.415 48.428C239.287 48.052 239.223 47.62 239.223 47.132V46.916C239.223 46.436 239.291 46.008 239.427 45.632C239.571 45.256 239.763 44.94 240.003 44.684C240.251 44.42 240.535 44.22 240.855 44.084C241.183 43.948 241.527 43.88 241.887 43.88C242.367 43.88 242.747 43.972 243.027 44.156C243.307 44.332 243.527 44.584 243.687 44.912H243.903V41.6H245.415V50H243.903V49.136ZM242.319 48.728C242.791 48.728 243.171 48.58 243.459 48.284C243.755 47.98 243.903 47.584 243.903 47.096V46.952C243.903 46.464 243.755 46.072 243.459 45.776C243.171 45.472 242.791 45.32 242.319 45.32C241.847 45.32 241.463 45.468 241.167 45.764C240.879 46.052 240.735 46.448 240.735 46.952V47.096C240.735 47.6 240.879 48 241.167 48.296C241.463 48.584 241.847 48.728 242.319 48.728Z" fill="white"/>
<path d="M250.831 49.136C250.671 49.512 250.447 49.78 250.159 49.94C249.871 50.092 249.535 50.168 249.151 50.168C248.791 50.168 248.451 50.1 248.131 49.964C247.819 49.828 247.543 49.628 247.303 49.364C247.063 49.1 246.871 48.78 246.727 48.404C246.591 48.028 246.523 47.6 246.523 47.12V46.928C246.523 46.456 246.591 46.032 246.727 45.656C246.863 45.28 247.047 44.96 247.279 44.696C247.511 44.432 247.779 44.232 248.083 44.096C248.395 43.952 248.727 43.88 249.079 43.88C249.503 43.88 249.843 43.952 250.099 44.096C250.363 44.24 250.571 44.464 250.723 44.768H250.939V44.048H252.451V48.2C252.451 48.44 252.559 48.56 252.775 48.56H253.003V50H251.971C251.699 50 251.475 49.92 251.299 49.76C251.131 49.6 251.047 49.392 251.047 49.136H250.831ZM249.487 48.728C249.927 48.728 250.279 48.584 250.543 48.296C250.807 48 250.939 47.6 250.939 47.096V46.952C250.939 46.448 250.807 46.052 250.543 45.764C250.279 45.468 249.927 45.32 249.487 45.32C249.047 45.32 248.695 45.468 248.431 45.764C248.167 46.052 248.035 46.448 248.035 46.952V47.096C248.035 47.6 248.167 48 248.431 48.296C248.695 48.584 249.047 48.728 249.487 48.728Z" fill="white"/>
<path d="M258.359 44.048H259.871V51.464C259.871 51.736 259.783 51.96 259.607 52.136C259.439 52.312 259.219 52.4 258.947 52.4H255.407V50.96H258.035C258.251 50.96 258.359 50.84 258.359 50.6V49.136H258.143C257.879 49.824 257.311 50.168 256.439 50.168C256.143 50.168 255.867 50.12 255.611 50.024C255.355 49.928 255.131 49.78 254.939 49.58C254.747 49.38 254.595 49.132 254.483 48.836C254.379 48.532 254.327 48.176 254.327 47.768V44.048H255.839V47.456C255.839 47.88 255.939 48.212 256.139 48.452C256.339 48.684 256.639 48.8 257.039 48.8C257.495 48.8 257.827 48.656 258.035 48.368C258.251 48.072 258.359 47.672 258.359 47.168V44.048Z" fill="white"/>
<path d="M263.57 45.728C263.57 45.92 263.67 46.06 263.87 46.148C264.07 46.228 264.434 46.296 264.962 46.352C265.57 46.416 266.066 46.6 266.45 46.904C266.834 47.2 267.026 47.616 267.026 48.152V48.224C267.026 48.816 266.81 49.288 266.378 49.64C265.946 49.992 265.338 50.168 264.554 50.168C264.09 50.168 263.694 50.108 263.366 49.988C263.038 49.868 262.766 49.72 262.55 49.544C262.334 49.36 262.166 49.16 262.046 48.944C261.934 48.72 261.858 48.504 261.818 48.296L263.21 47.84C263.274 48.096 263.406 48.32 263.606 48.512C263.814 48.704 264.13 48.8 264.554 48.8C264.93 48.8 265.186 48.744 265.322 48.632C265.466 48.512 265.538 48.384 265.538 48.248C265.538 48.168 265.518 48.096 265.478 48.032C265.446 47.96 265.382 47.896 265.286 47.84C265.19 47.776 265.058 47.724 264.89 47.684C264.73 47.644 264.526 47.612 264.278 47.588C263.606 47.532 263.07 47.36 262.67 47.072C262.278 46.776 262.082 46.344 262.082 45.776V45.704C262.082 45.408 262.146 45.148 262.274 44.924C262.402 44.7 262.57 44.512 262.778 44.36C262.986 44.2 263.226 44.08 263.498 44C263.77 43.92 264.05 43.88 264.338 43.88C264.714 43.88 265.038 43.928 265.31 44.024C265.59 44.112 265.826 44.232 266.018 44.384C266.21 44.528 266.366 44.692 266.486 44.876C266.606 45.052 266.698 45.224 266.762 45.392L265.394 45.944C265.322 45.728 265.198 45.56 265.022 45.44C264.846 45.312 264.618 45.248 264.338 45.248C264.082 45.248 263.89 45.296 263.762 45.392C263.634 45.48 263.57 45.592 263.57 45.728Z" fill="white"/>
<path fill-rule="evenodd" clip-rule="evenodd" d="M599 2.78163e-08L599 7L598 7L598 0L599 2.78163e-08Z" fill="white"/>
<path fill-rule="evenodd" clip-rule="evenodd" d="M222 4.60234e-08L222 7L221 7L221 0L222 4.60234e-08Z" fill="white"/>
<path fill-rule="evenodd" clip-rule="evenodd" d="M226 2.78163e-08L226 7L225 7L225 0L226 2.78163e-08Z" fill="white"/>
<path fill-rule="evenodd" clip-rule="evenodd" d="M2 2.78163e-08L2 7L1 7L1 0L2 2.78163e-08Z" fill="white"/>
<path fill-rule="evenodd" clip-rule="evenodd" d="M598.5 4L226 4V3L598.5 3V4Z" fill="white"/>
<path fill-rule="evenodd" clip-rule="evenodd" d="M221 4L2 4L2 3L221 3V4Z" fill="white"/>
<path d="M548.118 30.488H548.91V25.112H548.118V23.6H551.802C552.202 23.6 552.554 23.656 552.858 23.768C553.17 23.88 553.43 24.032 553.638 24.224C553.854 24.416 554.014 24.648 554.118 24.92C554.23 25.184 554.286 25.472 554.286 25.784V25.928C554.286 26.408 554.15 26.792 553.878 27.08C553.614 27.368 553.278 27.568 552.87 27.68V27.896C553.278 28.008 553.614 28.212 553.878 28.508C554.15 28.796 554.286 29.18 554.286 29.66V29.804C554.286 30.116 554.23 30.408 554.118 30.68C554.014 30.944 553.854 31.176 553.638 31.376C553.43 31.568 553.17 31.72 552.858 31.832C552.554 31.944 552.202 32 551.802 32H548.118V30.488ZM550.494 30.488H551.646C551.982 30.488 552.254 30.416 552.462 30.272C552.67 30.128 552.774 29.888 552.774 29.552V29.48C552.774 29.144 552.67 28.904 552.462 28.76C552.254 28.616 551.982 28.544 551.646 28.544H550.494V30.488ZM550.494 27.032H551.646C551.982 27.032 552.254 26.964 552.462 26.828C552.67 26.684 552.774 26.444 552.774 26.108V26.036C552.774 25.7 552.67 25.464 552.462 25.328C552.254 25.184 551.982 25.112 551.646 25.112H550.494V27.032Z" fill="white"/>
<path d="M555.958 30.56H557.974V27.488H556.102V26.048H559.486V30.56H561.214V32H555.958V30.56ZM559.858 24.284C559.858 24.444 559.826 24.596 559.762 24.74C559.706 24.876 559.626 24.996 559.522 25.1C559.418 25.196 559.294 25.276 559.15 25.34C559.014 25.396 558.87 25.424 558.718 25.424C558.558 25.424 558.41 25.396 558.274 25.34C558.138 25.276 558.018 25.196 557.914 25.1C557.81 24.996 557.726 24.876 557.662 24.74C557.606 24.596 557.578 24.444 557.578 24.284C557.578 24.124 557.606 23.976 557.662 23.84C557.726 23.696 557.81 23.576 557.914 23.48C558.018 23.376 558.138 23.296 558.274 23.24C558.41 23.176 558.558 23.144 558.718 23.144C558.87 23.144 559.014 23.176 559.15 23.24C559.294 23.296 559.418 23.376 559.522 23.48C559.626 23.576 559.706 23.696 559.762 23.84C559.826 23.976 559.858 24.124 559.858 24.284Z" fill="white"/>
<path d="M567.47 31.136H567.254C567.19 31.272 567.11 31.404 567.014 31.532C566.926 31.652 566.806 31.76 566.654 31.856C566.51 31.952 566.334 32.028 566.126 32.084C565.926 32.14 565.682 32.168 565.394 32.168C565.026 32.168 564.682 32.104 564.362 31.976C564.05 31.84 563.774 31.644 563.534 31.388C563.302 31.124 563.118 30.804 562.982 30.428C562.854 30.052 562.79 29.62 562.79 29.132V28.916C562.79 28.436 562.858 28.008 562.994 27.632C563.138 27.256 563.33 26.94 563.57 26.684C563.818 26.42 564.102 26.22 564.422 26.084C564.75 25.948 565.094 25.88 565.454 25.88C565.934 25.88 566.314 25.972 566.594 26.156C566.874 26.332 567.094 26.584 567.254 26.912H567.47V23.6H568.982V32H567.47V31.136ZM565.886 30.728C566.358 30.728 566.738 30.58 567.026 30.284C567.322 29.98 567.47 29.584 567.47 29.096V28.952C567.47 28.464 567.322 28.072 567.026 27.776C566.738 27.472 566.358 27.32 565.886 27.32C565.414 27.32 565.03 27.468 564.734 27.764C564.446 28.052 564.302 28.448 564.302 28.952V29.096C564.302 29.6 564.446 30 564.734 30.296C565.03 30.584 565.414 30.728 565.886 30.728Z" fill="white"/>
<path d="M574.817 31.136H574.601C574.537 31.272 574.457 31.404 574.361 31.532C574.273 31.652 574.153 31.76 574.001 31.856C573.857 31.952 573.681 32.028 573.473 32.084C573.273 32.14 573.029 32.168 572.741 32.168C572.373 32.168 572.029 32.104 571.709 31.976C571.397 31.84 571.121 31.644 570.881 31.388C570.649 31.124 570.465 30.804 570.329 30.428C570.201 30.052 570.137 29.62 570.137 29.132V28.916C570.137 28.436 570.205 28.008 570.341 27.632C570.485 27.256 570.677 26.94 570.917 26.684C571.165 26.42 571.449 26.22 571.769 26.084C572.097 25.948 572.441 25.88 572.801 25.88C573.281 25.88 573.661 25.972 573.941 26.156C574.221 26.332 574.441 26.584 574.601 26.912H574.817V23.6H576.329V32H574.817V31.136ZM573.233 30.728C573.705 30.728 574.085 30.58 574.373 30.284C574.669 29.98 574.817 29.584 574.817 29.096V28.952C574.817 28.464 574.669 28.072 574.373 27.776C574.085 27.472 573.705 27.32 573.233 27.32C572.761 27.32 572.377 27.468 572.081 27.764C571.793 28.052 571.649 28.448 571.649 28.952V29.096C571.649 29.6 571.793 30 572.081 30.296C572.377 30.584 572.761 30.728 573.233 30.728Z" fill="white"/>
<path d="M578.001 30.56H580.017V27.488H578.145V26.048H581.529V30.56H583.257V32H578.001V30.56ZM581.901 24.284C581.901 24.444 581.869 24.596 581.805 24.74C581.749 24.876 581.669 24.996 581.565 25.1C581.461 25.196 581.337 25.276 581.193 25.34C581.057 25.396 580.913 25.424 580.761 25.424C580.601 25.424 580.453 25.396 580.317 25.34C580.181 25.276 580.061 25.196 579.957 25.1C579.853 24.996 579.769 24.876 579.705 24.74C579.649 24.596 579.621 24.444 579.621 24.284C579.621 24.124 579.649 23.976 579.705 23.84C579.769 23.696 579.853 23.576 579.957 23.48C580.061 23.376 580.181 23.296 580.317 23.24C580.453 23.176 580.601 23.144 580.761 23.144C580.913 23.144 581.057 23.176 581.193 23.24C581.337 23.296 581.461 23.376 581.565 23.48C581.669 23.576 581.749 23.696 581.805 23.84C581.869 23.976 581.901 24.124 581.901 24.284Z" fill="white"/>
<path d="M586.753 32H585.241V26.048H586.753V26.936H586.969C587.105 26.6 587.325 26.34 587.629 26.156C587.933 25.972 588.289 25.88 588.697 25.88C588.985 25.88 589.253 25.928 589.501 26.024C589.757 26.112 589.981 26.252 590.173 26.444C590.365 26.636 590.513 26.88 590.617 27.176C590.729 27.472 590.785 27.824 590.785 28.232V32H589.273V28.616C589.273 28.192 589.169 27.86 588.961 27.62C588.761 27.372 588.469 27.248 588.085 27.248C587.637 27.248 587.301 27.4 587.077 27.704C586.861 28 586.753 28.4 586.753 28.904V32Z" fill="white"/>
<path d="M596.836 31.136H596.62C596.556 31.272 596.476 31.404 596.38 31.532C596.292 31.652 596.172 31.76 596.02 31.856C595.876 31.952 595.7 32.028 595.492 32.084C595.292 32.14 595.048 32.168 594.76 32.168C594.392 32.168 594.048 32.104 593.728 31.976C593.416 31.84 593.14 31.644 592.9 31.388C592.668 31.124 592.484 30.804 592.348 30.428C592.22 30.052 592.156 29.62 592.156 29.132V28.916C592.156 28.436 592.224 28.008 592.36 27.632C592.504 27.256 592.696 26.94 592.936 26.684C593.184 26.42 593.468 26.22 593.788 26.084C594.116 25.948 594.46 25.88 594.82 25.88C595.3 25.88 595.68 25.972 595.96 26.156C596.24 26.332 596.46 26.584 596.62 26.912H596.836V26.048H598.348V33.464C598.348 33.736 598.26 33.96 598.084 34.136C597.916 34.312 597.696 34.4 597.424 34.4H593.416V32.96H596.512C596.728 32.96 596.836 32.84 596.836 32.6V31.136ZM595.252 30.728C595.724 30.728 596.104 30.58 596.392 30.284C596.688 29.98 596.836 29.584 596.836 29.096V28.952C596.836 28.464 596.688 28.072 596.392 27.776C596.104 27.472 595.724 27.32 595.252 27.32C594.78 27.32 594.396 27.468 594.1 27.764C593.812 28.052 593.668 28.448 593.668 28.952V29.096C593.668 29.6 593.812 30 594.1 30.296C594.396 30.584 594.78 30.728 595.252 30.728Z" fill="white"/>
<path d="M520.312 52.4H518.8V44.048H520.312V44.912H520.528C520.688 44.584 520.92 44.332 521.224 44.156C521.528 43.972 521.916 43.88 522.388 43.88C522.74 43.88 523.072 43.948 523.384 44.084C523.704 44.22 523.98 44.42 524.212 44.684C524.452 44.94 524.64 45.256 524.776 45.632C524.92 46.008 524.992 46.436 524.992 46.916V47.132C524.992 47.62 524.924 48.052 524.788 48.428C524.652 48.804 524.468 49.124 524.236 49.388C524.004 49.644 523.728 49.84 523.408 49.976C523.096 50.104 522.756 50.168 522.388 50.168C522.116 50.168 521.88 50.14 521.68 50.084C521.48 50.028 521.304 49.952 521.152 49.856C521.008 49.76 520.884 49.652 520.78 49.532C520.684 49.404 520.6 49.272 520.528 49.136H520.312V52.4ZM521.896 48.728C522.368 48.728 522.748 48.584 523.036 48.296C523.332 48 523.48 47.6 523.48 47.096V46.952C523.48 46.448 523.332 46.052 523.036 45.764C522.748 45.468 522.368 45.32 521.896 45.32C521.424 45.32 521.04 45.472 520.744 45.776C520.456 46.072 520.312 46.464 520.312 46.952V47.096C520.312 47.584 520.456 47.98 520.744 48.284C521.04 48.58 521.424 48.728 521.896 48.728Z" fill="white"/>
<path d="M527.791 47.516C527.799 47.692 527.839 47.856 527.911 48.008C527.991 48.152 528.095 48.28 528.223 48.392C528.359 48.496 528.511 48.58 528.679 48.644C528.855 48.7 529.039 48.728 529.231 48.728C529.607 48.728 529.895 48.664 530.095 48.536C530.295 48.4 530.439 48.24 530.527 48.056L531.823 48.776C531.751 48.928 531.651 49.088 531.523 49.256C531.395 49.416 531.227 49.564 531.019 49.7C530.819 49.836 530.571 49.948 530.275 50.036C529.987 50.124 529.647 50.168 529.255 50.168C528.807 50.168 528.399 50.096 528.031 49.952C527.663 49.808 527.343 49.6 527.071 49.328C526.807 49.056 526.599 48.724 526.447 48.332C526.303 47.94 526.231 47.496 526.231 47V46.928C526.231 46.472 526.307 46.056 526.459 45.68C526.619 45.304 526.835 44.984 527.107 44.72C527.379 44.456 527.695 44.252 528.055 44.108C528.423 43.956 528.815 43.88 529.231 43.88C529.743 43.88 530.183 43.972 530.551 44.156C530.919 44.332 531.223 44.56 531.463 44.84C531.703 45.112 531.879 45.416 531.991 45.752C532.103 46.08 532.159 46.4 532.159 46.712V47.516H527.791ZM529.219 45.248C528.835 45.248 528.523 45.348 528.283 45.548C528.043 45.74 527.887 45.964 527.815 46.22H530.623C530.575 45.94 530.423 45.708 530.167 45.524C529.919 45.34 529.603 45.248 529.219 45.248Z" fill="white"/>
<path d="M533.519 44.048H536.039V44.912H536.255C536.367 44.584 536.555 44.332 536.819 44.156C537.091 43.972 537.415 43.88 537.791 43.88C538.383 43.88 538.859 44.068 539.219 44.444C539.579 44.812 539.759 45.376 539.759 46.136V46.4L538.199 46.544V46.376C538.199 46.048 538.115 45.788 537.947 45.596C537.779 45.396 537.527 45.296 537.191 45.296C536.855 45.296 536.591 45.412 536.399 45.644C536.207 45.876 536.111 46.208 536.111 46.64V48.56H537.479V50H533.375V48.56H534.599V45.488H533.519V44.048Z" fill="white"/>
<path d="M541.263 48.56H543.279V45.488H541.407V44.048H544.791V48.56H546.519V50H541.263V48.56ZM545.163 42.284C545.163 42.444 545.131 42.596 545.067 42.74C545.011 42.876 544.931 42.996 544.827 43.1C544.723 43.196 544.599 43.276 544.455 43.34C544.319 43.396 544.175 43.424 544.023 43.424C543.863 43.424 543.715 43.396 543.579 43.34C543.443 43.276 543.323 43.196 543.219 43.1C543.115 42.996 543.031 42.876 542.967 42.74C542.911 42.596 542.883 42.444 542.883 42.284C542.883 42.124 542.911 41.976 542.967 41.84C543.031 41.696 543.115 41.576 543.219 41.48C543.323 41.376 543.443 41.296 543.579 41.24C543.715 41.176 543.863 41.144 544.023 41.144C544.175 41.144 544.319 41.176 544.455 41.24C544.599 41.296 544.723 41.376 544.827 41.48C544.931 41.576 545.011 41.696 545.067 41.84C545.131 41.976 545.163 42.124 545.163 42.284Z" fill="white"/>
<path d="M554.334 47.096C554.334 47.592 554.25 48.032 554.082 48.416C553.914 48.792 553.686 49.112 553.398 49.376C553.11 49.632 552.778 49.828 552.402 49.964C552.034 50.1 551.646 50.168 551.238 50.168C550.83 50.168 550.438 50.1 550.062 49.964C549.694 49.828 549.366 49.632 549.078 49.376C548.79 49.112 548.562 48.792 548.394 48.416C548.226 48.032 548.142 47.592 548.142 47.096V46.952C548.142 46.464 548.226 46.032 548.394 45.656C548.562 45.272 548.79 44.948 549.078 44.684C549.366 44.42 549.694 44.22 550.062 44.084C550.438 43.948 550.83 43.88 551.238 43.88C551.646 43.88 552.034 43.948 552.402 44.084C552.778 44.22 553.11 44.42 553.398 44.684C553.686 44.948 553.914 45.272 554.082 45.656C554.25 46.032 554.334 46.464 554.334 46.952V47.096ZM551.238 48.728C551.454 48.728 551.658 48.692 551.85 48.62C552.042 48.548 552.21 48.444 552.354 48.308C552.498 48.172 552.61 48.008 552.69 47.816C552.778 47.616 552.822 47.392 552.822 47.144V46.904C552.822 46.656 552.778 46.436 552.69 46.244C552.61 46.044 552.498 45.876 552.354 45.74C552.21 45.604 552.042 45.5 551.85 45.428C551.658 45.356 551.454 45.32 551.238 45.32C551.022 45.32 550.818 45.356 550.626 45.428C550.434 45.5 550.266 45.604 550.122 45.74C549.978 45.876 549.862 46.044 549.774 46.244C549.694 46.436 549.654 46.656 549.654 46.904V47.144C549.654 47.392 549.694 47.616 549.774 47.816C549.862 48.008 549.978 48.172 550.122 48.308C550.266 48.444 550.434 48.548 550.626 48.62C550.818 48.692 551.022 48.728 551.238 48.728Z" fill="white"/>
<path d="M560.122 49.136H559.906C559.842 49.272 559.762 49.404 559.666 49.532C559.578 49.652 559.458 49.76 559.306 49.856C559.162 49.952 558.986 50.028 558.778 50.084C558.578 50.14 558.334 50.168 558.046 50.168C557.678 50.168 557.334 50.104 557.014 49.976C556.702 49.84 556.426 49.644 556.186 49.388C555.954 49.124 555.77 48.804 555.634 48.428C555.506 48.052 555.442 47.62 555.442 47.132V46.916C555.442 46.436 555.51 46.008 555.646 45.632C555.79 45.256 555.982 44.94 556.222 44.684C556.47 44.42 556.754 44.22 557.074 44.084C557.402 43.948 557.746 43.88 558.106 43.88C558.586 43.88 558.966 43.972 559.246 44.156C559.526 44.332 559.746 44.584 559.906 44.912H560.122V41.6H561.634V50H560.122V49.136ZM558.538 48.728C559.01 48.728 559.39 48.58 559.678 48.284C559.974 47.98 560.122 47.584 560.122 47.096V46.952C560.122 46.464 559.974 46.072 559.678 45.776C559.39 45.472 559.01 45.32 558.538 45.32C558.066 45.32 557.682 45.468 557.386 45.764C557.098 46.052 556.954 46.448 556.954 46.952V47.096C556.954 47.6 557.098 48 557.386 48.296C557.682 48.584 558.066 48.728 558.538 48.728Z" fill="white"/>
<path d="M571.877 47.516C571.885 47.692 571.925 47.856 571.997 48.008C572.077 48.152 572.181 48.28 572.309 48.392C572.445 48.496 572.597 48.58 572.765 48.644C572.941 48.7 573.125 48.728 573.317 48.728C573.693 48.728 573.981 48.664 574.181 48.536C574.381 48.4 574.525 48.24 574.613 48.056L575.909 48.776C575.837 48.928 575.737 49.088 575.609 49.256C575.481 49.416 575.313 49.564 575.105 49.7C574.905 49.836 574.657 49.948 574.361 50.036C574.073 50.124 573.733 50.168 573.341 50.168C572.893 50.168 572.485 50.096 572.117 49.952C571.749 49.808 571.429 49.6 571.157 49.328C570.893 49.056 570.685 48.724 570.533 48.332C570.389 47.94 570.317 47.496 570.317 47V46.928C570.317 46.472 570.393 46.056 570.545 45.68C570.705 45.304 570.921 44.984 571.193 44.72C571.465 44.456 571.781 44.252 572.141 44.108C572.509 43.956 572.901 43.88 573.317 43.88C573.829 43.88 574.269 43.972 574.637 44.156C575.005 44.332 575.309 44.56 575.549 44.84C575.789 45.112 575.965 45.416 576.077 45.752C576.189 46.08 576.245 46.4 576.245 46.712V47.516H571.877ZM573.305 45.248C572.921 45.248 572.609 45.348 572.369 45.548C572.129 45.74 571.973 45.964 571.901 46.22H574.709C574.661 45.94 574.509 45.708 574.253 45.524C574.005 45.34 573.689 45.248 573.305 45.248Z" fill="white"/>
<path d="M579.405 50H577.893V44.048H579.405V44.936H579.621C579.757 44.6 579.977 44.34 580.281 44.156C580.585 43.972 580.941 43.88 581.349 43.88C581.637 43.88 581.905 43.928 582.153 44.024C582.409 44.112 582.633 44.252 582.825 44.444C583.017 44.636 583.165 44.88 583.269 45.176C583.381 45.472 583.437 45.824 583.437 46.232V50H581.925V46.616C581.925 46.192 581.821 45.86 581.613 45.62C581.413 45.372 581.121 45.248 580.737 45.248C580.289 45.248 579.953 45.4 579.729 45.704C579.513 46 579.405 46.4 579.405 46.904V50Z" fill="white"/>
<path d="M589.513 49.136H589.297C589.233 49.272 589.153 49.404 589.057 49.532C588.969 49.652 588.849 49.76 588.697 49.856C588.553 49.952 588.377 50.028 588.169 50.084C587.969 50.14 587.725 50.168 587.437 50.168C587.069 50.168 586.725 50.104 586.405 49.976C586.093 49.84 585.817 49.644 585.577 49.388C585.345 49.124 585.161 48.804 585.025 48.428C584.897 48.052 584.833 47.62 584.833 47.132V46.916C584.833 46.436 584.901 46.008 585.037 45.632C585.181 45.256 585.373 44.94 585.613 44.684C585.861 44.42 586.145 44.22 586.465 44.084C586.793 43.948 587.137 43.88 587.497 43.88C587.977 43.88 588.357 43.972 588.637 44.156C588.917 44.332 589.137 44.584 589.297 44.912H589.513V41.6H591.025V50H589.513V49.136ZM587.929 48.728C588.401 48.728 588.781 48.58 589.069 48.284C589.365 47.98 589.513 47.584 589.513 47.096V46.952C589.513 46.464 589.365 46.072 589.069 45.776C588.781 45.472 588.401 45.32 587.929 45.32C587.457 45.32 587.073 45.468 586.777 45.764C586.489 46.052 586.345 46.448 586.345 46.952V47.096C586.345 47.6 586.489 48 586.777 48.296C587.073 48.584 587.457 48.728 587.929 48.728Z" fill="white"/>
<path d="M594.484 45.728C594.484 45.92 594.584 46.06 594.784 46.148C594.984 46.228 595.348 46.296 595.876 46.352C596.484 46.416 596.98 46.6 597.364 46.904C597.748 47.2 597.94 47.616 597.94 48.152V48.224C597.94 48.816 597.724 49.288 597.292 49.64C596.86 49.992 596.252 50.168 595.468 50.168C595.004 50.168 594.608 50.108 594.28 49.988C593.952 49.868 593.68 49.72 593.464 49.544C593.248 49.36 593.08 49.16 592.96 48.944C592.848 48.72 592.772 48.504 592.732 48.296L594.124 47.84C594.188 48.096 594.32 48.32 594.52 48.512C594.728 48.704 595.044 48.8 595.468 48.8C595.844 48.8 596.1 48.744 596.236 48.632C596.38 48.512 596.452 48.384 596.452 48.248C596.452 48.168 596.432 48.096 596.392 48.032C596.36 47.96 596.296 47.896 596.2 47.84C596.104 47.776 595.972 47.724 595.804 47.684C595.644 47.644 595.44 47.612 595.192 47.588C594.52 47.532 593.984 47.36 593.584 47.072C593.192 46.776 592.996 46.344 592.996 45.776V45.704C592.996 45.408 593.06 45.148 593.188 44.924C593.316 44.7 593.484 44.512 593.692 44.36C593.9 44.2 594.14 44.08 594.412 44C594.684 43.92 594.964 43.88 595.252 43.88C595.628 43.88 595.952 43.928 596.224 44.024C596.504 44.112 596.74 44.232 596.932 44.384C597.124 44.528 597.28 44.692 597.4 44.876C597.52 45.052 597.612 45.224 597.676 45.392L596.308 45.944C596.236 45.728 596.112 45.56 595.936 45.44C595.76 45.312 595.532 45.248 595.252 45.248C594.996 45.248 594.804 45.296 594.676 45.392C594.548 45.48 594.484 45.592 594.484 45.728Z" fill="white"/>
<path d="M517.692 192H516.108V189.48C516.108 189.288 516.056 189.132 515.952 189.012C515.856 188.892 515.692 188.832 515.46 188.832H513.636V192H512.052V183.6H515.268C515.7 183.6 516.08 183.66 516.408 183.78C516.736 183.9 517.008 184.068 517.224 184.284C517.448 184.492 517.616 184.736 517.728 185.016C517.848 185.296 517.908 185.596 517.908 185.916V186.204C517.908 186.548 517.816 186.872 517.632 187.176C517.448 187.472 517.164 187.7 516.78 187.86V188.076C517.06 188.108 517.28 188.216 517.44 188.4C517.608 188.584 517.692 188.816 517.692 189.096V192ZM513.636 187.32H515.148C515.532 187.32 515.824 187.232 516.024 187.056C516.224 186.872 516.324 186.616 516.324 186.288V186.144C516.324 185.864 516.224 185.624 516.024 185.424C515.824 185.216 515.532 185.112 515.148 185.112H513.636V187.32Z" fill="white"/>
<path d="M520.791 189.516C520.799 189.692 520.839 189.856 520.911 190.008C520.991 190.152 521.095 190.28 521.223 190.392C521.359 190.496 521.511 190.58 521.679 190.644C521.855 190.7 522.039 190.728 522.231 190.728C522.607 190.728 522.895 190.664 523.095 190.536C523.295 190.4 523.439 190.24 523.527 190.056L524.823 190.776C524.751 190.928 524.651 191.088 524.523 191.256C524.395 191.416 524.227 191.564 524.019 191.7C523.819 191.836 523.571 191.948 523.275 192.036C522.987 192.124 522.647 192.168 522.255 192.168C521.807 192.168 521.399 192.096 521.031 191.952C520.663 191.808 520.343 191.6 520.071 191.328C519.807 191.056 519.599 190.724 519.447 190.332C519.303 189.94 519.231 189.496 519.231 189V188.928C519.231 188.472 519.307 188.056 519.459 187.68C519.619 187.304 519.835 186.984 520.107 186.72C520.379 186.456 520.695 186.252 521.055 186.108C521.423 185.956 521.815 185.88 522.231 185.88C522.743 185.88 523.183 185.972 523.551 186.156C523.919 186.332 524.223 186.56 524.463 186.84C524.703 187.112 524.879 187.416 524.991 187.752C525.103 188.08 525.159 188.4 525.159 188.712V189.516H520.791ZM522.219 187.248C521.835 187.248 521.523 187.348 521.283 187.548C521.043 187.74 520.887 187.964 520.815 188.22H523.623C523.575 187.94 523.423 187.708 523.167 187.524C522.919 187.34 522.603 187.248 522.219 187.248Z" fill="white"/>
<path d="M526.639 186.048H528.403V183.6H529.915V186.048H532.063V187.488H529.915V190.2C529.915 190.44 530.023 190.56 530.239 190.56H531.847V192H529.327C529.055 192 528.831 191.912 528.655 191.736C528.487 191.56 528.403 191.336 528.403 191.064V187.488H526.639V186.048Z" fill="white"/>
<path d="M533.867 186.048H536.387V186.912H536.603C536.715 186.584 536.903 186.332 537.167 186.156C537.439 185.972 537.763 185.88 538.139 185.88C538.731 185.88 539.207 186.068 539.567 186.444C539.927 186.812 540.107 187.376 540.107 188.136V188.4L538.547 188.544V188.376C538.547 188.048 538.463 187.788 538.295 187.596C538.127 187.396 537.875 187.296 537.539 187.296C537.203 187.296 536.939 187.412 536.747 187.644C536.555 187.876 536.459 188.208 536.459 188.64V190.56H537.827V192H533.723V190.56H534.947V187.488H533.867V186.048Z" fill="white"/>
<path d="M547.334 189.096C547.334 189.592 547.25 190.032 547.082 190.416C546.914 190.792 546.686 191.112 546.398 191.376C546.11 191.632 545.778 191.828 545.402 191.964C545.034 192.1 544.646 192.168 544.238 192.168C543.83 192.168 543.438 192.1 543.062 191.964C542.694 191.828 542.366 191.632 542.078 191.376C541.79 191.112 541.562 190.792 541.394 190.416C541.226 190.032 541.142 189.592 541.142 189.096V188.952C541.142 188.464 541.226 188.032 541.394 187.656C541.562 187.272 541.79 186.948 542.078 186.684C542.366 186.42 542.694 186.22 543.062 186.084C543.438 185.948 543.83 185.88 544.238 185.88C544.646 185.88 545.034 185.948 545.402 186.084C545.778 186.22 546.11 186.42 546.398 186.684C546.686 186.948 546.914 187.272 547.082 187.656C547.25 188.032 547.334 188.464 547.334 188.952V189.096ZM544.238 190.728C544.454 190.728 544.658 190.692 544.85 190.62C545.042 190.548 545.21 190.444 545.354 190.308C545.498 190.172 545.61 190.008 545.69 189.816C545.778 189.616 545.822 189.392 545.822 189.144V188.904C545.822 188.656 545.778 188.436 545.69 188.244C545.61 188.044 545.498 187.876 545.354 187.74C545.21 187.604 545.042 187.5 544.85 187.428C544.658 187.356 544.454 187.32 544.238 187.32C544.022 187.32 543.818 187.356 543.626 187.428C543.434 187.5 543.266 187.604 543.122 187.74C542.978 187.876 542.862 188.044 542.774 188.244C542.694 188.436 542.654 188.656 542.654 188.904V189.144C542.654 189.392 542.694 189.616 542.774 189.816C542.862 190.008 542.978 190.172 543.122 190.308C543.266 190.444 543.434 190.548 543.626 190.62C543.818 190.692 544.022 190.728 544.238 190.728Z" fill="white"/>
<path d="M552.702 191.136C552.542 191.512 552.318 191.78 552.03 191.94C551.742 192.092 551.406 192.168 551.022 192.168C550.662 192.168 550.322 192.1 550.002 191.964C549.69 191.828 549.414 191.628 549.174 191.364C548.934 191.1 548.742 190.78 548.598 190.404C548.462 190.028 548.394 189.6 548.394 189.12V188.928C548.394 188.456 548.462 188.032 548.598 187.656C548.734 187.28 548.918 186.96 549.15 186.696C549.382 186.432 549.65 186.232 549.954 186.096C550.266 185.952 550.598 185.88 550.95 185.88C551.374 185.88 551.714 185.952 551.97 186.096C552.234 186.24 552.442 186.464 552.594 186.768H552.81V186.048H554.322V190.2C554.322 190.44 554.43 190.56 554.646 190.56H554.874V192H553.842C553.57 192 553.346 191.92 553.17 191.76C553.002 191.6 552.918 191.392 552.918 191.136H552.702ZM551.358 190.728C551.798 190.728 552.15 190.584 552.414 190.296C552.678 190 552.81 189.6 552.81 189.096V188.952C552.81 188.448 552.678 188.052 552.414 187.764C552.15 187.468 551.798 187.32 551.358 187.32C550.918 187.32 550.566 187.468 550.302 187.764C550.038 188.052 549.906 188.448 549.906 188.952V189.096C549.906 189.6 550.038 190 550.302 190.296C550.566 190.584 550.918 190.728 551.358 190.728Z" fill="white"/>
<path d="M562.006 189.816C561.87 190.52 561.546 191.088 561.034 191.52C560.53 191.952 559.854 192.168 559.006 192.168C558.566 192.168 558.154 192.1 557.77 191.964C557.394 191.828 557.066 191.632 556.786 191.376C556.506 191.12 556.286 190.804 556.126 190.428C555.966 190.052 555.886 189.624 555.886 189.144V189C555.886 188.52 555.966 188.088 556.126 187.704C556.286 187.32 556.506 186.992 556.786 186.72C557.074 186.448 557.406 186.24 557.782 186.096C558.166 185.952 558.574 185.88 559.006 185.88C559.838 185.88 560.51 186.096 561.022 186.528C561.542 186.96 561.87 187.528 562.006 188.232L560.518 188.616C560.47 188.264 560.318 187.96 560.062 187.704C559.806 187.448 559.446 187.32 558.982 187.32C558.766 187.32 558.562 187.36 558.37 187.44C558.178 187.52 558.01 187.636 557.866 187.788C557.722 187.932 557.606 188.112 557.518 188.328C557.438 188.536 557.398 188.772 557.398 189.036V189.108C557.398 189.372 557.438 189.608 557.518 189.816C557.606 190.016 557.722 190.184 557.866 190.32C558.01 190.456 558.178 190.56 558.37 190.632C558.562 190.696 558.766 190.728 558.982 190.728C559.446 190.728 559.798 190.612 560.038 190.38C560.286 190.148 560.446 189.836 560.518 189.444L562.006 189.816Z" fill="white"/>
<path d="M563.377 186.048H565.141V183.6H566.653V186.048H568.801V187.488H566.653V190.2C566.653 190.44 566.761 190.56 566.977 190.56H568.585V192H566.065C565.793 192 565.569 191.912 565.393 191.736C565.225 191.56 565.141 191.336 565.141 191.064V187.488H563.377V186.048Z" fill="white"/>
<path d="M571.001 190.56H573.017V187.488H571.145V186.048H574.529V190.56H576.257V192H571.001V190.56ZM574.901 184.284C574.901 184.444 574.869 184.596 574.805 184.74C574.749 184.876 574.669 184.996 574.565 185.1C574.461 185.196 574.337 185.276 574.193 185.34C574.057 185.396 573.913 185.424 573.761 185.424C573.601 185.424 573.453 185.396 573.317 185.34C573.181 185.276 573.061 185.196 572.957 185.1C572.853 184.996 572.769 184.876 572.705 184.74C572.649 184.596 572.621 184.444 572.621 184.284C572.621 184.124 572.649 183.976 572.705 183.84C572.769 183.696 572.853 183.576 572.957 183.48C573.061 183.376 573.181 183.296 573.317 183.24C573.453 183.176 573.601 183.144 573.761 183.144C573.913 183.144 574.057 183.176 574.193 183.24C574.337 183.296 574.461 183.376 574.565 183.48C574.669 183.576 574.749 183.696 574.805 183.84C574.869 183.976 574.901 184.124 574.901 184.284Z" fill="white"/>
<path d="M577.821 186.048H579.453L580.857 191.28H581.073L582.477 186.048H584.109L582.405 192H579.525L577.821 186.048Z" fill="white"/>
<path d="M586.92 189.516C586.928 189.692 586.968 189.856 587.04 190.008C587.12 190.152 587.224 190.28 587.352 190.392C587.488 190.496 587.64 190.58 587.808 190.644C587.984 190.7 588.168 190.728 588.36 190.728C588.736 190.728 589.024 190.664 589.224 190.536C589.424 190.4 589.568 190.24 589.656 190.056L590.952 190.776C590.88 190.928 590.78 191.088 590.652 191.256C590.524 191.416 590.356 191.564 590.148 191.7C589.948 191.836 589.7 191.948 589.404 192.036C589.116 192.124 588.776 192.168 588.384 192.168C587.936 192.168 587.528 192.096 587.16 191.952C586.792 191.808 586.472 191.6 586.2 191.328C585.936 191.056 585.728 190.724 585.576 190.332C585.432 189.94 585.36 189.496 585.36 189V188.928C585.36 188.472 585.436 188.056 585.588 187.68C585.748 187.304 585.964 186.984 586.236 186.72C586.508 186.456 586.824 186.252 587.184 186.108C587.552 185.956 587.944 185.88 588.36 185.88C588.872 185.88 589.312 185.972 589.68 186.156C590.048 186.332 590.352 186.56 590.592 186.84C590.832 187.112 591.008 187.416 591.12 187.752C591.232 188.08 591.288 188.4 591.288 188.712V189.516H586.92ZM588.348 187.248C587.964 187.248 587.652 187.348 587.412 187.548C587.172 187.74 587.016 187.964 586.944 188.22H589.752C589.704 187.94 589.552 187.708 589.296 187.524C589.048 187.34 588.732 187.248 588.348 187.248Z" fill="white"/>
<path d="M506.096 207.516C506.104 207.692 506.144 207.856 506.216 208.008C506.296 208.152 506.4 208.28 506.528 208.392C506.664 208.496 506.816 208.58 506.984 208.644C507.16 208.7 507.344 208.728 507.536 208.728C507.912 208.728 508.2 208.664 508.4 208.536C508.6 208.4 508.744 208.24 508.832 208.056L510.128 208.776C510.056 208.928 509.956 209.088 509.828 209.256C509.7 209.416 509.532 209.564 509.324 209.7C509.124 209.836 508.876 209.948 508.58 210.036C508.292 210.124 507.952 210.168 507.56 210.168C507.112 210.168 506.704 210.096 506.336 209.952C505.968 209.808 505.648 209.6 505.376 209.328C505.112 209.056 504.904 208.724 504.752 208.332C504.608 207.94 504.536 207.496 504.536 207V206.928C504.536 206.472 504.612 206.056 504.764 205.68C504.924 205.304 505.14 204.984 505.412 204.72C505.684 204.456 506 204.252 506.36 204.108C506.728 203.956 507.12 203.88 507.536 203.88C508.048 203.88 508.488 203.972 508.856 204.156C509.224 204.332 509.528 204.56 509.768 204.84C510.008 205.112 510.184 205.416 510.296 205.752C510.408 206.08 510.464 206.4 510.464 206.712V207.516H506.096ZM507.524 205.248C507.14 205.248 506.828 205.348 506.588 205.548C506.348 205.74 506.192 205.964 506.12 206.22H508.928C508.88 205.94 508.728 205.708 508.472 205.524C508.224 205.34 507.908 205.248 507.524 205.248Z" fill="white"/>
<path d="M513.624 210H512.112V204.048H513.624V204.936H513.84C513.976 204.6 514.196 204.34 514.5 204.156C514.804 203.972 515.16 203.88 515.568 203.88C515.856 203.88 516.124 203.928 516.372 204.024C516.628 204.112 516.852 204.252 517.044 204.444C517.236 204.636 517.384 204.88 517.488 205.176C517.6 205.472 517.656 205.824 517.656 206.232V210H516.144V206.616C516.144 206.192 516.04 205.86 515.832 205.62C515.632 205.372 515.34 205.248 514.956 205.248C514.508 205.248 514.172 205.4 513.948 205.704C513.732 206 513.624 206.4 513.624 206.904V210Z" fill="white"/>
<path d="M523.731 209.136H523.515C523.451 209.272 523.371 209.404 523.275 209.532C523.187 209.652 523.067 209.76 522.915 209.856C522.771 209.952 522.595 210.028 522.387 210.084C522.187 210.14 521.943 210.168 521.655 210.168C521.287 210.168 520.943 210.104 520.623 209.976C520.311 209.84 520.035 209.644 519.795 209.388C519.563 209.124 519.379 208.804 519.243 208.428C519.115 208.052 519.051 207.62 519.051 207.132V206.916C519.051 206.436 519.119 206.008 519.255 205.632C519.399 205.256 519.591 204.94 519.831 204.684C520.079 204.42 520.363 204.22 520.683 204.084C521.011 203.948 521.355 203.88 521.715 203.88C522.195 203.88 522.575 203.972 522.855 204.156C523.135 204.332 523.355 204.584 523.515 204.912H523.731V201.6H525.243V210H523.731V209.136ZM522.147 208.728C522.619 208.728 522.999 208.58 523.287 208.284C523.583 207.98 523.731 207.584 523.731 207.096V206.952C523.731 206.464 523.583 206.072 523.287 205.776C522.999 205.472 522.619 205.32 522.147 205.32C521.675 205.32 521.291 205.468 520.995 205.764C520.707 206.052 520.563 206.448 520.563 206.952V207.096C520.563 207.6 520.707 208 520.995 208.296C521.291 208.584 521.675 208.728 522.147 208.728Z" fill="white"/>
<path d="M526.915 208.56H528.931V205.488H527.059V204.048H530.443V208.56H532.171V210H526.915V208.56ZM530.815 202.284C530.815 202.444 530.783 202.596 530.719 202.74C530.663 202.876 530.583 202.996 530.479 203.1C530.375 203.196 530.251 203.276 530.107 203.34C529.971 203.396 529.827 203.424 529.675 203.424C529.515 203.424 529.367 203.396 529.231 203.34C529.095 203.276 528.975 203.196 528.871 203.1C528.767 202.996 528.683 202.876 528.619 202.74C528.563 202.596 528.535 202.444 528.535 202.284C528.535 202.124 528.563 201.976 528.619 201.84C528.683 201.696 528.767 201.576 528.871 201.48C528.975 201.376 529.095 201.296 529.231 201.24C529.367 201.176 529.515 201.144 529.675 201.144C529.827 201.144 529.971 201.176 530.107 201.24C530.251 201.296 530.375 201.376 530.479 201.48C530.583 201.576 530.663 201.696 530.719 201.84C530.783 201.976 530.815 202.124 530.815 202.284Z" fill="white"/>
<path d="M535.667 210H534.155V204.048H535.667V204.936H535.883C536.019 204.6 536.239 204.34 536.543 204.156C536.847 203.972 537.203 203.88 537.611 203.88C537.899 203.88 538.167 203.928 538.415 204.024C538.671 204.112 538.895 204.252 539.087 204.444C539.279 204.636 539.427 204.88 539.531 205.176C539.643 205.472 539.699 205.824 539.699 206.232V210H538.187V206.616C538.187 206.192 538.083 205.86 537.875 205.62C537.675 205.372 537.383 205.248 536.999 205.248C536.551 205.248 536.215 205.4 535.991 205.704C535.775 206 535.667 206.4 535.667 206.904V210Z" fill="white"/>
<path d="M545.75 209.136H545.534C545.47 209.272 545.39 209.404 545.294 209.532C545.206 209.652 545.086 209.76 544.934 209.856C544.79 209.952 544.614 210.028 544.406 210.084C544.206 210.14 543.962 210.168 543.674 210.168C543.306 210.168 542.962 210.104 542.642 209.976C542.33 209.84 542.054 209.644 541.814 209.388C541.582 209.124 541.398 208.804 541.262 208.428C541.134 208.052 541.07 207.62 541.07 207.132V206.916C541.07 206.436 541.138 206.008 541.274 205.632C541.418 205.256 541.61 204.94 541.85 204.684C542.098 204.42 542.382 204.22 542.702 204.084C543.03 203.948 543.374 203.88 543.734 203.88C544.214 203.88 544.594 203.972 544.874 204.156C545.154 204.332 545.374 204.584 545.534 204.912H545.75V204.048H547.262V211.464C547.262 211.736 547.174 211.96 546.998 212.136C546.83 212.312 546.61 212.4 546.338 212.4H542.33V210.96H545.426C545.642 210.96 545.75 210.84 545.75 210.6V209.136ZM544.166 208.728C544.638 208.728 545.018 208.58 545.306 208.284C545.602 207.98 545.75 207.584 545.75 207.096V206.952C545.75 206.464 545.602 206.072 545.306 205.776C545.018 205.472 544.638 205.32 544.166 205.32C543.694 205.32 543.31 205.468 543.014 205.764C542.726 206.052 542.582 206.448 542.582 206.952V207.096C542.582 207.6 542.726 208 543.014 208.296C543.31 208.584 543.694 208.728 544.166 208.728Z" fill="white"/>
<path d="M557.458 210H555.946V201.6H557.458V204.912H557.674C557.834 204.584 558.066 204.332 558.37 204.156C558.674 203.972 559.062 203.88 559.534 203.88C559.886 203.88 560.218 203.948 560.53 204.084C560.85 204.22 561.126 204.42 561.358 204.684C561.598 204.94 561.786 205.256 561.922 205.632C562.066 206.008 562.138 206.436 562.138 206.916V207.132C562.138 207.62 562.07 208.052 561.934 208.428C561.798 208.804 561.614 209.124 561.382 209.388C561.15 209.644 560.874 209.84 560.554 209.976C560.242 210.104 559.902 210.168 559.534 210.168C559.262 210.168 559.026 210.14 558.826 210.084C558.626 210.028 558.45 209.952 558.298 209.856C558.154 209.76 558.03 209.652 557.926 209.532C557.83 209.404 557.746 209.272 557.674 209.136H557.458V210ZM559.042 208.728C559.514 208.728 559.894 208.584 560.182 208.296C560.478 208 560.626 207.6 560.626 207.096V206.952C560.626 206.448 560.478 206.052 560.182 205.764C559.894 205.468 559.514 205.32 559.042 205.32C558.57 205.32 558.186 205.472 557.89 205.776C557.602 206.072 557.458 206.464 557.458 206.952V207.096C557.458 207.584 557.602 207.98 557.89 208.284C558.186 208.58 558.57 208.728 559.042 208.728Z" fill="white"/>
<path d="M563.509 208.56H565.597V203.04H563.581V201.6H567.109V208.56H569.053V210H563.509V208.56Z" fill="white"/>
<path d="M576.725 207.096C576.725 207.592 576.641 208.032 576.473 208.416C576.305 208.792 576.077 209.112 575.789 209.376C575.501 209.632 575.169 209.828 574.793 209.964C574.425 210.1 574.037 210.168 573.629 210.168C573.221 210.168 572.829 210.1 572.453 209.964C572.085 209.828 571.757 209.632 571.469 209.376C571.181 209.112 570.953 208.792 570.785 208.416C570.617 208.032 570.533 207.592 570.533 207.096V206.952C570.533 206.464 570.617 206.032 570.785 205.656C570.953 205.272 571.181 204.948 571.469 204.684C571.757 204.42 572.085 204.22 572.453 204.084C572.829 203.948 573.221 203.88 573.629 203.88C574.037 203.88 574.425 203.948 574.793 204.084C575.169 204.22 575.501 204.42 575.789 204.684C576.077 204.948 576.305 205.272 576.473 205.656C576.641 206.032 576.725 206.464 576.725 206.952V207.096ZM573.629 208.728C573.845 208.728 574.049 208.692 574.241 208.62C574.433 208.548 574.601 208.444 574.745 208.308C574.889 208.172 575.001 208.008 575.081 207.816C575.169 207.616 575.213 207.392 575.213 207.144V206.904C575.213 206.656 575.169 206.436 575.081 206.244C575.001 206.044 574.889 205.876 574.745 205.74C574.601 205.604 574.433 205.5 574.241 205.428C574.049 205.356 573.845 205.32 573.629 205.32C573.413 205.32 573.209 205.356 573.017 205.428C572.825 205.5 572.657 205.604 572.513 205.74C572.369 205.876 572.253 206.044 572.165 206.244C572.085 206.436 572.045 206.656 572.045 206.904V207.144C572.045 207.392 572.085 207.616 572.165 207.816C572.253 208.008 572.369 208.172 572.513 208.308C572.657 208.444 572.825 208.548 573.017 208.62C573.209 208.692 573.413 208.728 573.629 208.728Z" fill="white"/>
<path d="M584.049 207.816C583.913 208.52 583.589 209.088 583.077 209.52C582.573 209.952 581.897 210.168 581.049 210.168C580.609 210.168 580.197 210.1 579.813 209.964C579.437 209.828 579.109 209.632 578.829 209.376C578.549 209.12 578.329 208.804 578.169 208.428C578.009 208.052 577.929 207.624 577.929 207.144V207C577.929 206.52 578.009 206.088 578.169 205.704C578.329 205.32 578.549 204.992 578.829 204.72C579.117 204.448 579.449 204.24 579.825 204.096C580.209 203.952 580.617 203.88 581.049 203.88C581.881 203.88 582.553 204.096 583.065 204.528C583.585 204.96 583.913 205.528 584.049 206.232L582.561 206.616C582.513 206.264 582.361 205.96 582.105 205.704C581.849 205.448 581.489 205.32 581.025 205.32C580.809 205.32 580.605 205.36 580.413 205.44C580.221 205.52 580.053 205.636 579.909 205.788C579.765 205.932 579.649 206.112 579.561 206.328C579.481 206.536 579.441 206.772 579.441 207.036V207.108C579.441 207.372 579.481 207.608 579.561 207.816C579.649 208.016 579.765 208.184 579.909 208.32C580.053 208.456 580.221 208.56 580.413 208.632C580.605 208.696 580.809 208.728 581.025 208.728C581.489 208.728 581.841 208.612 582.081 208.38C582.329 208.148 582.489 207.836 582.561 207.444L584.049 207.816Z" fill="white"/>
<path d="M587.58 206.232H587.868L589.452 204.048H591.108V204.12L589.188 206.844V207.06L591.3 209.928V210H589.572L587.868 207.672H587.58V210H586.068V201.6H587.58V206.232Z" fill="white"/>
<path fill-rule="evenodd" clip-rule="evenodd" d="M590 152.924L590 137.076L589 137.076L589 152.924L590 152.924Z" fill="white"/>
<path fill-rule="evenodd" clip-rule="evenodd" d="M490.952 152.924L490.952 137.076L489.952 137.076L489.952 152.924L490.952 152.924Z" fill="white"/>
<path fill-rule="evenodd" clip-rule="evenodd" d="M590 151.933L489.962 151.933L489.962 152.933L590 152.933L590 151.933Z" fill="white"/>
<path fill-rule="evenodd" clip-rule="evenodd" d="M490.461 136.253L485.627 141.667L486.373 142.333L490.467 137.747L494.63 142.336L495.37 141.664L490.461 136.253Z" fill="white"/>
</svg>
