<?xml version="1.0" encoding="UTF-8"?>
<svg id="Layer_2" data-name="Layer 2" xmlns="http://www.w3.org/2000/svg" viewBox="0 0 810.24 829.57">
  <defs>
    <style>
      .cls-1 {
        fill: #55bf97;
      }

      .cls-2 {
        fill: #34a295;
      }

      .cls-3 {
        fill: #348376;
      }

      .cls-4 {
        fill: #2a3841;
      }

      .cls-5 {
        fill: #143f3c;
      }

      .cls-6 {
        fill: #597380;
      }
    </style>
  </defs>
  <g id="Layer_1-2" data-name="Layer 1">
    <g>
      <path class="cls-2" d="m607.64,302.7c-.01-10.71-.02-21.43-.03-32.14-.01-.32-.02-.63-.03-.95-.08-9.27-.16-18.54-.24-27.81-.07-.38-.14-.76-.21-1.14,0,0-.06-.07-.06-.07-.35-.42-.71-.84-1.06-1.26,1.27-.82,2.59-1.56,3.8-2.46,8.51-6.36,17.05-12.69,25.49-19.14,9.89-7.56,19.71-15.2,29.51-22.86,7.62-5.95,15.13-12.05,22.78-17.97,12.12-9.38,24.33-18.63,36.45-28.01,10.14-7.85,20.18-15.83,30.3-23.7,9.7-7.54,19.46-15.01,29.18-22.54,8.08-6.26,16.13-12.56,24.38-18.99.66,1.34,1.17,2.38,1.69,3.42.13,1.03.25,2.05.38,3.08-.76,1.16-1.91,2.23-2.21,3.5-3.96,16.56-7.79,33.14-11.67,49.71-3.77,16.09-7.5,32.2-11.37,48.27-3.2,13.27-6.67,26.47-9.84,39.75-2.51,10.52-4.71,21.11-7.13,31.65-3.51,15.34-7.08,30.67-10.65,46-4.09,17.58-8.18,35.15-12.33,52.72-5.1,21.55-10.22,43.09-15.42,64.61-4.61,19.06-9.39,38.08-14,57.14-3.66,15.14-7.22,30.31-10.76,45.48-2.51,10.77-4.82,21.59-7.38,32.34-2.66,11.17-5.59,22.27-8.24,33.45-2.07,8.73-3.81,17.53-5.85,26.27-2.98,12.78-6.06,25.54-9.17,38.29-1.41,5.78-2.98,11.53-4.48,17.29-3.82-3.87-7.72-7.66-11.44-11.62-5.96-6.35-11.8-12.81-17.68-19.23-10-10.92-20.01-21.82-29.95-32.79-.87-.96-1.25-2.36-1.85-3.55.08-.68.23-1.36.23-2.04-.03-25.54-.07-51.07-.13-76.61,0-1.08-.22-2.17-.33-3.25-.02-10.71-.03-21.42-.05-32.12-.01-.32-.03-.65-.04-.97-.17-13.48-.33-26.96-.5-40.45,0-3.02,0-6.05,0-9.07,0-1.66,0-3.32,0-4.98,0-2.75,0-5.5,0-8.24,0-1.39,0-2.77,0-4.16,0-1.92.01-3.84.02-5.77.09-13.24.18-26.47.27-39.71.21-.63.6-1.27.6-1.9.03-11.68.03-23.37-.02-35.05,0-.63-.42-1.25-.65-1.88-.08-12.67-.16-25.33-.23-38-.02-.85-.04-1.7-.06-2.55Z"/>
      <path class="cls-6" d="m669.46,676.63c1.5-5.76,3.07-11.51,4.48-17.29,3.11-12.75,6.19-25.51,9.17-38.29,2.04-8.74,3.78-17.54,5.85-26.27,2.65-11.17,5.59-22.28,8.24-33.45,2.56-10.76,4.87-21.57,7.38-32.34,3.54-15.17,7.09-30.34,10.76-45.48,4.61-19.06,9.39-38.08,14-57.14,5.2-21.52,10.32-43.07,15.42-64.61,4.16-17.56,8.24-35.14,12.33-52.72,3.57-15.33,7.14-30.66,10.65-46,2.41-10.54,4.61-21.13,7.13-31.65,3.17-13.28,6.64-26.48,9.84-39.75,3.87-16.07,7.6-32.17,11.37-48.27,3.88-16.57,7.71-33.16,11.67-49.71.3-1.27,1.45-2.34,2.21-3.5.1,1.36.29,2.73.29,4.1-.03,50.55-.05,101.11-.13,151.66-.17,100.55-.41,201.1-.56,301.65-.14,86.92-.19,173.84-.3,260.76,0,6.46-.15,12.92-.23,19.38-.45.08-.9.16-1.35.24-20.87-22.76-41.72-45.54-62.62-68.27-15.2-16.53-30.47-33-45.67-49.53-9.13-9.92-18.19-19.9-27.25-29.88-1-1.1-1.77-2.41-2.65-3.63Z"/>
      <path class="cls-1" d="m809.56,87.08c-.51-1.04-1.03-2.09-1.69-3.42-8.25,6.43-16.3,12.73-24.38,18.99-9.71,7.53-19.47,14.99-29.18,22.54-10.12,7.87-20.16,15.85-30.3,23.7-12.12,9.38-24.34,18.63-36.45,28.01-7.65,5.92-15.15,12.02-22.78,17.97-9.81,7.66-19.63,15.3-29.51,22.86-8.44,6.45-16.97,12.78-25.49,19.14-1.21.9-2.53,1.64-3.8,2.46-.16.51-.32,1.02-.48,1.52-5.33,4.02-10.64,8.06-15.99,12.04-5.72,4.26-11.62,8.29-17.21,12.72-7.19,5.72-14.03,11.88-21.24,17.58-9.4,7.44-19.06,14.55-28.5,21.94-3.57,2.79-6.72,6.11-10.26,8.95-13.92,11.16-27.89,22.26-41.89,33.32-17.61,13.92-35.29,27.76-52.9,41.67-8.98,7.09-17.89,14.28-26.84,21.42.08-1.46-.29-3.15.33-4.34,3.22-6.28,6.83-12.35,10.05-18.63,6.41-12.52,12.47-25.21,18.99-37.67,8.27-15.78,16.98-31.34,25.28-47.1,9.44-17.93,18.55-36.04,27.95-53.99,8.15-15.55,16.61-30.95,24.78-46.49,10.78-20.52,21.38-41.14,32.13-61.68,10.43-19.91,20.97-39.76,31.43-59.66,11.99-22.8,23.97-45.6,35.88-68.44,1.76-3.38,3.08-7,4.6-10.5,1.02-2.32,2.75-2.3,4.76-1.47,14.21,5.85,28.37,11.82,42.64,17.51,18.33,7.31,36.79,14.32,55.14,21.58,23.98,9.49,47.92,19.09,71.88,28.64,9.75,3.89,19.45,7.93,29.28,11.58,3.82,1.42,5.33,3.36,3.76,7.25Z"/>
      <path class="cls-6" d="m602.1,1.98c-1.52,3.51-2.83,7.12-4.6,10.5-11.9,22.84-23.89,45.64-35.88,68.44-10.46,19.89-21,39.75-31.43,59.66-10.75,20.54-21.35,41.16-32.13,61.68-8.17,15.54-16.62,30.94-24.78,46.49-9.41,17.95-18.52,36.06-27.95,53.99-8.3,15.77-17.01,31.32-25.28,47.1-6.53,12.45-12.59,25.15-18.99,37.67-3.21,6.28-6.82,12.36-10.05,18.63-.61,1.19-.24,2.88-.33,4.34-1.68,2.51-3.19,1.8-4.9-.09-10.65-11.68-21.3-23.35-32.04-34.93-6.71-7.24-13.68-14.24-20.39-21.48-12-12.93-23.86-26-35.89-38.9-2.12-2.27-.89-3.65.63-5.17,3.48-3.48,7-6.91,10.49-10.37,7.12-7.06,14.29-14.06,21.32-21.21,8.33-8.48,16.47-17.13,24.79-25.62,7.3-7.44,14.7-14.79,22.12-22.12,6.2-6.12,12.63-11.99,18.7-18.24,12.43-12.81,24.58-25.9,37.04-38.68,17.7-18.15,35.54-36.17,53.4-54.16,8.7-8.77,17.71-17.22,26.31-26.07,15.41-15.86,30.54-31.98,45.94-47.85,7.06-7.27,14.56-14.11,21.7-21.29,6.57-6.62,12.92-13.45,19.41-20.16.81-.83,1.85-1.45,2.78-2.16Z"/>
      <path class="cls-6" d="m.23,593.77c-.08-3.02-.22-6.04-.22-9.07C0,454.42,0,324.15,0,193.87v-5.63c.4-.36.79-.73,1.19-1.09.99,1.43,1.82,3,2.98,4.26,25.95,28.21,51.91,56.42,77.97,84.53,2.24,2.42,2.77,4.87,2.17,7.86-.75,1.16-1.84,2.23-2.2,3.51-2.49,9.05-4.76,18.15-7.22,27.21-3.32,12.25-6.83,24.45-10.1,36.71-2.66,9.97-5.02,20.01-7.63,30-3.21,12.26-6.57,24.48-9.8,36.74-2.56,9.72-4.93,19.5-7.54,29.2-1.48,5.52-3.46,10.91-4.9,16.44-3.24,12.41-6.19,24.9-9.43,37.31-1.61,6.18-3.85,12.2-5.38,18.4-3.27,13.23-6.09,26.58-9.42,39.8-2.45,9.74-5.39,19.36-8.19,29-.56,1.94-1.5,3.77-2.27,5.65Z"/>
      <path class="cls-6" d="m.19,103.83c.02-4.29,3.21-8.6,7.07-9.68,3.8-1.06,7.19-.28,9.6,3.17.23.34.53.63.81.93,19.13,20.71,38.24,41.43,57.38,62.13,21.76,23.54,43.55,47.05,65.31,70.6,9.62,10.4,19.18,20.85,28.79,31.27,29.82,32.32,59.65,64.63,89.46,96.96,11.38,12.34,22.72,24.72,34.06,37.1,15.36,16.75,30.66,33.56,46.08,50.25,15.69,16.99,31.53,33.84,47.25,50.79,13.48,14.53,26.92,29.09,40.32,43.69,10.27,11.2,20.38,22.54,30.69,33.71,14.97,16.22,30.09,32.29,45.06,48.5,13.13,14.23,26.08,28.62,39.21,42.85,13.03,14.12,26.17,28.14,39.29,42.18,2.96,3.16,3.86,6.57,1.82,10.54-2.01,3.9-6.17,6.44-10.21,5.27-2.45-.71-4.84-2.54-6.63-4.45-15.47-16.59-30.79-33.33-46.17-50.01-18.38-19.93-36.79-39.83-55.17-59.76-27.76-30.13-55.48-60.3-83.27-90.42-18.83-20.42-37.75-40.76-56.61-61.15-14.76-15.96-29.51-31.91-44.22-47.91-14.42-15.68-28.71-31.48-43.17-47.11-27.33-29.53-54.78-58.96-82.12-88.48-26.52-28.64-52.98-57.33-79.42-86.05-23.57-25.6-47.07-51.26-70.61-76.89-2.29-2.5-5.48-4.5-4.61-8.03Z"/>
      <path class="cls-6" d="m191.81,401.77c.95-1.07,1.89-2.14,2.9-3.28,27.45,29.55,54.56,58.74,82.14,88.44-5.35,4.27-10.32,8.29-15.35,12.23-17.94,14.08-35.96,28.08-53.84,42.23-21.91,17.34-43.71,34.82-65.59,52.21-19.4,15.43-38.84,30.81-58.28,46.2-.52.41-1.18.65-1.78.96.97-2.51,1.82-5.07,2.94-7.51,7.32-15.81,14.71-31.59,22.05-47.39,5.77-12.42,11.48-24.87,17.25-37.3,4.27-9.21,8.57-18.41,12.9-27.59,7.54-15.98,15.09-31.95,22.68-47.9,10.49-22.05,21.05-44.07,31.46-66.17.69-1.47.37-3.43.51-5.16Z"/>
      <path class="cls-1" d="m191.81,401.77c-.15,1.73.18,3.68-.51,5.16-10.41,22.09-20.97,44.11-31.46,66.17-7.59,15.95-15.14,31.92-22.68,47.9-4.33,9.18-8.62,18.38-12.9,27.59-5.77,12.43-11.48,24.87-17.25,37.3-7.34,15.8-14.73,31.57-22.05,47.39-1.13,2.43-1.97,5-2.94,7.51-1.6,2.34-3.29,1.08-4.98.14-20.94-11.66-41.88-23.31-62.82-34.96-4.03-2.24-8.17-4.31-12.06-6.78-1.02-.65-1.26-2.51-1.86-3.82,1.2-.53,2.65-.79,3.55-1.64,3.79-3.58,7.43-7.33,11.1-11.04,9.45-9.53,18.89-19.07,28.32-28.62,10.97-11.11,21.95-22.21,32.9-33.34,2.56-2.61,5.02-5.31,7.53-7.97,7.06-7.19,14.15-14.36,21.17-21.58,4.75-4.88,9.38-9.88,14.13-14.76,11.58-11.86,23.25-23.65,34.81-35.54,8.73-8.98,17.3-18.12,26-27.13,3.92-4.06,7.99-7.98,12-11.96Z"/>
      <path class="cls-2" d="m83.7,512.73c-2.51,2.66-4.97,5.37-7.53,7.97-10.95,11.13-21.92,22.24-32.9,33.34-9.43,9.55-18.87,19.08-28.32,28.62-3.67,3.71-7.31,7.45-11.1,11.04-.9.85-2.35,1.11-3.55,1.64-.02-.52-.05-1.05-.07-1.57.77-1.88,1.7-3.71,2.27-5.65,2.8-9.65,5.74-19.27,8.19-29,3.33-13.22,6.15-26.56,9.42-39.8,1.53-6.2,3.77-12.22,5.38-18.4,3.24-12.41,6.2-24.89,9.43-37.31,1.44-5.53,3.42-10.92,4.9-16.44,2.61-9.71,4.98-19.48,7.54-29.2,3.23-12.26,6.59-24.48,9.8-36.74,2.61-9.98,4.98-20.03,7.63-30,3.27-12.26,6.78-24.46,10.1-36.71,2.46-9.06,4.73-18.16,7.22-27.21.35-1.27,1.45-2.34,2.2-3.51-.19,21.47-.38,42.93-.57,64.39-.28,1.82-.81,3.64-.78,5.45.12,6.18.44,12.35.68,18.53-.01,5.23-.03,10.47-.04,15.7-.1.08-.28.18-.27.24.05.21.16.41.24.61-.13,21.89-.27,43.78-.4,65.67,0,.96.02,1.93.03,2.89-.08,16.83-.15,33.66-.23,50.49,0,.54-.01,1.07-.02,1.61,0,.56-.02,1.12-.03,1.68.26.56.51,1.12.77,1.68Z"/>
      <path class="cls-3" d="m607.93,343.24c.23.63.65,1.25.65,1.88.04,11.68.05,23.37.02,35.05,0,.63-.39,1.27-.6,1.9-.02-12.94-.04-25.89-.06-38.83Z"/>
      <path class="cls-3" d="m83.64,372.17c-.24-6.18-.56-12.35-.68-18.53-.03-1.81.5-3.63.78-5.45.07,2.45.13,4.9.2,7.36-.02.33-.04.66-.06,1-.08,5.21-.16,10.41-.25,15.62Z"/>
      <path class="cls-5" d="m607.71,444.93c0,3.02,0,6.05,0,9.07,0-3.02,0-6.05,0-9.07Z"/>
      <path class="cls-5" d="m607.71,431.7c0,2.75,0,5.5,0,8.24,0-2.75,0-5.5,0-8.24Z"/>
      <path class="cls-5" d="m607.73,421.78c0,1.92,0,3.85-.02,5.77,0-1.92,0-3.84.02-5.77Z"/>
      <path class="cls-4" d="m807.65,827.94c.45-.08.9-.16,1.35-.24-.19.62-.38,1.24-.57,1.86-.26-.54-.52-1.08-.78-1.62Z"/>
      <path class="cls-5" d="m607.64,302.7c.02.85.04,1.7.06,2.55-.02-.85-.04-1.7-.06-2.55Z"/>
      <path class="cls-5" d="m605.51,240.84c.16-.51.32-1.02.48-1.52.35.42.71.84,1.06,1.26-.52.09-1.03.17-1.55.26Z"/>
      <path class="cls-5" d="m82.93,511.06c0-.56.02-1.12.03-1.68,0,.56-.02,1.12-.03,1.68Z"/>
      <path class="cls-5" d="m83.89,356.55c.02-.33.04-.66.06-1,.06.23.16.46.17.7,0,.09-.15.2-.23.3Z"/>
      <path class="cls-3" d="m83.57,388.71c-.09-.2-.2-.4-.24-.61-.01-.06.18-.16.27-.24,0,.28-.02.56-.03.84Z"/>
      <path class="cls-5" d="m607.57,269.61c.01.32.02.63.03.95-.1-.22-.22-.43-.27-.66-.02-.08.15-.19.24-.29Z"/>
      <path class="cls-5" d="m607.12,240.65c.07.38.14.76.21,1.14-.07-.38-.14-.76-.21-1.14Z"/>
      <path class="cls-5" d="m608.21,494.44c.01.32.03.65.04.97-.08-.22-.19-.44-.24-.67-.02-.09.12-.2.19-.31Z"/>
    </g>
  </g>
</svg>