<?xml version="1.0" encoding="UTF-8"?>
<svg id="Layer_1" data-name="Layer 1" xmlns="http://www.w3.org/2000/svg" xmlns:xlink="http://www.w3.org/1999/xlink" viewBox="0 0 658 244">
  <defs>
    <style>
      .cls-1 {
        fill: #4eeed6;
      }

      .cls-2 {
        clip-path: url(#clippath);
      }

      .cls-3 {
        fill: none;
      }
    </style>
    <clipPath id="clippath">
      <rect class="cls-3" y=".21" width="658" height="243.58"/>
    </clipPath>
  </defs>
  <g class="cls-2">
    <g>
      <path class="cls-1" d="m582.85,19.96l-1.88-2.82-2.35-2.82.47-.47,2.82-1.88,4.23,6.11-3.29,1.88Z"/>
      <path class="cls-1" d="m350.37,243.79h-3.76v-7.52h3.76l3.76-.47.47,7.52-4.23.47Zm-69.98-.94l-3.76-.47h-3.76v-7.52h4.23l3.76.47-.47,7.52Zm-73.27-.94h-7.51v-7.52h7.51v7.52Zm-73.27,0h-7.51v-7.52h7.51v7.52Zm-73.74-.94l-3.76-.47-3.29-.47.47-7.52,4.23.47,3.76.47-1.41,7.52Zm359.76-5.64l-.94-7.52,3.76-.47,3.76-.94,1.88,7.52-3.76.94-4.7.47Zm-311.86-18.34l-1.88-7.52,3.76-.94,3.29-.94,2.35,7.05-3.76.94-3.76,1.41Zm382.31-3.76l-3.76-6.58,6.58-3.76,3.76,6.58-3.29,1.88-3.29,1.88Zm-311.39-14.58l-1.88-7.52,3.76-.94,3.29-.94,2.35,7.05-3.76,1.41-3.76.94Zm70.92-18.34l-1.88-7.05,3.76-.94,3.29-.94,2.35,7.05-3.76,1.41-3.76.47Zm71.39-17.87l-1.88-7.05,3.76-.94,3.29-.94,2.35,7.05-3.76.94-3.76.94Zm220.74-2.82l-7.04-2.82,1.41-3.29,3.29,1.41,3.29,1.41-.94,3.29Zm-149.82-14.58l-1.88-7.52,3.76-.94,3.29-.94,2.35,7.05-3.76,1.41-3.76.94Zm71.39-16.93l-1.88-7.05,7.52-1.88,1.88,7.05-7.52,1.88Zm92.52-41.38l-7.52-.47.47-4.23.47-3.76,7.51.94-.47,3.76-.47,3.76Z"/>
      <path class="cls-1" d="m534.48,110.71l-.94-7.52,3.76-.47,3.29-.94,1.88,7.52-4.23.94-3.76.47Z"/>
      <path class="cls-1" d="m570.64,61.34l-7.05-.94.47-4.23.47-3.29,7.51.94-.94,3.76-.47,3.76Z"/>
      <path class="cls-1" d="m362.11,228.74l-.47-7.52,3.76-.47.47,7.52-3.76.47Zm-67.63,0h-7.52v-7.52h7.52v7.52Zm-75.15-.47h-7.51v-7.52h7.51v7.52Zm-75.15,0h-7.51v-7.52h7.51v7.52Zm-75.15-.47h-4.23l-3.76-.47.47-7.52,3.76.47h3.76v7.52Zm368.22-11.28l-1.88-7.05,3.76-.94,3.76-.94,1.88,7.05-3.76.94-3.76.94Zm-359.29-7.52l-2.35-7.05,3.76-1.41,3.76-.94,1.41,7.52-3.29.94-3.29.94Zm430.68-16.93l-3.29-6.58,6.57-3.29,3.29,6.58-3.29,1.88-3.29,1.41Zm-358.35-2.82l-1.88-7.52,3.76-.94,3.29-.94,1.88,7.05-3.29,1.41-3.76.94Zm72.8-18.81l-1.88-7.52,3.76-.94,3.29-.94,1.88,7.05-3.76,1.41-3.29.94Zm72.33-18.34l-1.88-7.52,3.76-.94,3.29-.94,1.88,7.05-3.76.94-3.29,1.41Zm263.95-15.99l-7.04-2.35,2.35-7.05,7.04,2.35-2.35,7.05Zm-190.68-2.35l-1.88-7.05,3.76-.94,3.29-.94,1.88,7.05-3.76.94-3.29.94Z"/>
      <path class="cls-1" d="m441.02,115.89l-1.41-7.05,3.76-.94,3.29-.94,1.88,7.52-7.51,1.41Z"/>
      <path class="cls-1" d="m581.44,19.49l-6.57-3.76,1.88-2.82.94-3.29,7.04,2.35-.94,4.23-2.35,3.29Z"/>
      <path class="cls-1" d="m32.88,225.92h-7.51v-7.52h7.51v7.52Zm69.04-.94l-.47-7.52,4.23-.47h3.76v7.52h-3.76l-3.76.47Zm234.83,0h-4.23l-3.76-.47.47-7.52,3.76.47h3.76v7.52Zm-76.09-.94h-7.51v-7.52h7.51v7.52Zm-75.61,0h-7.51v-7.52h7.51v7.52Zm219.8-2.35l-.47-7.52,3.76-.47,3.76-.47.94,7.52-4.23.94h-3.76Zm-349.9-11.76l-2.35-7.05,3.76-1.41,3.76-.94,1.41,7.52-3.29.94-3.29.94Zm425.05-3.76l-2.35-7.05,3.29-.94,3.29-1.41,2.82,7.05-3.76,1.41-3.29.94Zm-351.78-15.99l-2.35-7.05,3.76-1.41,3.76-.94,1.41,7.52-3.29.47-3.29,1.41Zm73.27-19.75l-1.88-7.52,3.76-.94,3.29-.94,1.88,7.05-3.76.94-3.29,1.41Zm344.26-5.17l-6.11-4.23,2.35-3.29,2.35-2.82,5.64,4.7-2.35,2.82-1.88,2.82Zm-271-13.64l-1.88-7.52,3.76-.94,3.29-.94,1.88,7.05-3.76.94-3.29,1.41Zm73.74-18.34l-1.88-7.05,3.76-.94,3.29-.94,1.88,7.05-3.76.94-3.29.94Zm73.74-18.34l-1.88-7.05,3.76-.94,3.29-.94,1.88,7.05-3.76.94-3.29.94Zm73.74-17.87l-1.88-7.52,3.76-.94,3.29-.94,1.88,7.05-3.76.94-3.29,1.41Zm76.09-3.29l-7.52-.94.47-3.76.47-3.76,7.51.47-.47,4.23-.47,3.76Zm-2.35-14.11l-1.88-7.05,3.76-.94,3.29-.94,1.88,7.05-3.76.94-3.29.94Z"/>
      <path class="cls-1" d="m643.44,62.28l-1.88-7.05,3.76-.94,3.76-.94,1.41,7.05-3.29.94-3.76.94Z"/>
      <path class="cls-1" d="m581.91,41.12h-7.51v-4.7l.47-3.76,7.51,1.41-.47,3.29v3.76Z"/>
      <path class="cls-1" d="m76.09,220.75l-.47-7.52,4.23-.47h3.76v7.52h-3.76l-3.76.47Zm235.3,0l-3.76-.47h-3.76v-7.52h4.23l3.76.47-.47,7.52Zm69.51-.47l-.94-7.52,4.23-.47,3.76-.47.47,7.52-3.76.47-3.76.47Zm-377.14,0l-2.82-7.05,7.04-2.82,2.82,7.05-7.05,2.82Zm232.01-.94h-7.51v-7.52h7.51v7.52Zm-76.55,0h-7.51v-7.52h7.51v7.52Zm297.77-9.87l-2.35-7.05,3.76-1.41,3.76-.94,1.41,7.52-3.29.94-3.29.94Zm-380.43-10.82l-2.35-7.05,3.76-1.41,3.76-.94,1.41,7.52-3.29.94-3.29.94Zm451.82-17.87l-4.23-6.11,2.82-2.35,2.35,2.82,2.35,2.82-3.29,2.82Zm-378.08-1.88l-2.35-7.05,3.76-1.41,3.76-.94,1.41,7.52-3.29.94-3.29.94Zm73.27-19.28l-1.88-7.52,3.76-.94,3.29-.94,1.88,7.05-3.76.94-3.29,1.41Zm73.74-18.81l-1.41-7.52,3.76-.94,3.29-.94,1.88,7.05-3.76.94-3.76,1.41Zm73.74-18.81l-1.41-7.52,3.29-.94,3.29-.94,2.35,7.05-3.76,1.41-3.76.94Zm201.02-4.23l-7.05-2.35.94-3.29.94-3.29,7.52,1.41-.94,4.23-1.41,3.29Zm-126.81-14.11l-1.88-7.52,3.76-.94,3.29-.94,1.88,7.05-3.76.94-3.29,1.41Zm74.21-17.87l-1.41-7.52,3.29-.94,3.29-.94,2.35,7.05-3.76,1.41-3.76.94Z"/>
      <path class="cls-1" d="m593.66,68.39l-1.88-7.05,3.76-1.41,3.76-.94,1.41,7.52-3.29.94-3.76.94Z"/>
      <path class="cls-1" d="m592.72,79.21l-7.51-1.41.47-3.76.47-3.29,7.52.94-.47,3.76-.47,3.76Z"/>
      <path class="cls-1" d="m56.83,207.58l-.47-7.52,4.23-.47h3.76v7.52h-3.76l-3.76.47Zm302.93-1.41h-7.52v-7.52h7.52v7.52Zm-73.74,0h-7.52v-7.52h7.52v7.52Zm-73.74,0h-7.51v-7.52h7.51v7.52Zm-74.21,0h-7.51v-7.52h7.51v7.52Zm-127.28-3.76l-2.35-7.05,7.05-2.35,2.35,7.05-7.05,2.35Zm416.12-.94l-.94-7.52,7.51-.94.94,7.52-7.52.94Zm72.8-15.52l-2.35-7.05,7.05-2.35,2.35,7.05-7.05,2.35Zm-418-4.23l-2.35-7.05,3.76-.94,3.76-.94,1.88,7.05-3.29.94-3.76.94Zm70.92-19.28l-1.88-7.52,3.76-.94,3.29-.94,2.35,7.05-3.76.94-3.76,1.41Zm412.37-14.11l-6.11-4.23,2.35-3.29,2.35-2.82,5.64,5.17-2.35,2.82-1.88,2.35Zm-340.51-4.7l-1.88-7.05,3.76-.94,3.29-.94,2.35,7.05-3.76,1.41-3.76.47Zm71.39-18.81l-1.41-7.05,3.76-.94,3.29-.94,2.35,7.05-3.76,1.41-4.23.47Zm71.86-17.87l-1.88-7.52,3.76-.94,3.29-.94,2.35,7.05-3.76.94-3.76,1.41Zm71.86-17.87l-1.88-7.05,3.76-.94,3.29-.94,2.35,7.05-3.76.94-3.76.94Z"/>
      <path class="cls-1" d="m510.99,71.22l-1.88-7.05,7.05-1.88,2.35,7.05-7.51,1.88Z"/>
      <path class="cls-1" d="m594.13,98.02l-7.04-1.41.47-4.23,1.41-3.29,7.05,2.35-.94,3.29-.94,3.29Z"/>
      <path class="cls-1" d="m35.22,203.35h-7.51v-7.52h7.51v7.52Zm68.1-1.41l-.47-7.52,4.23-.47h3.76v7.52h-3.76l-3.76.47Zm233.42,0h-7.51v-7.52h7.51v7.52Zm-75.15-.47h-7.51v-7.52h7.51v7.52Zm-75.62,0h-7.51v-7.52h7.51v7.52Zm218.86-1.41l-.47-7.52,3.76-.47.47,7.52-3.76.47Zm75.15-10.35l-1.41-7.52,7.04-1.41,1.41,7.05-7.04,1.88Zm-442.42-.47l-2.35-7.05,3.76-.94,3.76-.94,1.88,7.05-7.05,1.88Zm72.8-20.22l-2.35-7.05,3.76-1.41,3.76-.94,1.41,7.52-3.29.94-3.29.94Zm441.01-7.52l-4.7-5.64,3.29-2.35,2.82-2.35,4.23,6.11-2.82,2.35-2.82,1.88Zm-368.22-12.23l-2.35-7.05,3.76-1.41,3.76-.94,1.41,7.52-3.29.94-3.29.94Zm72.8-19.28l-1.88-7.52,3.76-.94,3.29-.94,1.88,7.05-3.76.94-3.29,1.41Zm72.8-18.81l-1.88-7.05,3.76-.94,3.29-.94,1.88,7.05-3.76.94-3.29.94Zm73.27-18.34l-1.88-7.05,3.76-.94,3.29-.94,1.88,7.05-3.76.94-3.29.94Z"/>
      <path class="cls-1" d="m474.83,74.98l-1.88-7.52,3.76-.94,1.88,7.52-3.76.94Z"/>
      <path class="cls-1" d="m597.88,56.64v-4.23l.47-3.76,7.51,1.41-.47,3.29v3.29h-7.52Z"/>
      <path class="cls-1" d="m366.81,199.59l-.47-7.52,4.23-.47h3.76v7.52h-3.76l-3.76.47Zm-69.51-2.35h-7.52v-7.52h7.52v7.52Zm-76.56,0h-7.51v-7.52h7.51v7.52Zm-76.56,0h-7.51v-7.52h7.51v7.52Zm-77.02-.47h-7.51v-7.52h7.51v7.52Zm376.2-2.82l-.94-7.52,7.51-.94.94,7.52-7.51.94Zm-396.4-12.23l-2.35-7.05,3.76-.94,3.76-.94,1.88,7.05-7.05,1.88Zm472.01-5.64l-2.82-7.05,7.04-2.82,2.82,7.05-7.04,2.82Zm-398.28-15.05l-1.88-7.05,3.76-.94,3.76-.94,1.88,7.05-3.76.94-3.76.94Zm74.21-19.75l-1.88-7.05,3.76-.94,3.76-.94,1.88,7.52-3.76.94-3.76.47Zm387.94-9.87l-6.11-4.23,1.88-3.29,3.29,1.88,3.29,1.88-2.35,3.76Zm-313.74-9.4l-1.88-7.05,3.76-.94,3.76-.94,1.88,7.05-3.76.94-3.76.94Zm74.21-19.75l-1.41-7.52,3.29-.94,3.29-.94,2.35,7.05-3.76,1.41-3.76.94Zm74.21-18.81l-1.41-7.52,3.29-.94,3.29-.94,2.35,7.05-3.76,1.41-3.76.94Zm74.68-18.34l-1.41-7.52,3.29-.94,3.29-.94,2.35,7.05-3.76,1.41-3.76.94Zm74.21-18.34l-1.41-7.52,3.29-.94,3.29-.94,2.35,7.05-3.76,1.41-3.76.94Z"/>
      <path class="cls-1" d="m646.92,20.02l-7.22,2.07,2.06,7.23,7.23-2.07-2.06-7.23Z"/>
      <path class="cls-1" d="m608.22,75.92l-7.51-1.41,1.41-7.52,7.51,1.41-.94,3.76-.47,3.76Z"/>
      <path class="cls-1" d="m369.16,193h-7.52v-7.52h7.52v7.52Zm-73.74,0h-7.52v-7.52h7.52v7.52Zm-73.27,0h-7.51v-7.52h7.51v7.52Zm-73.74-.47h-7.51v-7.52h7.51v7.52Zm-73.27,0h-7.51v-7.52h7.51v7.52Zm360.23-2.82l-.94-7.52,7.52-.94.94,7.52-7.51.94Zm-398.28-9.4l-1.41-3.76-.94-3.76,3.76-.94,2.35,7.05-3.76,1.41Zm470.6-5.64l-1.88-7.05,3.29-.94,3.29-.94,2.35,7.05-3.76.94-3.29.94Zm-403.44-13.64l-2.35-7.05,3.76-1.41,3.76-.94,1.88,7.52-3.76.94-3.29.94Zm470.6-18.81l-5.17-5.17,5.17-5.17,5.17,5.17-5.17,5.17Zm-400.15-.47l-1.88-7.52,3.76-.94,3.29-.94,2.35,7.05-3.76,1.41-3.76.94Zm70.92-18.81l-1.41-7.52,3.76-.94,3.29-.94,2.35,7.05-3.76.94-4.23,1.41Zm71.39-18.81l-1.88-7.52,3.76-.94,3.29-.94,2.35,7.05-3.76.94-3.76,1.41Zm70.92-17.87l-1.88-7.52,3.76-.94,3.29-.94,2.35,7.05-3.76,1.41-3.76.94Zm71.39-18.34l-1.88-7.05,3.76-.94,3.29-.94,2.35,7.05-3.76.94-3.76.94Zm71.39-17.4l-1.88-7.05,3.76-.94,3.29-.94,2.35,7.05-3.76.94-3.76.94Z"/>
      <path class="cls-1" d="m602.11,33.13l-1.88-7.05,3.76-.94,3.29-.94,2.35,7.05-4.23.94-3.29.94Z"/>
      <path class="cls-1" d="m610.09,91.91l-7.51-1.41.94-4.23.94-3.29,7.04,2.35-.94,3.29-.47,3.29Z"/>
      <path class="cls-1" d="m348.49,188.77h-7.51v-7.52h7.51v7.52Zm-75.15-.47h-7.51v-7.52h7.51v7.52Zm-75.15,0h-7.51v-7.52h7.51v7.52Zm-74.68,0h-7.51v-7.52h7.51v7.52Zm-75.15-.47h-4.23l-3.76-.47.47-7.52,3.76.47h3.76v7.52Zm367.75-.47l-.47-7.52,3.76-.47.47,7.52-3.76.47Zm74.68-9.88l-.94-7.52,3.29-.47,3.29-.94,1.88,7.05-3.76.94-3.76.94Zm-432.56-7.99l-2.35-7.05,3.76-1.41,3.76-.94,1.88,7.52-3.29.94-3.76.94Zm503.95-17.4l-3.76-6.58,3.29-1.88,2.82-1.88,4.23,6.11-3.29,2.35-3.29,1.88Zm-431.62-2.82l-2.35-7.05,3.76-1.41,3.76-.94,1.41,7.52-3.29.94-3.29.94Zm72.33-19.75l-2.35-7.05,3.76-1.41,3.76-.94,1.41,7.52-3.29.94-3.29.94Zm72.33-19.28l-1.88-7.05,3.76-.94,3.29-.94,1.88,7.05-3.76.94-3.29.94Zm72.33-18.81l-1.88-7.52,3.76-.94,3.29-.94,1.88,7.05-3.76.94-3.29,1.41Zm72.8-18.81l-1.88-7.05,3.76-.94,3.29-.94,1.88,7.05-3.76.94-3.29.94Zm72.8-17.87l-1.88-7.05,3.76-.94,3.29-.94,1.88,7.05-3.76.94-3.29.94Z"/>
      <path class="cls-1" d="m565.95,36.89l-1.88-7.05,3.76-1.41,3.76-.94,1.88,7.52-3.76.94-3.76.94Z"/>
      <path class="cls-1" d="m615.12,45.69l-1.06,7.45,7.44,1.06,1.06-7.45-7.44-1.06Z"/>
      <path class="cls-1" d="m396.4,185.95h-7.51v-7.52h7.51v7.52Zm-364.93,0h-7.51v-7.52h7.51v7.52Zm66.22-1.41l-.47-7.52,4.23-.47h3.76v7.52h-3.76l-3.76.47Zm225.91-.47h-7.51v-7.52h7.51v7.52Zm-72.8,0h-7.51v-7.52h7.51v7.52Zm-73.27,0h-7.51v-7.52h7.51v7.52Zm284.62-3.76l-.47-7.52,3.76-.47,3.76-.47.94,7.52-4.23.47-3.76.47Zm-421.76-10.35l-1.41-3.76-.94-3.76,3.76-.94,2.35,7.05-3.76,1.41Zm493.62-6.11l-2.35-7.05,3.29-.94,3.29-1.41,2.82,7.05-3.76,1.41-3.29.94Zm-427.39-12.7l-2.35-7.05,3.76-.94,3.76-.94,1.88,7.52-3.76.94-3.29.47Zm69.98-19.75l-1.88-7.52,3.76-.94,3.29-.94,2.35,7.05-3.76.94-3.76,1.41Zm419.88-7.52l-5.64-4.7,2.35-2.82,2.35-2.82,6.11,4.7-2.35,3.29-2.82,2.35Zm-348.96-11.29l-1.88-7.52,3.76-.94,3.29-.94,2.35,7.05-3.76,1.41-3.76.94Zm70.45-18.34l-1.88-7.05,3.76-.94,3.29-.94,2.35,7.05-3.76.94-3.76.94Z"/>
      <path class="cls-1" d="m393.92,66.68l-7.29,1.84,1.84,7.29,7.28-1.84-1.84-7.29Z"/>
      <path class="cls-1" d="m625.12,70.27l-7.05-.94.94-7.52,7.52.94-.47,3.76-.94,3.76Z"/>
      <path class="cls-1" d="m63.87,180.78l-.47-7.52,4.23-.47h3.76v7.52h-3.76l-3.76.47Zm308.57-.94h-7.52v-7.52h7.52v7.52Zm-75.62,0h-7.52v-7.52h7.52v7.52Zm-75.15,0h-7.51v-7.52h7.51v7.52Zm-75.62,0h-7.51v-7.52h7.51v7.52Zm294.48-.94l-.47-7.52,3.76-.47,3.76-.47.94,7.52-4.23.94h-3.76Zm-437.73-.94l-2.82-6.58,7.04-2.82,2.82,7.05-7.04,2.35Zm511.93-13.17l-1.41-7.52,3.29-.94,3.29-.94,2.35,7.05-3.76,1.41-3.76.94Zm-440.55-8.93l-2.35-7.05,3.76-1.41,3.76-.94,1.41,7.52-3.29.94-3.29.94Zm511.46-20.22l-4.7-5.64,5.64-4.7,4.7,5.64-5.64,4.7Zm-438.67-.47l-2.35-7.05,3.76-1.41,3.76-.94,1.41,7.52-3.29.94-3.29.94Zm72.8-19.75l-2.35-7.05,3.76-1.41,3.76-.94,1.41,7.52-3.29.94-3.29.94Zm72.33-19.28l-1.88-7.05,3.76-.94,3.29-.94,1.88,7.05-3.29.94-3.76.94Z"/>
      <path class="cls-1" d="m364.93,77.33l-1.88-7.52,3.76-.94,1.88,7.52-3.76.94Z"/>
      <path class="cls-1" d="m639.68,49.58l-7.51-.94.94-3.76.47-3.76,7.04.94-.47,3.76-.47,3.76Z"/>
      <path class="cls-1" d="m409.08,172.31h-4.23l-3.76-.47.47-7.52,3.76.47h3.76v7.52Zm-72.8-.94h-7.51v-7.52h7.51v7.52Zm-72.33,0h-7.51v-7.52h7.51v7.52Zm-72.8,0h-7.51v-7.52h7.51v7.52Zm-72.8-.47h-7.51v-7.52h7.51v7.52Zm-72.8,0h-4.23l-3.76-.47.47-7.52,4.23.47h3.76l-.47,7.52Zm428.8-2.35l-.47-7.52,3.76-.47,3.76-.47.94,7.52-4.23.47-3.76.47Zm72.33-14.58l-2.82-7.05,3.76-1.41,3.76-.94,2.35,7.05-3.29.94-3.76,1.41Zm-489.39-1.88l-2.35-7.05,3.76-.94,3.76-.94,1.88,7.05-3.29.94-3.76.94Zm69.98-20.22l-2.35-7.05,3.76-.94,3.76-.94,1.88,7.05-3.76.94-3.29.94Zm483.29-14.58l-5.64-5.17,5.17-5.64,5.64,5.17-5.17,5.64Zm-413.77-5.17l-1.88-7.52,3.29-.94,3.29-.94,2.35,7.05-3.76,1.41-3.29.94Zm70.45-18.81l-1.88-7.52,3.76-.94,3.29-.94,2.35,7.05-3.76,1.41-3.76.94Zm69.98-18.81l-1.88-7.05,3.76-.94,3.29-.94,2.35,7.05-3.76,1.41-3.76.47Zm70.45-17.87l-1.88-7.05,3.29-.94,3.29-.94,2.35,7.05-3.76,1.41-3.29.47Z"/>
      <path class="cls-1" d="m478.12,38.3l-1.41-7.52,3.76-.47.47,3.76.94,3.29v.47l-3.76.47Z"/>
      <path class="cls-1" d="m643.44,64.16l-7.52-2.35.94-3.29.94-3.29,7.04.94-.47,4.23-.94,3.76Z"/>
      <path class="cls-1" d="m388.41,168.08l-7.51-.47.47-7.52,7.51.47-.47,7.52Zm-74.68-.94h-7.51v-7.52h7.51v7.52Zm-75.15,0h-7.51v-7.52h7.51v7.52Zm-75.15-.47h-7.51v-7.52h7.51v7.52Zm-74.68,0h-7.51v-7.52h7.51v7.52Zm367.28,0l-.47-7.52,3.76-.47.47,7.52-3.76.47Zm-435.38-6.11l-3.29-6.58,3.76-1.88,3.29-1.41,2.82,7.05-3.29,1.41-3.29,1.41Zm510.52-4.7l-1.88-7.05,3.76-.94,3.76-.94,1.88,7.52-3.76.94-3.76.47Zm-440.08-17.87l-1.88-7.05,3.76-.94,3.76-.94,1.88,7.52h-3.76l-3.76,1.41Zm510.06-11.29l-4.7-5.64,3.29-2.35,2.82-2.35,4.23,6.11-2.82,2.35-2.82,1.88Zm-437.73-9.4l-2.35-7.05,3.76-1.41,4.23-.47,1.41,7.52-3.29.94-3.76.47Zm72.33-19.75l-2.35-7.05,3.76-1.41,3.76-.94,1.41,7.52-3.29.94-3.29.94Zm72.33-19.28l-2.35-7.05,3.76-1.41,3.76-.94,1.41,7.52-3.29.94-3.29.94Zm72.33-19.28l-1.88-7.05,3.76-.94,3.29-.94,1.88,7.05-3.76.94-3.29.94Z"/>
      <path class="cls-1" d="m453.7,40.18l-2.35-7.05,7.51-1.88,1.88,7.05-7.04,1.88Z"/>
      <path class="cls-1" d="m645.32,76.39l-7.04-2.82,1.41-3.29.94-3.29,7.04,2.35-.94,3.76-1.41,3.29Z"/>
      <path class="cls-1" d="m387.47,162.91h-7.51v-7.52h7.51v7.52Zm-72.8,0h-7.51v-7.52h7.51v7.52Zm141.84,0h-3.76v-7.52h3.76l3.76-.47.47,7.52-4.23.47Zm-214.17,0h-7.51v-7.52h7.51v7.52Zm-72.8-.47h-7.51v-7.05h7.51v7.05Zm-72.8,0h-7.51v-7.52h7.51v7.52Zm-73.74-.94l-3.29-.94-3.76-.94,1.88-7.05,3.76.94,3.76.94-2.35,7.05Zm502.07-8.46l-.94-7.52,3.76-.47,3.76-.94,1.88,7.05-3.76.94-4.7.94Zm-444.77-15.99l-2.35-7.05,3.76-.94,3.76-.94,1.88,7.05-3.76.94-3.29.94Zm514.75-6.58l-3.29-6.58,3.29-1.41,2.82-1.88,4.23,6.11-3.29,2.35-3.76,1.41Zm-444.77-13.64l-2.35-7.05,3.76-.94,3.76-.94,1.88,7.05-3.76.94-3.29.94Zm69.51-19.75l-1.88-7.05,3.29-.94,3.29-.94,2.35,7.05-3.76,1.41-3.29.47Zm69.98-18.81l-1.88-7.52,3.29-.94,3.29-.94,2.35,7.05-3.76,1.41-3.29.94Zm70.45-18.81l-1.88-7.52,3.29-.94,3.29-.94,2.35,7.05-3.76,1.41-3.29.94Z"/>
      <path class="cls-1" d="m430.68,41.59l-2.35-7.05,7.51-2.35,1.88,7.05-7.04,2.35Z"/>
      <path class="cls-1" d="m647.67,99.43l-5.17-5.17,2.82-2.82,3.29-2.35,4.23,6.11-2.82,1.88-2.35,2.35Z"/>
      <path class="cls-1" d="m430.21,146.45h-7.51v-7.52h7.51v7.52Zm-77.02,0h-7.51v-7.52h7.51v7.52Zm-77.49-.47h-7.51v-7.52h7.51v7.52Zm-77.02,0h-7.51v-7.52h7.51v7.52Zm-77.03,0h-7.51v-7.52h7.51v7.52Zm-77.49-.47l-3.76-.47h-3.29v-7.52h4.23l3.76.47-.94,7.52Zm456.04,0l-.47-7.52,7.51-.47.47,7.52-7.52.47Zm76.56-12.23l-1.88-7.52,3.76-.94,3.76-.94,1.88,7.05-3.76.94-3.76,1.41Zm-496.91-11.29l-2.35-7.05,3.76-.94,3.29-.94,1.88,7.05-6.58,1.88Zm77.49-23.04l-.94-3.76-1.41-3.29,3.76-.94,2.35,7.05-3.76.94Zm70.45-19.75l-1.88-7.05,3.76-.94,3.76-.94,1.88,7.52-3.76.94-3.76.47Zm74.21-20.69l-1.88-7.05,3.76-.94,3.76-.94,1.88,7.52-3.76.94-3.76.47Z"/>
      <path class="cls-1" d="m376.67,38.3l-1.88-7.52,3.76-.47,1.41,7.05-3.29.94Z"/>
      <path class="cls-1" d="m642.5,105.54l-4.7-6.11,3.76-2.35,2.82-1.88,4.23,6.58-3.29,1.88-2.82,1.88Z"/>
      <path class="cls-1" d="m496.43,142.69l-.47-7.52,3.76-.47.47,7.52-3.76.47Zm-67.63-.47h-7.51v-7.52h7.51v7.52Zm-74.68,0h-7.52v-7.52h7.52v7.52Zm-75.15,0h-7.51v-7.52h7.51v7.52Zm-74.68,0h-7.51v-7.52h7.51v7.52Zm-75.15-.47h-7.51v-7.52h7.51v7.52Zm-74.68,0h-4.23l-3.76-.47.47-7.52,3.76.47h3.76v7.52Zm516.63-8.93l-1.41-7.52,7.04-1.41,1.41,7.05-7.04,1.88Zm-498.31-12.23l-2.35-7.05,7.04-2.35,2.35,7.05-7.04,2.35Zm71.86-21.63l-2.35-7.05,7.04-2.35,2.35,7.05-7.04,2.35Zm71.86-20.69l-2.35-7.05,3.76-1.41,3.76-.94,1.41,7.52-3.29.94-3.29.94Zm72.33-20.22l-2.35-7.05,3.76-1.41,3.76-.94,1.88,7.99-3.29.94-3.76.47Z"/>
      <path class="cls-1" d="m361.17,38.3l-1.88-7.05,3.29-.94,1.88,7.05-3.29.94Z"/>
      <path class="cls-1" d="m634.99,110.24l-2.35-7.05,2.82-1.41,3.29-1.88,3.76,6.58-3.76,2.35-3.76,1.41Z"/>
      <path class="cls-1" d="m496.43,138.93h-3.76v-7.52h3.76l3.76-.47.47,7.52-4.23.47Zm-69.04-.47h-7.51v-7.52h7.51v7.52Zm-72.8-.47h-7.51v-7.52h7.51v7.52Zm-72.8,0h-7.51v-7.52h7.51v7.52Zm-72.8,0h-7.51v-7.52h7.51v7.52Zm-72.33,0h-7.51v-7.52h7.04l.47,7.52Zm-72.8-.47h-4.23l-3.76-.47.47-7.52,3.76.47h3.76v7.52Zm501.6-5.64l-1.88-7.05,3.76-.94,3.76-.47.94,7.52-3.76.47-2.82.47Zm-494.09-13.64l-1.41-3.76-.94-3.76,3.76-.94,2.35,7.05-3.76,1.41Zm65.75-20.22l-2.35-7.05,3.76-.94,3.76-.94,1.88,7.05-3.76.94-3.29.94Zm69.98-20.69l-2.35-7.05,3.76-.94,3.76-.94,1.88,7.05-3.76.94-3.29.94Zm69.98-19.75l-2.35-7.05,3.76-.94,3.76-.94,1.88,7.05-3.76.94-3.29.94Z"/>
      <path class="cls-1" d="m347.08,38.3l-1.88-7.05,7.04-1.88,1.88,7.05-7.05,1.88Z"/>
      <path class="cls-1" d="m557.96,107.42h-7.51v7.52h7.51v-7.52Z"/>
      <path class="cls-1" d="m90.65,115.42l-.47-7.52,4.23-.47h3.76v7.52h-4.23l-3.29.47Zm390.76-.94h-7.51v-7.52h7.51v7.52Zm-77.02,0h-7.51v-7.52h7.51v7.52Zm-76.56,0h-7.51v-7.52h7.51v7.52Zm-76.55,0h-7.51v-7.52h7.51v7.52Zm-77.02-.47h-7.51v-7.52h7.51v7.52Zm-98.63-12.7l-2.82-7.05,7.04-2.82,2.82,7.05-7.05,2.82Zm72.33-24.92l-2.35-7.05,3.29-.94,3.29-1.41,2.35,7.05-2.82,1.41-3.76.94Z"/>
      <path class="cls-1" d="m221.68,54.29l-2.82-7.05,4.23-1.41,3.76-.94,1.41,7.52-3.29.47-3.29,1.41Z"/>
      <path class="cls-1" d="m557.49,103.66h-7.51v7.52h7.51v-7.52Z"/>
      <path class="cls-1" d="m100.98,111.65l-.47-7.52,4.23-.47h3.29v7.52h-3.76l-3.29.47Zm381.84-.94h-7.51v-7.52h7.51v7.52Zm-75.15,0h-7.52v-7.52h7.52v7.52Zm-74.68,0h-7.51v-7.52h7.51v7.52Zm-75.15,0h-7.52v-7.52h7.52v7.52Zm-74.68-.47h-7.51v-7.52h7.51v7.52Zm-103.33-12.23l-1.88-3.76-1.41-3.29,3.29-1.41,2.82,7.05-2.82,1.41Zm66.69-23.51l-2.35-7.05,3.29-.94,3.29-1.41,2.82,7.05-3.76,1.41-3.29.94Z"/>
      <path class="cls-1" d="m217.92,52.41l-1.88-7.52,3.29-.94,3.29-.94,2.82,7.05-4.23,1.41-3.29.94Z"/>
      <path class="cls-1" d="m601.17,106.48h-4.23v-7.52h3.29l3.76-.47.94,7.05-3.76.94Z"/>
      <path class="cls-1" d="m526.49,106.95h-7.52v-7.52h7.52v7.52Zm-77.97,0h-7.51v-7.52h7.51v7.52Zm-77.96,0h-7.52v-7.52h7.52v7.52Zm-77.96,0h-7.52v-7.52h7.52v7.52Zm-77.97-.47h-7.51v-7.52h7.51v7.52Zm-77.96,0h-7.51v-7.52h7.51v7.52Zm-59.65-8.93l-3.29-6.58,3.76-1.88,3.29-1.41,2.82,7.05-3.29,1.41-3.29,1.41Zm72.8-26.33l-1.88-7.05,3.29-.94,3.29-1.41,2.82,7.05-3.76,1.41-3.76.94Zm77.96-24.45l-.94-3.76-1.41-3.29,3.76-.94,2.35,7.05-3.76.94Z"/>
      <path class="cls-1" d="m298.71,25.6l-1.88-7.05,3.29-.94,3.29-1.41,2.82,7.05-3.76,1.41-3.76.94Z"/>
      <path class="cls-1" d="m599.29,96.14h-7.52v7.52h7.52v-7.52Z"/>
      <path class="cls-1" d="m523.68,103.19h-7.52v-7.52h7.52v7.52Zm-75.62,0h-7.51v-7.52h7.51v7.52Zm-75.62,0h-7.52v-7.52h7.52v7.52Zm-75.62,0h-7.52v-7.52h7.52v7.52Zm-75.62-.47h-7.51v-7.52h7.51v7.52Zm-75.62,0h-7.51v-7.52h7.51v7.52Zm-66.69-7.05l-2.82-6.58,3.29-1.41,3.29-1.41,2.82,7.05-6.58,2.35Zm69.98-26.33l-2.35-7.05,3.76-.94,3.29-1.41,2.82,7.05-3.76,1.41-3.76.94Zm72.33-23.04l-2.35-7.05,3.76-.94,3.76-.94,1.88,7.05-7.04,1.88Z"/>
      <path class="cls-1" d="m293.54,24.66l-2.35-7.05,3.76-.94,3.29-1.41,2.35,7.05-3.76,1.41-3.29.94Z"/>
      <path class="cls-1" d="m570.17,92.38h-7.51v7.52h7.51v-7.52Z"/>
      <path class="cls-1" d="m131.98,99.9l-.47-7.52,4.23-.47h3.76v7.52h-3.76l-3.76.47Zm366.34-.47h-7.51v-7.52h7.51v7.52Zm-71.86,0h-7.51v-7.52h7.51v7.52Zm-71.86,0h-7.51v-7.52h7.51v7.52Zm-71.86,0h-7.51v-7.52h7.51v7.52Zm-71.86-.47h-7.51v-7.52h7.51v7.52Zm-126.34-6.58l-3.29-6.58,3.29-1.88,3.29-1.41,3.29,6.58-6.58,3.29Zm66.69-25.39l-2.35-7.05,3.29-.94,3.29-1.41,2.82,7.05-3.76,1.41-3.29.94Z"/>
      <path class="cls-1" d="m219.8,44.88l-2.82-7.05,3.76-1.41,3.76-.94,1.88,7.05-6.58,2.35Z"/>
      <path class="cls-1" d="m650.12,86.09l-7.37,1.48,1.47,7.38,7.37-1.48-1.47-7.38Z"/>
      <path class="cls-1" d="m580.04,96.14h-4.23l-3.76-.47.47-7.52,3.76.47h3.76v7.52Zm-434.44,0l-.47-7.52,4.23-.47h3.76v7.52h-3.76l-3.76.47Zm363.05,0h-7.52v-7.52h7.52v7.52Zm-70.92-.47h-7.51v-7.52h7.51v7.52Zm-71.39,0h-7.51v-7.52h7.51v7.52Zm-70.92,0h-7.52v-7.52h7.52v7.52Zm-71.39,0h-7.51v-7.52h7.51v7.52Zm-137.61-3.29l-4.23-6.11,6.11-4.23,4.23,6.11-6.11,4.23Zm64.81-27.27l-2.35-7.05,3.29-.94,3.29-1.41,2.82,7.05-3.29,1.41-3.76.94Z"/>
      <path class="cls-1" d="m218.86,43l-2.35-7.05,3.76-1.41,3.29-.94,2.35,7.05-7.04,2.35Z"/>
      <path class="cls-1" d="m613.85,84.85h-7.52v7.52h7.52v-7.52Z"/>
      <path class="cls-1" d="m541.05,92.38h-7.51v-7.52h7.51v7.52Zm-72.33,0h-7.52v-7.52h7.52v7.52Zm-72.33-.47h-7.51v-7.52h7.51v7.52Zm-72.8,0h-7.51v-7.52h7.51v7.52Zm-72.33,0h-7.51v-7.52h7.51v7.52Zm-72.8,0h-7.51v-7.52h7.51v7.52Zm-72.8-.94l-7.51-1.41.94-7.52,7.51.94-.94,7.99Zm47.91-27.74l-2.35-7.05,3.29-.94,3.29-1.41,2.82,7.05-3.76,1.41-3.29.94Zm72.33-24.45l-1.41-3.76-.94-3.76,3.76-.94,2.35,7.52-3.76.94Z"/>
      <path class="cls-1" d="m296.77,9.28l-7.29,1.83,1.82,7.3,7.29-1.83-1.82-7.3Z"/>
      <path class="cls-1" d="m655.65,81.56h-7.51v7.52h7.51v-7.52Z"/>
      <path class="cls-1" d="m118.83,89.08h-4.23l-3.76-.47.47-7.52,3.76.47h3.76v7.52Zm460.27-.47h-7.52v-7.52h7.52v7.52Zm-76.55,0h-7.51v-7.52h7.51v7.52Zm-77.02,0h-7.51v-7.52h7.51v7.52Zm-76.56,0h-7.51v-7.52h7.51v7.52Zm-76.55-.47h-7.52v-7.52h7.52v7.52Zm-76.56,0h-7.51v-7.52h7.51v7.52Zm-42.74-25.86l-2.82-7.05,3.76-1.41,3.76-.94,2.35,7.05-3.29.94-3.76,1.41Z"/>
      <path class="cls-1" d="m225.44,37.36l-1.88-7.52,3.29-.94,3.29-.94,2.82,7.05-4.23,1.41-3.29.94Z"/>
      <path class="cls-1" d="m658,77.8h-7.52v7.52h7.52v-7.52Z"/>
      <path class="cls-1" d="m132.45,85.79h-7.51v-7.52h7.51v7.52Zm450.41-.47h-7.52v-7.52h7.52v7.52Zm-75.15-.47h-7.52v-7.52h7.52v7.52Zm-75.15,0h-7.51v-7.52h7.51v7.52Zm-75.15,0h-7.52v-7.52h7.52v7.52Zm-74.68,0h-7.51v-7.52h7.51v7.52Zm-75.15-.47h-7.51v-7.52h7.51v7.52Zm-51.66-23.98l-2.82-7.05,3.76-1.41,3.76-.94,2.35,7.05-3.29.94-3.76,1.41Z"/>
      <path class="cls-1" d="m227.32,35.95l-3.29-7.05,4.23-1.88,3.29-.94,2.35,7.05-3.29.94-3.29,1.88Z"/>
      <path class="cls-1" d="m632.17,74.04h-7.52v7.52h7.52v-7.52Z"/>
      <path class="cls-1" d="m555.14,81.56h-7.51v-7.52h7.51v7.52Zm-77.49,0h-7.51v-7.52h7.51v7.52Zm-77.49,0h-7.51v-7.52h7.51v7.52Zm-77.49-.47h-7.51v-7.52h7.51v7.52Zm-77.02,0h-7.51v-7.52h7.51v7.52Zm-77.49,0h-7.51v-7.52h7.51v7.52Zm-19.73-18.34l-2.82-7.05,3.29-1.41,3.29-1.41,3.29,6.58-3.29,1.88-3.76,1.41Zm72.8-26.33l-2.82-7.05,3.76-1.41,3.76-.94,1.88,7.05-3.29.94-3.29,1.41Z"/>
      <path class="cls-1" d="m297.77,11.03l-.94-3.76-.94-3.29.94,3.29-.94-3.29h.47l3.29-.94,1.88,7.05-3.76.94Z"/>
      <path class="cls-1" d="m606.81,70.75h-7.52v7.52h7.52v-7.52Z"/>
      <path class="cls-1" d="m159.22,78.74h-7.51v-7.52h7.51v7.52Zm372.91-.47h-7.52v-7.52h7.52v7.52Zm-74.21-.47h-7.52v-7.52h7.52v7.52Zm-74.68,0h-7.51v-7.52h7.51v7.52Zm-74.68,0h-7.52v-7.52h7.52v7.52Zm-74.68,0h-7.51v-7.52h7.51v7.52Zm-63.87-23.98l-1.41-3.29-1.41-3.29,3.29-1.41,2.82,7.05-3.29.94Z"/>
      <path class="cls-1" d="m235.77,29.84l-1.41-7.52,3.29-.47.94,3.29,1.41,3.76h-.47l-3.76.94Z"/>
      <path class="cls-1" d="m611.5,67.45h-7.52v7.52h7.52v-7.52Z"/>
      <path class="cls-1" d="m173.31,74.98h-7.51v-7.52h7.51v7.52Zm365.4-.47h-7.51v-7.52h7.51v7.52Zm-73.27,0h-7.51v-7.52h7.51v7.52Zm-72.8,0h-7.52v-7.52h7.52v7.52Zm-73.27,0h-7.52v-7.52h7.52v7.52Zm-72.8-.47h-7.51v-7.52h7.51v7.52Zm-75.62-20.69l-2.82-7.05,3.76-1.41,3.29-1.41,2.82,7.05-7.05,2.82Z"/>
      <path class="cls-1" d="m239.06,27.95l-2.35-7.05,3.76-.94,2.35,7.05-3.76.94Z"/>
      <path class="cls-1" d="m654.71,64.16h-7.51v7.52h7.51v-7.52Z"/>
      <path class="cls-1" d="m584.73,71.22h-7.51v-7.52h7.51v7.52Zm-69.98,0h-7.51v-7.52h7.51v7.52Zm-69.51,0h-7.52v-7.52h7.52v7.52Zm-69.98,0h-7.51v-7.52h7.51v7.52Zm-69.98-.47h-7.52v-7.52h7.52v7.52Zm-69.98,0h-7.51v-7.52h7.51v7.52Zm-70.45-.47l-7.51-.47.47-7.52,7.51.47-.47,7.52Z"/>
      <path class="cls-1" d="m203.98,32.39l-6.97,2.8,2.8,6.98,6.97-2.8-2.8-6.98Z"/>
      <path class="cls-1" d="m631.23,60.4h-7.51v7.52h7.51v-7.52Z"/>
      <path class="cls-1" d="m193.5,68.39l-.47-7.52,4.23-.47h3.76v7.52h-3.76l-3.76.47Zm365.87-.47h-7.51v-7.52h7.51v7.52Zm-71.86,0h-7.51v-7.52h7.51v7.52Zm-71.39-.47h-7.51v-7.52h7.51v7.52Zm-71.86,0h-7.51v-7.52h7.51v7.52Zm-71.86,0h-7.52v-7.52h7.52v7.52Zm-87.36-18.34l-2.82-7.05,3.29-1.41,3.29-1.41,3.29,6.58-3.76,1.41-3.29,1.88Z"/>
      <path class="cls-1" d="m251.74,22.78l-2.35-7.05,3.29-.94,2.35,7.05-3.29.94Z"/>
      <path class="cls-1" d="m607.75,57.11h-7.51v7.52h7.51v-7.52Z"/>
      <path class="cls-1" d="m538.24,64.63h-7.52v-7.52h7.52v7.52Zm-69.51,0h-7.52v-7.52h7.52v7.52Zm-69.04-.47h-7.51v-7.52h7.51v7.52Zm-69.51,0h-7.51v-7.52h7.51v7.52Zm-69.51,0h-7.51v-7.52h7.51v7.52Zm-69.51-.47l-3.76-.47h-3.76v-7.52h4.23l3.76.47-.47,7.52Z"/>
      <path class="cls-1" d="m219.96,26.79l-6.97,2.8,2.8,6.98,6.97-2.8-2.8-6.98Z"/>
      <path class="cls-1" d="m652.36,53.82h-7.51v7.52h7.51v-7.52Z"/>
      <path class="cls-1" d="m222.15,61.81l-.47-7.52,4.23-.47h3.76v7.52h-3.76l-3.76.47Zm359.76-.47h-7.51v-7.52h7.51v7.52Zm-70.45,0h-7.51v-7.52h7.51v7.52Zm-70.45,0h-7.51v-7.52h7.51v7.52Zm-70.45-.47h-7.52v-7.52h7.52v7.52Zm-70.45,0h-7.51v-7.52h7.51v7.52Zm-99.1-16.46l-3.29-6.58,3.29-1.88,3.29-1.41,3.29,6.58-6.57,3.29Z"/>
      <path class="cls-1" d="m265.36,17.61l-1.88-7.52,3.76-.47.94,3.29.94,3.76h-.47l-3.29.94Z"/>
      <path class="cls-1" d="m591.78,50.53h-7.51v7.52h7.51v-7.52Z"/>
      <path class="cls-1" d="m238.12,58.52l-.47-7.52,4.23-.47h3.76v7.52h-3.76l-3.76.47Zm284.62-.47h-7.51v-7.52h7.51v7.52Zm-69.51,0h-7.52v-7.52h7.52v7.52Zm-69.04-.47h-7.51v-7.52h7.51v7.52Zm-69.51,0h-7.51v-7.52h7.51v7.52Zm-106.14-14.58l-3.29-6.58,3.29-1.88,3.29-1.41,3.29,6.58-6.57,3.29Z"/>
      <path class="cls-1" d="m276.27,6.73l-7.13,2.38,2.38,7.14,7.13-2.38-2.38-7.14Z"/>
      <path class="cls-1" d="m637.8,47.7h-7.51v7.52h7.51v-7.52Z"/>
      <path class="cls-1" d="m559.37,54.76h-7.52v-7.52h7.52v7.52Zm-78.9,0h-7.51v-7.52h7.51v7.52Zm-78.43,0h-7.51v-7.52h7.51v7.52Zm-78.9-.47h-7.51v-7.05h7.51v7.05Zm-78.43,0h-4.23l-3.76-.47.47-7.52,3.76.47h3.76v7.52Z"/>
      <path class="cls-1" d="m242.35,28.89l-2.82-7.05,3.29-.94,2.82-1.88,3.76,6.11-3.76,2.35-3.29,1.41Z"/>
      <path class="cls-1" d="m616.2,44.41h-7.51v7.52h7.51v-7.52Z"/>
      <path class="cls-1" d="m291.66,51.94l-.47-7.52,4.23-.47h3.76v7.52h-3.76l-3.76.47Zm245.17,0h-7.52v-7.52h7.52v7.52Zm-79.37-.47h-7.51v-7.52h7.51v7.52Zm-79.37,0h-7.51v-7.52h7.51v7.52Zm-156.87-4.7l-6.11-4.23,1.88-2.82,1.88-3.29,6.57,3.76-1.88,3.76-2.35,2.82Z"/>
      <path class="cls-1" d="m288.37,11.03l-2.35-7.05,3.29-.94,3.29-1.41,3.29,6.58-3.76,1.88-3.76.94Z"/>
      <path class="cls-1" d="m594.12,41.12h-7.51v7.52h7.51v-7.52Z"/>
      <path class="cls-1" d="m514.75,48.64h-7.51v-7.52h7.51v7.52Zm-79.37,0h-7.51v-7.52h7.51v7.52Zm-79.84-.47h-7.52v-7.52h7.52v7.52Zm-79.37,0h-7.51v-7.52h7.51v7.52Z"/>
      <path class="cls-1" d="m263.01,23.72l-2.82-7.05,3.29-1.41,2.82-1.41,3.76,6.11-3.76,2.35-3.29,1.41Z"/>
      <path class="cls-1" d="m642.03,38.3h-7.51v7.52h7.51v-7.52Z"/>
      <path class="cls-1" d="m309.98,45.82l-.47-7.52,3.76-.47h3.76v7.52h-3.76l-3.29.47Zm250.8,0h-7.52v-7.52h7.52v7.52Zm-81.25-.47h-7.52v-7.52h7.52v7.52Zm-81.25,0h-7.51v-7.52h7.51v7.52Z"/>
      <path class="cls-1" d="m253.15,33.13l-3.76-6.58,2.82-1.41,2.82-2.35,4.7,5.64-3.29,2.82-3.29,1.88Z"/>
      <path class="cls-1" d="m621.37,35.01h-7.52v7.52h7.52v-7.52Z"/>
      <path class="cls-1" d="m542.93,42.53h-7.51v-7.52h7.51v7.52Zm-78.43,0h-7.51v-7.52h7.51v7.52Zm-78.9,0h-7.52v-7.52h7.52v7.52Zm-78.43-.47h-7.52v-7.52h7.52v7.52Z"/>
      <path class="cls-1" d="m285.09,18.55l-2.35-7.05,3.29-.94,2.82-1.88,3.76,6.58-3.29,1.88-4.23,1.41Z"/>
      <path class="cls-1" d="m600.7,32.19h-7.51v7.52h7.51v-7.52Z"/>
      <path class="cls-1" d="m342.86,39.71l-.47-7.52,4.23-.47h3.76v7.52h-3.76l-3.76.47Zm174.24,0h-7.51v-7.52h7.51v7.52Zm-83.6-.47h-7.52v-7.05h7.52v7.05Z"/>
      <path class="cls-1" d="m280.86,17.36l-5.31,5.32,5.31,5.32,5.31-5.32-5.31-5.32Z"/>
      <path class="cls-1" d="m650.02,29.37h-7.52v7.52h7.52v-7.52Z"/>
      <path class="cls-1" d="m572.52,36.89h-7.51v-7.52h7.51v7.52Zm-77.49,0h-7.52v-7.52h7.52v7.52Zm-77.49-.47h-7.52v-7.52h7.52v7.52Zm-77.5,0h-7.51v-7.52h7.51v7.52Z"/>
      <path class="cls-1" d="m309.98,13.85l-2.82-7.05,3.29-.94,2.82-1.88,3.76,6.11-3.76,2.35-3.29,1.41Z"/>
      <path class="cls-1" d="m597.88,26.54h-7.52v7.52h7.52v-7.52Z"/>
      <path class="cls-1" d="m518.04,34.07h-7.51v-7.52h7.51v7.52Zm-79.84-.47h-7.51v-7.52h7.51v7.52Zm-79.37,0h-7.52v-7.52h7.52v7.52Z"/>
      <path class="cls-1" d="m324.07,11.5l-3.29-6.58,6.57-3.76,3.29,6.58-6.58,3.76Z"/>
      <path class="cls-1" d="m649.08,23.72h-7.52v7.52h7.52v-7.52Z"/>
      <path class="cls-1" d="m391.23,31.25l-.47-7.52h7.98v7.52h-7.51Zm174.25,0h-7.52v-7.52h7.52v7.52Zm-83.13-.47h-7.51v-7.05h7.51v7.05Z"/>
      <path class="cls-1" d="m323.52,9.67l-5.31,5.32,5.31,5.32,5.31-5.32-5.31-5.32Z"/>
      <path class="cls-1" d="m629.82,20.9h-7.52v7.52h7.52v-7.52Z"/>
      <path class="cls-1" d="m557.49,28.42h-7.51v-7.52h7.51v7.52Zm-71.86,0h-7.51v-7.52h7.51v7.52Zm-72.33-.47h-7.51v-7.05h7.51v7.05Z"/>
      <path class="cls-1" d="m338.33,14.84l-6.01,4.52,4.51,6.02,6.01-4.52-4.51-6.02Z"/>
      <path class="cls-1" d="m610.56,18.08h-7.51v7.52h7.51v-7.52Z"/>
      <path class="cls-1" d="m414.71,26.07h-7.51v-7.52h7.51v7.52Zm130.57-.47h-7.51v-7.52h7.51v7.52Zm-65.28,0h-7.52v-7.52h7.52v7.52Z"/>
      <path class="cls-1" d="m356.01,15.26l-6.11-4.23,1.88-3.29,2.35-2.82,6.11,4.7-2.35,2.82-1.88,2.82Z"/>
      <path class="cls-1" d="m629.82,15.73h-7.52v7.52h7.52v-7.52Z"/>
      <path class="cls-1" d="m432.56,23.25h-7.52v-7.52h7.52v7.52Zm131.51,0h-7.52v-7.52h7.52v7.52Zm-65.75-.47h-7.51v-7.52h7.51v7.52Z"/>
      <path class="cls-1" d="m372.91,12.91l-6.58-3.29,1.88-3.76,1.88-3.29,6.57,4.23-2.35,2.82-1.41,3.29Z"/>
      <path class="cls-1" d="m611.03,12.91h-7.52v7.52h7.52v-7.52Z"/>
      <path class="cls-1" d="m538.71,20.43h-7.51v-7.52h7.51v7.52Zm-72.8,0h-7.51v-7.52h7.51v7.52Z"/>
      <path class="cls-1" d="m392.17,17.61l-3.76-1.88-3.29-1.88,4.23-6.11,2.82,1.88,3.29,1.41-3.29,6.58Z"/>
      <path class="cls-1" d="m591.78,10.56h-7.51v7.52h7.51v-7.52Z"/>
      <path class="cls-1" d="m510.99,10.56h-7.51v7.52h7.51v-7.52Z"/>
      <path class="cls-1" d="m429.74,10.09h-7.52v7.52h7.52v-7.52Z"/>
      <path class="cls-1" d="m612.44,8.2h-7.52v7.52h7.52v-7.52Z"/>
      <path class="cls-1" d="m531.19,7.73h-7.51v7.52h7.51v-7.52Z"/>
      <path class="cls-1" d="m449.94,7.73h-7.51v7.52h7.51v-7.52Z"/>
      <path class="cls-1" d="m593.66,5.85h-7.52v7.52h7.52v-7.52Z"/>
      <path class="cls-1" d="m522.27,5.38h-7.51v7.52h7.51v-7.52Z"/>
      <path class="cls-1" d="m449.47,10.56l-3.76-1.41-3.29-1.88,3.29-6.58,3.29,1.88,3.29.94-2.82,7.05Z"/>
      <path class="cls-1" d="m596.94,1.15h-7.51v7.52h7.51V1.15Z"/>
      <path class="cls-1" d="m555.61,1.15h-7.51v7.52h7.51V1.15Z"/>
      <path class="cls-1" d="m513.81,8.2h-4.23l-3.76-.47,1.41-7.52,3.29.47h3.29v7.52Z"/>
      <path class="cls-1" d="m332.52,240.5c-14.09,0-27.24-.47-39.45-1.41-11.27-.47-21.6-.94-31.94-.94H106.14c-33.82,0-53.07-.47-53.54-4.23-.94-3.29,6.11-7.99,58.24-21.63,96.75-25.39,260.66-66.77,429.74-106.74h.47v.94h-.47c-169.08,39.97-332.99,81.35-429.74,106.74-38.98,10.35-58.24,16.93-57.77,20.22.47,3.76,25.83,3.76,53.07,3.76h154.99c10.8,0,21.14.47,31.94.94,35.23,1.88,75.62,3.76,140.43-9.87,88.3-18.81,107.55-60.66,115.07-99.22,2.35-11.28,3.29-22.57,4.23-33.39,3.29-31.04,6.11-60.19,30.06-79.47l.47-.47.47.47h-.47c-23.48,19.28-26.3,47.96-29.59,79-.94,10.82-2.35,22.57-4.23,33.39-7.52,39.03-27.24,81.35-116.01,100.16-41.8,9.4-73.74,11.76-100.98,11.76Z"/>
      <path class="cls-1" d="m359.76,224.51l-266.77-.47c-33.35,0-52.6-.47-53.07-4.23-.47-2.35,4.7-6.58,46.03-17.4,73.27-19.75,206.65-54.55,360.7-91.69h.47v.94h-.47c-154.05,37.62-286.96,71.95-360.23,91.7-30.53,8.46-46.03,14.11-45.56,16.93.47,3.76,25.83,3.76,52.13,3.76l266.3.47c38.51,0,153.58-24.92,180.35-57.37,22.07-26.8,24.89-59.25,27.71-90.75.47-6.58.94-13.17,1.88-19.28v-.47h.94v.47c-.94,6.11-1.41,13.17-1.88,19.28-2.82,31.51-5.64,64.42-28.18,91.22-26.3,32.45-141.37,56.9-180.35,56.9Z"/>
      <path class="cls-1" d="m35.22,222.16c-17.85,0-25.83-.47-25.83-1.88,0-.47.47-.94,1.41-1.41,15.5-6.11,105.2-30.09,217.92-59.25,69.51-17.87,197.73-50.31,344.26-85.11,0-1.88.47-3.29.47-5.17,1.41-20.22,2.82-39.03,9.39-55.96v-.47l.47.47v.47c-6.58,16.46-7.98,35.74-9.39,55.49,0,1.41-.47,3.29-.47,4.7,24.89-5.64,49.78-11.76,75.62-17.4h.47v.94h-.47c-25.36,6.11-50.72,11.76-75.62,17.87-1.41,15.52-2.82,31.04-7.05,46.55-5.64,20.69-15.5,37.15-30.06,50.79-17.85,16.46-42.74,28.21-76.09,36.21-57.77,14.11-103.8,12.7-141.37,11.76-8.45,0-15.97-.47-23.48-.47h-129.63c-15.03,0-37.1.47-60.59.94-31.94.47-54.48.94-69.98.94Zm-25.36-1.88c2.35,2.35,53.54.94,94.87,0,23.48-.47,45.56-.94,60.59-.94h129.63c7.51,0,15.03,0,23.48.47,37.1.94,83.13,2.35,140.9-11.76,33.35-7.99,57.77-19.75,75.62-36.21,14.56-13.17,24.42-29.62,30.06-50.31,4.23-15.05,5.64-30.57,7.05-46.08-146.07,34.33-274.75,66.77-343.79,84.64-112.72,29.15-202.43,53.61-217.92,59.25,0,.47-.47.47-.47.94Z"/>
      <path class="cls-1" d="m344.26,217.93c-12.21,0-22.07-.47-31.47-.94-9.39-.47-18.32-.94-28.65-.94h-126.34c-14.56,0-36.16.47-58.71.94-64.34.94-91.58.94-92.05-1.41,0-.47.47-.94,1.41-1.41,14.09-5.64,94.4-27.74,199.14-54.55,69.98-18.34,209-53.61,370.1-91.69,0-1.41,0-3.29.47-4.7.47-9.4,1.41-17.87,2.35-26.33v-.47h.94v.47c-.94,8.46-1.88,17.4-2.35,26.33,0,1.41,0,2.82-.47,4.7,6.58-1.41,13.62-3.29,20.2-4.7h.47v.94h-.47c-7.05,1.41-13.62,3.29-20.67,4.7-1.88,24.92-4.23,50.31-16.44,72.89-9.86,17.87-24.42,31.98-44.62,43.26-23.48,13.17-54.48,21.63-93.93,26.8-36.63,4.7-60.12,6.11-78.9,6.11Zm-186.46-3.29h126.34c10.8,0,19.26.47,28.65.94,24.42,1.41,49.79,2.82,110.37-5.17,39.45-5.17,69.98-14.11,93.46-26.8,20.2-11.29,34.76-25.39,44.62-43.26,12.21-22.57,14.56-47.49,16.44-72.42-161.1,38.09-300.12,73.36-370.1,91.69-104.74,27.74-184.58,49.85-198.67,55.49-.47,0-.94.47-.94.47,2.82,2.35,51.66.94,91.11,0,22.54-.47,44.15-.94,58.71-.94Z"/>
      <path class="cls-1" d="m26.77,203.82c-15.97,0-23.48-.47-23.95-1.88,0-.47.94-.94.94-.94,12.21-5.17,76.56-23.51,168.61-47.96,104.73-27.74,226.85-58.78,343.79-86.99h.47v.94h-.47c-116.95,28.21-238.59,59.25-343.32,86.99C80.78,178.43,15.97,196.77,4.23,201.94c-.47,0-.47.47-.47.47,2.35,2.35,48.85.94,85.95,0,22.07-.47,42.74-.94,56.83-.94h228.73c34.29,0,133.39-14.58,168.61-38.56,37.1-25.39,45.09-59.25,47.91-89.34v-.47h.94v.47c-3.29,30.09-11.27,64.42-48.38,89.81-35.22,23.98-134.32,38.56-169.08,38.56h-229.67c-14.09,0-34.28.47-55.89.94-28.18.94-48.85.94-62.94.94Z"/>
      <path class="cls-1" d="m24.89,199.59c-15.5,0-23.01-.47-23.01-1.88,0-.47.47-.94.94-.94,11.27-4.7,69.51-21.63,155.93-44.67,95.34-25.39,209.47-55.02,321.72-82.29h.47v.94h-.47c-112.25,26.8-226.38,56.43-321.72,81.82C72.33,175.61,14.09,192.53,3.29,197.24c-.47,0-.47.47-.47.47,2.35,1.88,46.97.94,82.66,0,20.67-.47,40.39-.94,54.01-.94h224.97c27.71,0,114.6-4.7,161.1-25.39,38.04-16.93,59.65-41.85,68.1-79v-.47h.94v.47c-8.45,37.15-30.06,62.07-68.57,79.47-46.97,21.63-133.85,25.86-161.56,25.86h-224.97c-13.62,0-33.35.47-54.01.94-26.77.47-46.5.94-60.59.94Z"/>
      <path class="cls-1" d="m361.17,195.83c-10.8,0-18.32-.47-25.83-.94-7.05-.47-14.56-.94-25.36-.94l-236.71-.94c-31,0-50.25-.47-50.72-4.23-.47-1.88,2.82-4.7,27.71-11.76,54.48-15.99,143.72-39.97,245.16-66.3,81.72-21.16,209.47-53.61,351.31-86.99h.47v.94h-.47c-141.84,33.39-269.59,65.83-351.78,86.99-100.98,26.33-190.68,50.31-245.17,66.3-22.54,6.58-27.24,9.88-27.24,11.29.47,3.29,25.83,3.29,50.25,3.29h237.18c10.8,0,18.32.47,25.36.94,16.44,1.41,33.35,2.35,88.3-2.35,71.86-6.11,120.7-23.04,148.41-51.25,25.36-25.86,30.53-57.37,31.94-87.93v-.47h.94v.47c-1.41,30.56-6.57,62.54-31.94,88.4-27.71,28.21-76.56,45.14-148.88,51.25-30.53,3.29-49.32,4.23-62.94,4.23Z"/>
      <path class="cls-1" d="m401.09,189.24H70.45c-33.35,0-49.31-.47-49.78-4.23-.47-1.88,2.35-4.23,24.89-11.29,49.78-14.58,132.92-37.15,228.26-62.07,76.08-19.75,195.85-50.31,333.46-83.7h.47v.94h-.47c-137.61,32.92-256.91,63.48-333.46,83.7-94.87,24.45-178,47.02-227.79,61.6-20.67,6.11-24.89,8.93-24.42,10.35.47,3.29,26.3,3.29,48.85,3.29h330.64c30.53,0,125.87-15.99,158.75-38.09,27.71-18.34,42.74-43.73,47.44-79.47v-.47h.94v.47c-5.17,36.21-20.2,61.6-47.91,79.94-32.88,23.04-128.22,39.03-159.22,39.03Z"/>
      <path class="cls-1" d="m392.17,185.01l-219.8-.47h-103.8c-32.88,0-48.38-.47-48.85-4.23,0-1.41,2.35-4.23,23.01-10.35,45.56-13.64,123.05-34.8,212.76-58.78,70.92-18.81,183.17-47.49,316.08-79.94h.47v.94h-.47c-132.91,32.45-245.16,61.13-316.08,79.94-89.71,23.51-167.67,45.14-212.76,58.78-18.79,5.64-22.54,8.46-22.54,9.4.47,3.29,25.83,3.29,48.38,3.29h103.8l219.33.47h.47c34.28,0,114.6-8.93,152.64-26.33,34.76-15.99,55.42-38.56,64.81-71v-.47h.94v.47c-9.39,32.45-30.06,55.49-64.81,71.48-38.98,17.87-119.3,26.8-153.58,26.8Z"/>
      <path class="cls-1" d="m392.17,181.72c-9.86,0-17.85-.47-25.83-.94-7.51-.47-15.03-.94-23.95-.94l-212.76-.47h-.94c-12.68,0-31,.47-50.72.94-52.13,1.88-76.56,2.35-77.49,0,0-.47.47-.94.94-.94,8.92-4.23,53.07-17.87,124.93-37.62,73.74-20.69,169.08-45.61,267.71-71h.47v.94h-.47c-98.63,25.39-193.5,50.31-267.71,71C55.42,162.44,10.33,176.08,1.41,180.31h-.47c2.35,1.88,43.68.94,77.02,0,19.26-.47,37.57-.94,50.72-.94h.94l212.76.47c8.92,0,15.97.47,23.95.94,20.67.94,41.8,1.88,91.12-3.76,61.99-7.05,105.2-23.04,131.04-47.96,25.83-24.92,31-55.49,32.41-79v-.47h.94v.47c-.94,16.46-3.76,30.09-7.98,41.85-5.17,14.58-13.62,26.8-24.42,37.62-26.3,24.92-69.04,40.91-131.51,47.96-30.53,3.29-50.25,4.23-65.75,4.23Z"/>
      <path class="cls-1" d="m22.54,177.49c-14.09,0-21.13-.47-21.6-1.88,0-.47.47-.94.47-.94,7.98-4.23,49.78-16.93,116.48-35.74,68.1-19.28,157.81-43.26,251.74-67.24h.47v.94h-.47c-93.93,24.45-183.64,47.96-251.74,67.24C50.72,158.68,9.39,171.37,1.41,175.61h-.47c2.35,1.88,42.27.94,74.68,0,18.79-.47,36.63-.94,49.32-.94h1.88l301.53.47c30.06,0,120.23-17.87,150.29-38.09,25.83-17.4,40.86-40.44,46.03-71.94v-.47h.94v.47c-5.64,31.98-20.2,55.02-46.5,72.42-30.06,20.22-120.7,38.09-150.76,38.09H126.81c-12.68,0-31,.47-50.25.94-23.48.47-41.33.94-54.01.94Z"/>
      <path class="cls-1" d="m418.47,168.55c-8.45,0-16.44,0-23.48-.47-7.05,0-13.15-.47-20.2-.47h-93.46l-215.11-.47c-32.88,0-46.5-.47-46.97-3.76,0-1.41,1.41-3.76,17.38-8.93,35.69-11.29,98.16-29.15,175.65-50.32,82.66-22.57,176.59-47.02,271.47-71h.47v.94h-.47c-94.87,23.98-188.8,48.43-271.47,71-77.49,21.16-139.96,39.03-175.65,50.31-15.03,4.7-17.38,7.05-16.91,7.99.47,3.29,25.83,3.29,46.5,3.29l215.11.47h93.46c6.58,0,13.15,0,20.2.47,23.01.47,49.32,1.41,94.87-5.17,54.48-7.99,92.52-22.57,116.95-45.14,19.26-17.87,29.59-40.91,32.41-71.95v-.47h.94v.47c-2.82,31.51-13.15,54.55-32.41,72.89-24.42,22.57-62.46,37.62-117.42,45.61-31.47,3.29-53.54,4.7-71.86,4.7Z"/>
      <path class="cls-1" d="m413.77,164.79c-9.39,0-15.97-.47-22.54-.94-6.58-.47-13.15-.94-22.07-.94H66.22c-31.47,0-46.03-.47-46.5-3.76,0-1.41,1.41-3.76,15.97-8.46,33.35-10.82,92.05-27.74,165.32-47.96,77.02-21.16,166.26-44.67,257.85-68.18h.47v.94h-.47c-91.58,23.51-180.35,47.02-257.85,68.18-73.27,20.22-131.98,37.15-165.32,47.96-14.09,4.23-15.97,6.58-15.5,7.52.47,3.29,25.36,3.29,45.56,3.29h302.93c8.92,0,15.97.47,22.07.94,14.56.94,29.59,1.88,74.21-1.88,60.12-5.17,103.8-17.4,133.39-36.68,23.95-15.99,38.51-37.62,44.15-65.83v-.47h.94v.47c-5.64,28.21-20.2,50.31-44.62,66.3-29.59,19.75-73.27,31.97-133.85,37.15-23.95,1.88-39.92,2.35-51.19,2.35Z"/>
      <path class="cls-1" d="m449.94,159.15h-86.42l-297.77-.47c-31,0-45.09-.47-45.56-3.76,0-1.41,1.41-3.29,15.03-7.99,31.47-10.35,85.01-25.86,155.46-45.61,72.33-20.22,157.34-42.79,245.16-65.36h.47v.94h-.47c-87.83,22.57-172.84,45.14-245.16,65.36-70.45,19.28-123.99,35.27-155.46,45.61-12.68,4.23-14.56,6.11-14.09,7.05.47,3.29,26.3,3.29,45.09,3.29l297.77.47h85.95c27.24,0,105.67-12.23,138.55-28.21,29.12-14.11,47.91-33.86,56.83-59.25v-.47l.47.47v.47c-9.39,25.86-28.18,45.61-57.3,59.72-32.41,15.52-111.31,27.74-138.55,27.74Z"/>
      <path class="cls-1" d="m459.33,142.69H72.8c-30.06,0-44.15-.47-44.62-3.76,0-.94.94-2.82,11.27-6.58,25.36-8.93,70.45-22.57,130.57-39.97,60.12-17.4,133.38-37.62,212.29-58.78h.47v.94h-.47c-78.9,20.22-152.17,40.44-212.29,57.37-60.12,17.4-105.21,31.03-130.57,39.97-9.86,3.29-10.8,5.17-10.8,5.64.47,3.76,25.36,3.76,43.68,3.76h376.67c27.24,0,63.88.47,106.14-7.99,43.21-7.99,74.21-21.63,94.87-40.44l.47-.47.47.47-.47.47c-20.66,19.28-51.66,32.45-95.34,40.91-37.1,7.52-69.98,8.46-95.81,8.46Z"/>
      <path class="cls-1" d="m476.71,138.93c-7.05,0-13.62,0-20.2-.47-6.11,0-11.74-.47-17.38-.47h-168.14l-195.85-.47c-29.59,0-43.68-.47-44.15-3.76,0-.94.94-2.82,10.33-6.11,23.48-8.46,66.22-21.63,123.52-38.56,55.89-15.99,125.87-35.74,201.49-55.96h.47v.94h-.47c-75.62,20.22-145.6,39.97-202.43,56.43-57.3,16.46-99.57,30.09-123.52,38.56-8.92,3.29-9.86,4.7-9.86,5.64.47,3.29,26.3,3.29,43.68,3.29l195.85.47h168.14c6.11,0,11.74,0,17.38.47,20.2.47,43.21.94,82.19-4.23,47.44-6.11,82.19-17.4,107.08-34.33h.47l.47.47h-.47c-24.42,16.93-59.65,28.21-107.08,34.8-26.3,2.82-45.56,3.29-61.53,3.29Z"/>
      <path class="cls-1" d="m476.71,135.64c-8.45,0-14.56-.47-20.66-.47-6.11-.47-12.21-.47-20.2-.47H77.03c-29.12,0-43.21-.47-43.68-3.76,0-.94.94-2.82,9.39-6.11,22.07-7.99,62.47-20.69,116.48-36.68,53.54-16.93,120.23-35.27,193.03-55.49h.47v.94h-.47c-72.33,19.75-139.02,38.56-192.56,54.08-54.48,15.99-94.87,28.68-116.48,37.15-7.98,2.82-8.92,4.7-8.92,5.17.47,3.29,26.3,3.29,43.21,3.29h358.82c7.98,0,14.09.47,20.2.47,13.62.94,27.71,1.41,64.81-1.41,51.66-4.23,90.18-13.64,118.35-28.68h.47l.47.47h-.47c-28.65,15.05-67.16,24.45-118.83,28.68-20.67,2.35-34.29,2.82-44.62,2.82Z"/>
      <path class="cls-1" d="m70.92,111.65c-11.74,0-18.32-.47-19.26-1.41v-.47c.47-1.41.94-4.7,48.38-21.16,30.06-10.35,72.33-23.51,126.34-39.97h.47v.94h-.47c-54.01,15.99-96.28,29.62-126.34,39.97-38.51,13.17-47.44,18.81-47.91,20.69,1.88,1.88,33.82.94,59.65.47,14.56-.47,28.18-.47,38.51-.47h.94l406.26.47v.94h-.47l-405.79-.47c-10.33,0-24.42.47-39.45.47-16.91-.47-30.53,0-40.86,0Z"/>
      <path class="cls-1" d="m77.49,107.89c-11.27,0-18.32-.47-19.26-1.41v-.47c0-1.41.47-4.7,45.09-20.69,28.18-9.87,68.57-23.04,119.76-38.56h.47v.94h-.47c-51.19,15.52-91.58,28.21-119.76,38.09-38.51,13.64-44.62,18.34-44.62,19.75,1.41,1.41,32.88.94,58.71.47,14.56-.47,28.18-.47,38.51-.47l401.09.47v.94h-10.8l-390.29-.47h-.94c-10.33,0-23.48.47-37.57.47-16.44.47-30.06.94-39.92.94Z"/>
      <path class="cls-1" d="m564.54,104.6c-7.52,0-13.62-.47-19.26-.47-5.64-.47-11.74-.47-18.79-.47l-411.43-.47c-28.65,0-43.21-.47-43.68-3.76-.47-1.41,1.41-2.82,4.7-4.23,14.09-6.58,41.8-16.46,82.19-29.62,38.98-12.7,87.83-27.74,146.07-44.67h.47v.94h-.47c-58.24,15.99-107.08,31.04-146.07,43.73-40.39,13.17-68.1,23.04-82.19,29.62-4.23,1.88-4.7,2.82-4.7,3.29.94,3.29,26.3,3.29,43.21,3.29l411.43.47c7.52,0,13.15.47,19.26.47,13.15.47,26.3,1.41,58.24-1.41h.47v.94h-.47c-17.85,1.88-29.59,2.35-38.98,2.35Z"/>
      <path class="cls-1" d="m598.35,99.43l-477.65-.47c-28.18,0-42.74-.47-43.68-3.76-.47-1.41.94-2.35,4.23-4.23,13.15-6.58,39.45-15.99,77.49-28.68,36.63-12.23,83.6-26.8,139.49-43.26h.47v.94h-.47c-55.89,16.46-102.86,31.04-139.49,43.26-38.51,12.7-64.34,22.1-77.49,28.68-3.76,1.88-4.23,2.82-3.76,3.29.94,3.29,26.3,3.29,42.74,3.29l478.12.47v.47Z"/>
      <path class="cls-1" d="m98.16,96.14c-12.68,0-18.79-.47-19.26-1.41v-1.41c1.41-3.29,13.62-9.4,37.57-18.34,24.89-9.4,61.06-21.16,108.02-36.21h.47v.94h-.47c-46.97,14.58-83.13,26.8-108.02,36.21-29.12,10.82-36.16,15.99-37.1,17.87v.47c1.41,1.88,32.41.94,57.3.47,13.62-.47,26.77-.47,36.63-.47h.94l394.99.47v.94h-.47l-394.52-.47h-.47c-9.86,0-23.01.47-36.63.47-16.91.47-29.59.47-38.98.47Z"/>
      <path class="cls-1" d="m606.81,92.85c-7.04,0-12.68,0-18.79-.47-5.64,0-11.27-.47-17.38-.47l-389.82-.47h-.94c-9.86,0-22.54.47-36.16.47-34.75.94-56.36.94-57.3-.94-.47-.47-.47-.94,0-1.41.94-3.29,12.68-8.93,34.75-17.4,23.48-8.93,57.77-20.69,102.39-34.8h.47v.94h-.47c-44.62,14.11-79.37,25.86-102.39,34.8-27.24,10.35-33.82,15.05-34.29,16.93v.47c1.41,1.88,31.94.94,56.83.47,13.62-.47,26.77-.47,36.63-.47l389.82.47c6.11,0,11.74,0,17.38.47,15.5.47,31.47.94,61.53-1.88h.47v.94h-.47c-17.85,1.88-31,2.35-42.27,2.35Z"/>
      <path class="cls-1" d="m612.91,88.61l-470.14-.94c-28.65,0-43.21-.47-44.15-3.76-.47-.94.94-2.35,3.29-3.29,10.8-6.11,33.82-15.05,68.1-26.8,32.88-11.29,75.62-24.92,126.81-40.44h.47v.94h-.47c-51.19,15.52-93.93,29.15-126.81,40.44-34.29,11.29-57.3,20.22-68.1,26.33-2.82,1.41-2.82,2.35-2.82,2.82.94,3.29,26.3,3.29,43.21,3.29l470.13.94v.47h.47Z"/>
      <path class="cls-1" d="m123.05,85.32c-11.74,0-18.79-.47-19.73-1.41-.47-.47-.47-.94-.47-1.41.47-3.29,10.8-8.93,31-16.93,21.6-8.46,54.01-20.22,96.75-33.86h.47v.94h-.47c-42.74,13.64-75.15,25.39-96.75,33.86-24.42,9.87-30.06,14.11-30.53,16.46q0,.47.47.94c1.88,1.88,31,.94,56.36.47,13.15-.47,25.83-.47,35.7-.47h.94l458.39.94h-5.17l-453.23-.94h-.94c-9.86,0-22.07.47-35.7.47-14.56.94-27.24.94-37.1.94Z"/>
      <path class="cls-1" d="m131.98,81.56c-11.27,0-18.32-.47-19.73-1.41-.47-.47-.94-.94-.47-1.88.47-3.29,9.86-8.46,28.18-15.99,20.19-8.46,51.19-19.28,91.58-32.92h.47l.47.94h-.47c-40.39,13.17-71.39,24.45-91.58,32.92-22.54,9.4-27.71,13.64-27.71,15.52q0,.47.47.94c1.88,1.88,30.53.94,55.89.47,12.68-.47,25.36-.47,34.76-.47h.94l452.76.94v.94h-.47l-452.29-.94h-.94c-9.86,0-22.54.47-34.76.47-15.03.47-27.71.47-37.1.47Z"/>
      <path class="cls-1" d="m631.7,77.8h-28.65l-434.44-.47c-29.12,0-44.15-.47-45.09-4.23-.47-.94.47-1.88,1.88-2.82,8.45-5.64,28.18-14.11,59.18-25.39,29.12-10.34,67.63-23.51,114.6-38.09h.47v.94h-.47c-46.97,15.05-85.48,27.74-114.6,38.09-30.06,10.82-49.78,19.28-58.24,24.92-1.41.94-1.88,1.41-1.88,2.35.94,3.29,27.24,3.29,44.15,3.29l463.09.94v.47Z"/>
      <path class="cls-1" d="m151.7,74.51c-10.8,0-18.79-.47-20.2-1.41-.94-.47-1.41-1.41-1.41-1.88,0-3.29,8.45-7.99,24.89-15.52,18.32-7.99,47.44-18.81,85.95-31.98h.47l.47.94h-.47c-38.51,13.17-67.16,23.51-85.95,31.98-19.73,8.46-23.95,12.7-24.42,14.58,0,.47.47.94.94,1.41,2.82,1.88,31,.94,55.89.47,12.68-.47,25.83-.47,35.22-.47l240.94.47h142.31v.94h-142.31l-240.94-.47h-.94c-9.39,0-22.07.47-34.29.47-13.15.47-25.83.47-36.16.47Z"/>
      <path class="cls-1" d="m162.03,71.22c-10.8,0-18.32-.47-20.2-1.41-.94-.47-1.41-1.41-1.41-2.35,0-3.29,7.51-7.99,22.54-14.58,17.38-7.99,44.62-18.34,81.25-30.56h.47l.47.94h-.47c-36.63,12.7-63.88,23.04-81.25,30.56-17.85,7.99-22.07,12.23-22.07,14.11,0,.47.47.94.94,1.41,2.82,1.41,29.59.94,54.95.47,12.21-.47,24.42-.47,33.82-.47h.94l378.55.47v.94l-378.55-.47c-9.39,0-22.54.47-34.76.47-12.68.47-25.36.47-35.23.47Z"/>
      <path class="cls-1" d="m654.24,67.45l-455.57-.94c-29.59,0-44.62-.47-46.03-4.23-.47-.94,0-1.41,1.41-2.35,6.11-5.17,23.01-13.17,50.26-23.51h.47l.47.47h-.47c-27.24,10.35-44.15,18.34-50.25,23.51-.94.47-.94,1.41-.94,1.88,1.41,3.29,27.71,3.76,45.09,3.76l455.57.94v.47Z"/>
      <path class="cls-1" d="m184.58,64.63c-10.8,0-18.32-.47-20.67-.94-1.41-.47-2.35-1.41-2.35-2.35,0-2.82,6.11-7.52,18.79-13.64,15.5-7.52,41.33-17.4,75.62-30.09h.47l.47.47h-.47c-34.76,12.23-60.12,22.1-75.62,29.62-15.5,7.52-18.79,11.29-18.79,13.17,0,.94.47,1.41,1.88,1.88,3.76,1.41,29.59.94,54.95.47,11.74,0,23.95-.47,33.35-.47h1.41l377.14.47v.94h-.47l-376.67-.47h-.94c-9.39,0-21.6.47-33.35.47s-24.89.47-34.75.47Z"/>
      <path class="cls-1" d="m606.81,60.87h-18.32l-367.75-.47c-30.06,0-45.56-.47-46.97-4.23-.47-.47,0-1.41.94-2.35,5.17-5.17,20.2-12.7,45.56-23.04h.47l.47.47h-.47c-25.36,10.35-40.39,17.87-45.09,22.57-.94.94-.47,1.41-.47,1.41,1.41,3.76,28.65,3.76,46.03,3.76l386.06.47v1.41h-.47Z"/>
      <path class="cls-1" d="m208.53,58.05c-10.33,0-18.32-.47-20.67-.94-1.88-.47-3.29-1.88-3.29-2.82,0-2.82,4.7-7.05,15.97-12.7,14.09-7.52,37.57-16.93,69.98-29.15h.47l.47.47h-.47c-32.41,11.76-55.89,21.63-69.98,29.15-13.15,6.58-15.5,10.35-15.5,11.76,0,.94.94,1.88,2.82,2.35,4.7,1.41,30.06.94,54.48.47,11.74,0,23.48-.47,32.88-.47h.94l375.26.47v.94h-.47l-374.79-.47h-.94c-9.39,0-21.13,0-32.88.47-11.74,0-23.95.47-34.29.47Z"/>
      <path class="cls-1" d="m221.21,54.76c-10.33,0-18.32-.47-20.66-.94-2.35-.94-3.76-1.88-3.76-3.29-.47-2.82,4.23-6.58,13.62-11.76,13.15-7.05,35.23-16.46,65.75-28.21h.47l.47.47h-.47c-31,11.76-53.07,21.16-65.75,28.21-11.27,6.11-13.62,9.4-13.62,11.29,0,.94,1.41,1.88,3.29,2.35,4.7,1.41,30.06.94,54.01.47,11.74,0,23.95-.47,33.35-.47l303.4.47v.94h-.47l-302.93-.47h-.94c-9.39,0-21.13,0-32.41.47-11.74,0-23.48.47-33.35.47Z"/>
      <path class="cls-1" d="m637.34,51l-379.49-.47c-30.53,0-46.5-.47-48.38-4.23,0-.47-.47-.94,0-1.88,2.82-4.7,15.03-11.76,37.1-21.63h.47l.47.94h-.47c-21.61,9.4-34.29,16.46-36.63,21.16-.47.47,0,.94,0,.94,1.88,3.29,23.48,3.76,47.44,3.76l379.49.47v.94Z"/>
      <path class="cls-1" d="m248.45,48.17c-10.33,0-18.32,0-21.14-.94-3.29-.94-5.17-1.88-5.17-3.76-.47-2.82,3.29-6.11,10.8-10.82,11.27-7.05,31.47-15.99,60.59-27.27h.47l.47.47h-.47c-29.12,11.76-49.31,20.69-60.59,27.27-9.39,5.64-10.8,8.46-10.33,10.35,0,1.41,1.88,2.35,4.7,2.82,5.64,1.41,30.06.94,54.01.47,11.27,0,23.48-.47,32.41-.47l301.05.94v.94h-.47l-301.06-.94h-.94c-8.92,0-20.67,0-31.94.47-11.27.47-23.01.47-32.41.47Z"/>
      <path class="cls-1" d="m593.66,44.88h-23.48l-285.09-.47c-26.3,0-46.97-.47-49.32-4.23-.47-.47-.47-.94-.47-1.41,1.41-4.7,11.74-11.29,32.41-20.69h.47l.47.47h-.47c-19.73,9.4-30.53,15.99-31.94,20.22v.94c2.35,3.29,24.42,3.76,48.85,3.76l308.57.47v.94Z"/>
      <path class="cls-1" d="m277.1,42.06c-10.33,0-18.32,0-21.6-.94-4.23-.94-6.57-2.35-7.04-4.23-.47-2.35,2.35-5.64,8.45-9.87h.47l.47.47h-.47c-5.64,3.76-8.45,7.05-7.99,8.93.47,1.41,2.35,2.82,6.11,3.76,6.57,1.41,30.53.94,53.54.47,10.8,0,22.07-.47,31-.47h.94l299.65.47v.94h-20.67l-278.51-.47c-9.39,0-20.67,0-31.94.47s-22.54.47-32.41.47Z"/>
      <path class="cls-1" d="m620.9,38.77h-23.48l-283.21-.47c-34.76,0-51.19-.94-51.19-5.17,0-4.7,8.92-11.29,27.24-20.22h.47l.47.47h-.47c-18.32,8.93-27.24,15.52-27.24,19.75s29.12,4.23,50.72,4.23l306.69.47v.94Z"/>
      <path class="cls-1" d="m308.1,35.95c-10.33,0-18.32,0-22.07-.94-5.17-.94-8.45-2.35-8.92-4.7-.47-2.35,1.41-5.17,6.11-8.93h.47l.47.47h-.47c-4.23,3.29-6.11,6.11-5.64,7.99.47,1.88,3.29,3.29,7.98,4.23,7.05,1.41,30.53.94,53.54.47,10.8,0,21.6-.47,30.53-.47h.94l228.73.47v.94h-228.26c-8.92,0-20.67,0-31.47.47h-31.94Z"/>
      <path class="cls-1" d="m649.55,33.13l-304.34-.47c-30.06,0-51.19-.47-53.07-4.7-1.41-4.23,5.64-10.82,22.54-19.75h.47l.47.47h-.47c-19.73,10.82-23.01,15.99-22.07,18.81,1.41,4.23,29.59,4.23,52.13,4.23l304.34.47v.94Z"/>
      <path class="cls-1" d="m596.94,29.84h-234.83c-30.53,0-52.13-.47-54.01-4.7-2.82-4.23,4.23-10.82,20.2-19.75h.47v.47h-.47c-10.8,5.64-22.54,13.64-20.2,18.34,2.35,4.23,30.53,4.23,53.54,4.23l235.3.47v.94Z"/>
      <path class="cls-1" d="m358.35,27.48c-9.86,0-18.32,0-23.01-.94-7.52-.94-11.27-2.82-12.68-5.64-.47-1.88.47-4.23,2.82-7.05l.47-.47.94.94-.47.47c-2.35,2.35-3.29,4.7-2.82,6.58.94,2.35,4.7,4.23,11.74,5.17,8.45.94,31.47.94,53.54.47,10.33,0,21.14-.47,30.06-.47h.94l227.79.47v.94h.47l-227.79-.94h-.94c-8.92,0-19.73,0-30.06.47h-31Z"/>
      <path class="cls-1" d="m629.35,24.66l-233.42-.47c-30.53,0-52.13-.47-55.89-4.23l-.47-.47.94-.47.47.47c3.76,4.23,31,4.23,55.42,4.23h232.95v.94Z"/>
      <path class="cls-1" d="m394.52,22.31c-9.86,0-18.32,0-23.48-.47-8.92-.94-14.09-2.82-15.5-6.11-.94-1.88-.47-3.76,1.41-6.11v-.47l.94.47v.47c-1.41,1.88-1.88,3.76-1.41,5.17,1.41,2.82,6.1,4.7,14.56,5.64,9.39.94,31.94.47,53.54.47,9.86,0,20.67-.47,29.12-.47h155.93v.94h-154.52c-8.92,0-19.73,0-30.53.47-10.33-.47-20.67,0-30.06,0Z"/>
      <path class="cls-1" d="m413.77,19.49c-9.86,0-18.79,0-23.95-.47-9.86-.94-15.5-2.82-16.91-6.11-.94-1.41-.47-3.76.94-5.64v-.47l.47.47v.47c-1.41,1.88-1.41,3.76-.94,5.17,1.41,2.82,7.05,4.7,16.44,5.64,9.86.47,32.41.47,54.01,0,10.33,0,21.6,0,30.53-.47l154.99.47v.47h-154.99c-8.92,0-19.73,0-30.53.47h-30.06Z"/>
      <path class="cls-1" d="m610.09,16.67l-158.75-.47c-26.77,0-52.6,0-58.71-3.76h-.47l.47-.47h.47c6.11,3.76,32.41,3.76,58.24,3.76l158.75.47v.47Z"/>
      <path class="cls-1" d="m453.23,14.32c-9.86,0-18.79,0-24.42-.47h-.47v-.94h.47c10.8.94,32.41.47,53.54.47,10.33,0,20.67-.47,29.59,0h78.9v.94h-137.61Z"/>
      <path class="cls-1" d="m473.89,11.97c-9.86,0-18.79,0-24.89-.47h-.47v-.94h.47c11.27.94,32.88.47,54.01.47h108.96v.94h-138.08Z"/>
      <path class="cls-1" d="m593.19,9.15h-81.72c-27.24,0-53.07,0-61.06-3.76h-.47v-.47h.47c8.45,3.29,33.82,3.29,61.06,3.29h81.72v.94Z"/>
      <path class="cls-1" d="m539.17,4.91c-10.33,0-19.26,0-26.3-.47h-.47v-.94h.47c13.15.47,33.82.47,54.01.47h29.12v.94h-56.83Z"/>
    </g>
  </g>
</svg>