<?xml version="1.0" encoding="utf-8"?>
<!-- Generator: Adobe Illustrator 24.1.3, SVG Export Plug-In . SVG Version: 6.00 Build 0)  -->
<svg version="1.1" id="Layer_1" xmlns="http://www.w3.org/2000/svg" xmlns:xlink="http://www.w3.org/1999/xlink" x="0px" y="0px"
	 viewBox="0 0 498.4 498.4" style="enable-background:new 0 0 498.4 498.4;" xml:space="preserve">
<style type="text/css">
	.st0{fill:#FFFFFF;}
</style>
<path class="st0" d="M215.4,344.9c0-26.7,0-53.2,0-79.9c0-1.3,0-2.5,0.1-3.8c0.7-4.2,4.2-7.1,8.4-7.2c0.9,0,1.6,0,2.5,0
	c33.2,0,66.5,0,99.7,0c5.9,0,11.7-0.7,17.3-2.9c13.2-5.2,27.7-19,27.8-39.4c0-19.4-9.4-32.9-26.5-41.2c-5.8-2.8-12.2-3.5-18.6-3.5
	c-33.2,0-66.5,0-99.7,0c-0.7,0-1.4,0-2.3,0c-4.3,0.1-8.1-3.6-8.6-7.7c-0.1-0.7-0.1-1.4-0.1-2.3c0-13.6,0-27.4,0-41
	c0-3,0.7-5.8,3-7.8c1.4-1.3,3.2-2,5.2-2.2c0.6,0,1.2,0,1.6,0c33.8,0,67.6,0,101.3,0c15.1,0,29.7,2.8,43.5,9.1
	c19,8.8,34.2,22,45.5,39.9c7.8,12.3,13,25.7,14.9,40c3.5,24.9-0.9,48.3-14.2,69.9c-8,12.9-18.1,23.6-30.7,32.2
	c-13.8,9.4-29,15.4-45.7,17.1c-4.5,0.4-9,0.7-13.5,0.7c-16.1,0.1-32.2,0-48.3,0c-1.7,0-3.5,0.1-5.2,0.4c-2.5,0.4-3.8,1.7-4.1,4.3
	c-0.1,1.4-0.3,2.9-0.3,4.3c0,33.3,0,66.7,0,99.9c0,0.9,0,1.7,0,2.8c0,5.2-4.1,8.3-8.1,8.6c-0.6,0-1.2,0-1.6,0c-11.5,0-22.8,0-34.2,0
	c-2.5,0-4.6-0.6-6.5-2.2c-1.9-1.7-2.9-3.8-3-6.4c0-0.9,0-1.6,0-2.5C215.4,398,215.4,371.5,215.4,344.9z"/>
<path class="st0" d="M133,137.2c1.2,0,1.9,0,2.6,0c7,0,13.8,0,20.7,0c0.7,0,1.6,0,2.3,0c3,0.3,5.1,2.3,5.2,5.4c0,0.6,0,1.2,0,1.6
	c0,10.4,0,20.9,0,31.3c0,0.6,0,1.3,0,1.9c-0.3,2.8-2.3,4.8-5.1,5.1c-0.7,0.1-1.4,0.1-2.3,0.1c-7,0-13.8,0-20.7,0c-0.9,0-1.6,0-2.6,0
	c0,1-0.1,1.9-0.1,2.6c0,6.8,0,13.5,0,20.3c0,0.6,0,1.2,0,1.6c-0.1,4.2-2.3,6.4-6.5,6.4c-10.9,0-21.7,0-32.5,0
	c-4.2,0-6.4-2.2-6.4-6.4c0-7.2,0-14.5,0-21.7c0-0.9,0-1.6,0-2.6c-1,0-1.9-0.1-2.6-0.1c-7,0-13.8,0-20.7,0c-0.7,0-1.6,0-2.3,0
	c-2.9-0.3-4.9-2.3-5.2-5.2c0-0.6,0-1.3,0-1.9c0-10.4,0-20.9,0-31.3c0-0.6,0-1.3,0-1.9c0.3-2.9,2.5-4.9,5.4-5.1c0.7,0,1.4,0,2.3,0
	c7,0,13.8,0,20.7,0c0.7,0,1.4,0,2.5,0c0-1,0.1-1.7,0.1-2.5c0-7,0-13.9,0-20.9c0-0.7,0-1.6,0-2.3c0.3-3,2.5-5.1,5.4-5.4
	c0.6,0,1.2,0,1.6,0c10.4,0,20.9,0,31.3,0c0.6,0,1.2,0,1.6,0c2.9,0.3,5.1,2.2,5.4,5.1c0.1,0.9,0.1,1.6,0.1,2.5c0,6.8,0,13.6,0,20.6
	C133,135.2,133,136.1,133,137.2z"/>
</svg>
